<svg xmlns="http://www.w3.org/2000/svg" xmlns:xlink="http://www.w3.org/1999/xlink" viewBox="0 0 3865.87 1152.73"><defs><style>.cls-1{fill:none;}.cls-2{fill:#d3ddff;}.cls-10,.cls-11,.cls-12,.cls-15,.cls-17,.cls-18,.cls-2,.cls-31,.cls-39,.cls-5,.cls-8{isolation:isolate;}.cls-3{fill:#6680ff;}.cls-11,.cls-4,.cls-44{fill:#fff;}.cls-18,.cls-5{opacity:0.1;}.cls-31,.cls-6{fill:#98a8ff;}.cls-39,.cls-7{fill:#ff9a84;}.cls-8{fill:#6c63ff;}.cls-10,.cls-11,.cls-8{opacity:0.3;}.cls-12,.cls-15,.cls-9{opacity:0.2;}.cls-10,.cls-18,.cls-40{fill:#2f2fcb;}.cls-13,.cls-25{fill:#3f3d56;}.cls-14{fill:#656380;}.cls-16{fill:#e6e8ec;}.cls-17{fill:#080872;}.cls-19{fill:#2f2e41;}.cls-20{clip-path:url(#clip-path);}.cls-21{opacity:0.6;}.cls-22{fill:#333;}.cls-23{fill:#ffb8b8;}.cls-24{fill:#d0cde1;}.cls-25{font-size:20px;}.cls-25,.cls-40{font-family:Montserrat-ExtraBold, Montserrat;font-weight:800;}.cls-26{letter-spacing:-0.03em;}.cls-27{letter-spacing:-0.01em;}.cls-28{letter-spacing:0.01em;}.cls-29{letter-spacing:-0.04em;}.cls-30{letter-spacing:0.02em;}.cls-31{opacity:0.4;}.cls-32{font-size:44.68px;font-family:Montserrat-Bold, Montserrat;font-weight:700;}.cls-32,.cls-38{fill:#ff5039;}.cls-33{letter-spacing:-0.01em;}.cls-34{letter-spacing:-0.02em;}.cls-35{letter-spacing:0em;}.cls-36{letter-spacing:0.01em;}.cls-37{letter-spacing:-0.01em;}.cls-40{font-size:38.57px;}.cls-41{letter-spacing:-0.01em;}.cls-42{letter-spacing:-0.03em;}.cls-43{letter-spacing:-0.01em;}.cls-44{font-size:68.49px;font-family:Montserrat-Regular, Montserrat;}.cls-45{letter-spacing:-0.01em;}.cls-46{letter-spacing:-0.02em;}.cls-47{letter-spacing:-0.02em;}.cls-48{letter-spacing:-0.01em;}.cls-49{letter-spacing:0em;}.cls-50{letter-spacing:-0.02em;}.cls-51{letter-spacing:-0.02em;}.cls-52{letter-spacing:-0.01em;}.cls-53{letter-spacing:0em;}.cls-54{letter-spacing:-0.01em;}.cls-55{letter-spacing:0em;}.cls-56{letter-spacing:-0.01em;}.cls-57{letter-spacing:-0.02em;}.cls-58{letter-spacing:-0.01em;}.cls-59{letter-spacing:0em;}.cls-60{letter-spacing:-0.01em;}.cls-61{letter-spacing:-0.02em;}.cls-62{letter-spacing:0em;}.cls-63{letter-spacing:0em;}</style><clipPath id="clip-path"><rect class="cls-1" x="329.76" y="167.06" width="418.75" height="256.38"/></clipPath></defs><title>Asset 10</title><g id="Layer_2" data-name="Layer 2"><g id="Layer_2-2" data-name="Layer 2"><circle class="cls-2" cx="2071.1" cy="91.53" r="38.88"/><circle class="cls-2" cx="1458.8" cy="201.04" r="25.1"/><circle class="cls-2" cx="1956.31" cy="91.53" r="19.47"/><circle class="cls-2" cx="1755.57" cy="640.74" r="32.63"/><circle class="cls-2" cx="2197.48" cy="626.88" r="46.49"/><path class="cls-2" d="M1772.78,57.86c-33.47-13.6-68.83-25-104.93-23.54-53.11,2.09-104,34-129,80.89-21.18,39.71-23.79,86.26-32.91,130.32-11.23,54.31-32.75,105.91-55.74,156.37-12.35,27.07-25.38,54.8-27.4,84.52-2.82,41.25,16.9,82.36,47.83,109.83s72,41.91,113.22,45.07c21.94,1.69,44.86.13,64.35-10.08,20.61-10.8,35.64-30.33,56.34-41,19.18-9.9,41.61-11.25,63.15-10a283.12,283.12,0,0,1,82.45,17.52c30.09,11.31,58.08,27.68,88.11,39.14s63.59,17.86,94.29,8.29c28.8-9,51.62-30.79,72.17-52.89a925.8,925.8,0,0,0,92-116.4c18.54-27.77,35.79-57.06,44-89.42,15.66-61.87-5.9-131.67-53.74-173.93-39.61-35-92.8-50.19-144.86-59.41-47.47-8.41-102.36-8.93-146.06-30.85C1854.39,101.42,1816.47,75.63,1772.78,57.86Z"/><path class="cls-3" d="M1988.31,301c-17.2-84.79-90.93-148.66-180.63-148.66-71.28,0-132.72,40.54-163.45,99.5-73.73,7.38-131.48,70-131.48,146.27,0,81.09,66.35,147.46,147.47,147.46h319.5c67.58,0,122.88-55.31,122.88-122.89A121.38,121.38,0,0,0,1988.31,301Z"/><path class="cls-4" d="M1889,343c-13.29,0-25.79,5.15-36.15,14.89-8.74,8.22-15.8,19.58-20.4,32.87-10,28.87-35.13,47.54-64,47.54a67.51,67.51,0,1,1,58.61-101,14,14,0,0,0,24.34-14,95.56,95.56,0,0,0-178.49,47.46,95.62,95.62,0,0,0,95.54,95.56,92.75,92.75,0,0,0,56.53-19,100.45,100.45,0,0,0,34-47.37c9.3-26.81,25.37-28.89,30.06-28.89a25.53,25.53,0,0,1,25.5,25.5v40.31a14,14,0,1,0,28,0V396.53A53.61,53.61,0,0,0,1889,343"/><path class="cls-2" d="M2882.32,401.06l-5.49-3.41c-.52-.32-1-.67-1.56-1a52.28,52.28,0,0,0,5.28-101.85l.27,21.54L2869,292.92h-.17a52.26,52.26,0,0,0-54.64,49.76h0c-.06,1,0,2,0,3a62.32,62.32,0,0,1-10.33-15.26c-5-11.17-5.1-23.83-4.71-39.2.79-30.49,2.1-61.2,3.82-91.81a52.28,52.28,0,0,0,46.42-49.46c.07-1.6,0-3.18,0-4.74a7.71,7.71,0,0,0-.06-1.18c-.11-1.51-.25-3-.48-4.5a3.53,3.53,0,0,0-.14-.72c-.21-1.25-.47-2.49-.76-3.73-.12-.45-.23-.87-.35-1.37-.37-1.32-.77-2.62-1.24-3.93-.16-.43-.34-.88-.51-1.28q-.56-1.42-1.2-2.82c-.22-.49-.44-1-.68-1.46-.07-.12-.11-.25-.18-.37h0a52.23,52.23,0,0,0-61.41-26.5l.35,28L2771,102.21a52,52,0,0,0-24.93,56.37H2746c.08.38.19.72.28,1.1.17.69.34,1.37.53,2,.25.88.53,1.75.81,2.62.22.64.43,1.29.68,1.92.35.93.76,1.83,1.16,2.73.23.52.44,1.06.7,1.58q1,2,2.16,3.95c.27.46.58.88.88,1.32a30.29,30.29,0,0,0,1.74,2.56c.38.52.78,1,1.17,1.51.58.73,1.16,1.44,1.75,2.13.43.5.87,1,1.32,1.45q1,1,2,2c.44.42.87.87,1.37,1.27.77.68,1.57,1.34,2.38,2,.41.32.82.66,1.24,1,1.24.88,2.51,1.75,3.83,2.62.24.16.51.28.76.43,1.11.65,2.23,1.26,3.38,1.83.5.24,1,.45,1.51.68.94.42,1.89.87,2.87,1.2.57.22,1.15.42,1.75.62,1,.32,1.94.62,2.92.87.58.16,1.16.33,1.75.47,1.06.25,2.16.46,3.26.65l.21.05q-1.08,19.37-1.92,38.76a52.23,52.23,0,0,0-69.81-24.13c-.93.44-1.84.92-2.73,1.42l9.24,25.33-19-18.34a52.09,52.09,0,0,0-16.89,36.09,50.91,50.91,0,0,0,1.33,14.4,52.25,52.25,0,0,0,96.1,14.24c0,1.31-.08,2.62-.12,3.94-.35,13.57-.78,30.46,6,45.54,4.59,10.22,12,18.51,19.21,25.95q7.13,7.28,14.7,14.06a52.44,52.44,0,0,0,18.88,15.72c8.28,6.38,16.85,12.38,25.72,17.92l5.53,3.44c5,3.08,10.08,6.25,15.07,9.54-.87-.09-1.74-.18-2.62-.23a52.29,52.29,0,0,0-51.46,34.06l32.65,26.57-35.92-8.33a52.31,52.31,0,0,0,74.94,47.08c-.8,1-1.61,2-2.43,3l-4.76,6c-21.25,26.91-27.16,52.47-16.64,72l12.8-6.92c-10.24-19,5.16-43.23,15.26-56q2.29-2.93,4.68-5.85c13.59-16.91,29-36,28.6-59.49C2944.23,439.43,2909.86,418.16,2882.32,401.06Z"/><path class="cls-2" d="M3487,340.08l5.49-3.42c.53-.32,1-.67,1.57-1a52.27,52.27,0,0,1-5.24-101.84l-.27,21.54,11.83-23.43h.15a52.26,52.26,0,0,1,54.64,49.76h0c.06,1,0,2,0,3a62.27,62.27,0,0,0,10.33-15.25c5-11.17,5.1-23.83,4.71-39.21-.79-30.48-2.1-61.2-3.82-91.81A52.27,52.27,0,0,1,3520,88.94c-.07-1.6,0-3.18,0-4.74A7.58,7.58,0,0,1,3520,83c.11-1.52.25-3,.49-4.51a3.42,3.42,0,0,1,.13-.71c.21-1.26.47-2.5.76-3.73.12-.46.23-.87.35-1.37.37-1.33.77-2.62,1.24-3.94.16-.43.34-.87.51-1.28q.55-1.42,1.2-2.82c.22-.49.44-1,.69-1.45.06-.13.1-.26.17-.38h0A52.22,52.22,0,0,1,3587,36.34l-.35,28,11.7-23.16a52,52,0,0,1,24.94,56.38h.05c-.07.38-.19.73-.28,1.1-.16.69-.34,1.38-.53,2.06-.24.87-.52,1.74-.81,2.62-.22.63-.43,1.28-.67,1.92-.36.92-.76,1.82-1.16,2.72-.24.53-.45,1.07-.7,1.58q-1,2-2.17,4c-.27.45-.57.87-.87,1.32-.56.87-1.12,1.74-1.75,2.55-.37.52-.77,1-1.17,1.52-.57.72-1.16,1.44-1.74,2.13-.43.49-.88,1-1.32,1.45-.64.67-1.3,1.32-2,2-.45.43-.88.87-1.38,1.27-.76.69-1.57,1.34-2.38,2-.41.31-.81.65-1.23,1-1.24.87-2.52,1.74-3.83,2.57-.25.16-.52.28-.76.43-1.11.65-2.23,1.26-3.38,1.83-.5.24-1,.45-1.51.68-1,.42-1.9.87-2.88,1.2-.56.22-1.14.42-1.74.62-1,.33-1.94.62-2.93.88-.57.15-1.16.32-1.75.46-1.06.25-2.15.46-3.25.65h-.21q1.07,19.38,1.92,38.77a52.23,52.23,0,0,1,69.81-24.14c.92.45,1.83.93,2.73,1.43l-9.24,25.32,19-18.25A52.13,52.13,0,0,1,3682,197.25a51.28,51.28,0,0,1-1.33,14.4,52.26,52.26,0,0,1-96.11,14.25c0,1.31.1,2.62.13,3.93.34,13.57.78,30.46-6,45.54-4.58,10.22-11.95,18.51-19.21,25.95q-7.11,7.28-14.69,14.06A52.24,52.24,0,0,1,3526,331.1c-8.28,6.38-16.86,12.38-25.72,17.92l-5.53,3.44c-5,3.08-10.08,6.25-15.08,9.54.88-.08,1.75-.18,2.62-.22a52.29,52.29,0,0,1,51.47,34.05l-32.66,26.57,35.93-8.33A52.29,52.29,0,0,1,3462,461.15c.8,1,1.61,2,2.42,3,1.61,2,3.2,4,4.76,6,21.26,26.91,27.17,52.47,16.65,72l-12.8-6.92c10.24-18.95-5.16-43.23-15.26-56q-2.31-2.92-4.68-5.85c-13.58-16.87-29-36-28.59-59.45C3425.11,378.45,3459.43,357.18,3487,340.08Z"/><ellipse class="cls-2" cx="3260.99" cy="641.38" rx="480.1" ry="32"/><polygon class="cls-4" points="3277.11 642.35 3104.35 640.14 3104.85 635.71 3113.21 562.61 3264.93 562.61 3276.09 635.71 3276.95 641.24 3277.11 642.35"/><polygon class="cls-5" points="3276.95 641.24 3190.72 641.24 3104.35 640.14 3104.85 635.71 3276.09 635.71 3276.95 641.24"/><rect class="cls-4" x="3075.55" y="636.81" width="229.25" height="5.54"/><path class="cls-4" d="M3523.53,123.59a14.42,14.42,0,0,0-14.35-14.49H2869a14.43,14.43,0,0,0-14.35,14.49h0V511.66h668.91Z"/><path class="cls-4" d="M2854.62,507.79v45.46A14.34,14.34,0,0,0,2869,567.59h640.21a14.34,14.34,0,0,0,14.35-14.34V507.79Z"/><rect class="cls-3" x="2882.3" y="133.47" width="616.86" height="348.85"/><path class="cls-6" d="M3192.36,550.35a14.94,14.94,0,0,0,11.76-5.71h0a15.32,15.32,0,0,0,1.17-1.72l-8.21-1.35,8.88.07a15.06,15.06,0,0,0,.29-11.85L3194.34,536l11-8.07a15,15,0,1,0-24.7,16.74h0A14.94,14.94,0,0,0,3192.36,550.35Z"/><polygon class="cls-5" points="3207.34 567.6 3276.27 636.81 3265.69 567.6 3207.34 567.6"/><path class="cls-7" d="M3392.46,614.83,3411,604a45,45,0,0,0-9.5-11.35l-35,10.89L3394,587.37a44.59,44.59,0,0,0-66,39.13c0,24.63,20,25.48,44.59,25.48s44.6-.85,44.6-25.48a44.41,44.41,0,0,0-3.82-18.1Z"/><path class="cls-5" d="M3397.19,638.78a35.37,35.37,0,0,0-6.58-5.17c-3.37-2.24-6.86-4.52-10.83-5.28-3.48-.67-7.09-.11-10.67-.3a24.91,24.91,0,0,1-16.3-7.48c-2.54-2.62-4.52-5.82-7.58-7.84a16.66,16.66,0,0,0-11.34-2.09,32,32,0,0,0-3.37.7,44.32,44.32,0,0,0-2.63,15.13c0,24.63,20,25.49,44.6,25.49,12,0,22.81-.21,30.82-3.23l-1.34-2.5A34.75,34.75,0,0,0,3397.19,638.78Z"/><rect class="cls-8" x="2909.7" y="268.05" width="20.51" height="6.22"/><rect class="cls-8" x="3456.87" y="268.24" width="20.51" height="6.22"/><rect class="cls-8" x="2909.88" y="311.81" width="20.51" height="6.22"/><rect class="cls-8" x="2910.07" y="355.56" width="20.51" height="6.22"/><rect class="cls-8" x="2910.25" y="399.31" width="20.51" height="6.22"/><g class="cls-9"><rect class="cls-4" x="2930.21" y="271.05" width="5.82" height="0.24"/><rect class="cls-4" x="2929.71" y="270.55" width="6.82" height="1.24"/><path class="cls-4" d="M3439.25,271.29h-11.43v-.24h11.43Zm-22.87,0H3405v-.24h11.43Zm-22.87,0h-11.45v-.24h11.45Zm-22.88,0h-11.44v-.24h11.44Zm-22.87,0h-11.44v-.24h11.44Zm-22.88,0h-11.43v-.24h11.43Zm-22.87,0h-11.44v-.24H3302Zm-22.87,0H3267.7v-.24h11.44Zm-22.87,0h-11.45v-.24h11.45Zm-22.89,0H3222v-.24h11.43Zm-22.87,0h-11.44v-.24h11.44Zm-22.87,0H3176.2v-.24h11.44Zm-22.87,0h-11.44v-.24h11.44Zm-22.88,0h-11.43v-.24h11.43Zm-22.87,0h-11.44v-.24H3119Zm-22.88,0h-11.4v-.24h11.44Zm-22.87,0h-11.44v-.24h11.44Zm-22.88,0H3039v-.24h11.43Zm-22.87,0h-11.43v-.24h11.45Zm-22.87,0h-11.44v-.24h11.44Zm-22.87,0h-11.44v-.24h11.44Zm-22.89,0h-11.43v-.24h11.43Z"/><path class="cls-4" d="M3439.75,271.79h-12.43v-1.24h12.43Zm-22.87,0h-12.43v-1.24h12.43Zm-22.87,0h-12.45v-1.24H3394Zm-22.88,0h-12.44v-1.24h12.44Zm-22.87,0h-12.44v-1.24h12.44Zm-22.88,0H3313v-1.24h12.43Zm-22.87,0h-12.44v-1.24h12.44Zm-22.87,0H3267.2v-1.24h12.44Zm-22.87,0h-12.44v-1.24h12.44Zm-22.89,0h-12.43v-1.24h12.43Zm-22.87,0h-12.44v-1.24H3211Zm-22.87,0H3175.7v-1.24h12.44Zm-22.87,0h-12.44v-1.24h12.44Zm-22.88,0H3130v-1.24h12.43Zm-22.87,0h-12.44v-1.24h12.44Zm-22.95,0h-12.33v-1.24h12.53Zm-22.8,0h-12.44v-1.24h12.44Zm-22.88,0h-12.43v-1.24h12.43Zm-22.91,0h-12.39v-1.24h12.49Zm-22.83,0h-12.44v-1.24h12.44Zm-22.88,0h-12.44v-1.24h12.45Zm-22.88,0H2947v-1.24h12.43Z"/><rect class="cls-4" x="3450.69" y="271.05" width="5.82" height="0.24"/><rect class="cls-4" x="3450.19" y="270.55" width="6.82" height="1.24"/><rect class="cls-4" x="2930.21" y="271.05" width="5.82" height="0.24"/><rect class="cls-4" x="2929.71" y="270.55" width="6.82" height="1.24"/><path class="cls-4" d="M3439.25,271.29h-11.43v-.24h11.43Zm-22.87,0H3405v-.24h11.43Zm-22.87,0h-11.45v-.24h11.45Zm-22.88,0h-11.44v-.24h11.44Zm-22.87,0h-11.44v-.24h11.44Zm-22.88,0h-11.43v-.24h11.43Zm-22.87,0h-11.44v-.24H3302Zm-22.87,0H3267.7v-.24h11.44Zm-22.87,0h-11.45v-.24h11.45Zm-22.89,0H3222v-.24h11.43Zm-22.87,0h-11.44v-.24h11.44Zm-22.87,0H3176.2v-.24h11.44Zm-22.87,0h-11.44v-.24h11.44Zm-22.88,0h-11.43v-.24h11.43Zm-22.87,0h-11.44v-.24H3119Zm-22.88,0h-11.4v-.24h11.44Zm-22.87,0h-11.44v-.24h11.44Zm-22.88,0H3039v-.24h11.43Zm-22.87,0h-11.43v-.24h11.45Zm-22.87,0h-11.44v-.24h11.44Zm-22.87,0h-11.44v-.24h11.44Zm-22.89,0h-11.43v-.24h11.43Z"/><path class="cls-4" d="M3439.75,271.79h-12.43v-1.24h12.43Zm-22.87,0h-12.43v-1.24h12.43Zm-22.87,0h-12.45v-1.24H3394Zm-22.88,0h-12.44v-1.24h12.44Zm-22.87,0h-12.44v-1.24h12.44Zm-22.88,0H3313v-1.24h12.43Zm-22.87,0h-12.44v-1.24h12.44Zm-22.87,0H3267.2v-1.24h12.44Zm-22.87,0h-12.44v-1.24h12.44Zm-22.89,0h-12.43v-1.24h12.43Zm-22.87,0h-12.44v-1.24H3211Zm-22.87,0H3175.7v-1.24h12.44Zm-22.87,0h-12.44v-1.24h12.44Zm-22.88,0H3130v-1.24h12.43Zm-22.87,0h-12.44v-1.24h12.44Zm-22.95,0h-12.33v-1.24h12.53Zm-22.8,0h-12.44v-1.24h12.44Zm-22.88,0h-12.43v-1.24h12.43Zm-22.91,0h-12.39v-1.24h12.49Zm-22.83,0h-12.44v-1.24h12.44Zm-22.88,0h-12.44v-1.24h12.45Zm-22.88,0H2947v-1.24h12.43Z"/><rect class="cls-4" x="3450.69" y="271.05" width="5.82" height="0.24"/><rect class="cls-4" x="3450.19" y="270.55" width="6.82" height="1.24"/></g><rect class="cls-8" x="2909.7" y="224.42" width="20.51" height="6.22"/><rect class="cls-8" x="3456.87" y="224.61" width="20.51" height="6.22"/><g class="cls-9"><rect class="cls-4" x="2930.21" y="227.42" width="5.82" height="0.24"/><rect class="cls-4" x="2929.71" y="226.92" width="6.82" height="1.24"/><path class="cls-4" d="M3439.25,227.66h-11.43v-.24h11.43Zm-22.87,0H3405v-.24h11.43Zm-22.87,0h-11.45v-.24h11.45Zm-22.88,0h-11.44v-.24h11.44Zm-22.87,0h-11.44v-.24h11.44Zm-22.88,0h-11.43v-.24h11.43Zm-22.87,0h-11.44v-.24H3302Zm-22.87,0H3267.7v-.24h11.44Zm-22.87,0h-11.45v-.24h11.45Zm-22.89,0H3222v-.24h11.43Zm-22.87,0h-11.44v-.24h11.44Zm-22.87,0H3176.2v-.24h11.44Zm-22.87,0h-11.44v-.24h11.44Zm-22.88,0h-11.43v-.24h11.43Zm-22.87,0h-11.44v-.24H3119Zm-22.88,0h-11.4v-.24h11.44Zm-22.87,0h-11.44v-.24h11.44Zm-22.88,0H3039v-.24h11.43Zm-22.87,0h-11.43v-.24h11.45Zm-22.87,0h-11.44v-.24h11.44Zm-22.87,0h-11.44v-.24h11.44Zm-22.89,0h-11.43v-.24h11.43Z"/><path class="cls-4" d="M3439.75,228.16h-12.43v-1.24h12.43Zm-22.87,0h-12.43v-1.24h12.43Zm-22.87,0h-12.45v-1.24H3394Zm-22.88,0h-12.44v-1.24h12.44Zm-22.87,0h-12.44v-1.24h12.44Zm-22.88,0H3313v-1.24h12.43Zm-22.87,0h-12.44v-1.24h12.44Zm-22.87,0H3267.2v-1.24h12.44Zm-22.87,0h-12.44v-1.24h12.44Zm-22.89,0h-12.43v-1.24h12.43Zm-22.87,0h-12.44v-1.24H3211Zm-22.87,0H3175.7v-1.24h12.44Zm-22.87,0h-12.44v-1.24h12.44Zm-22.88,0H3130v-1.24h12.43Zm-22.87,0h-12.44v-1.24h12.44Zm-22.95,0h-12.33v-1.24h12.53Zm-22.8,0h-12.44v-1.24h12.44Zm-22.88,0h-12.43v-1.24h12.43Zm-22.91,0h-12.39v-1.24h12.49Zm-22.83,0h-12.44v-1.24h12.44Zm-22.88,0h-12.44v-1.24h12.45Zm-22.88,0H2947v-1.24h12.43Z"/><rect class="cls-4" x="3450.69" y="227.42" width="5.82" height="0.24"/><rect class="cls-4" x="3450.19" y="226.92" width="6.82" height="1.24"/></g><rect class="cls-8" x="3456.87" y="311.81" width="20.51" height="6.22"/><g class="cls-9"><rect class="cls-4" x="2930.21" y="314.62" width="5.82" height="0.24"/><rect class="cls-4" x="2929.71" y="314.12" width="6.82" height="1.24"/><path class="cls-4" d="M3439.25,314.85h-11.43v-.24h11.43Zm-22.87,0H3405v-.24h11.43Zm-22.87,0h-11.45v-.24h11.45Zm-22.88,0h-11.44v-.24h11.44Zm-22.87,0h-11.44v-.24h11.44Zm-22.88,0h-11.43v-.24h11.43Zm-22.87,0h-11.44v-.24H3302Zm-22.87,0H3267.7v-.24h11.44Zm-22.87,0h-11.45v-.24h11.45Zm-22.89,0H3222v-.24h11.43Zm-22.87,0h-11.44v-.24h11.44Zm-22.87,0H3176.2v-.24h11.44Zm-22.87,0h-11.44v-.24h11.44Zm-22.88,0h-11.43v-.24h11.43Zm-22.87,0h-11.44v-.24H3119Zm-22.88,0h-11.4v-.24h11.44Zm-22.87,0h-11.44v-.24h11.44Zm-22.88,0H3039v-.24h11.43Zm-22.87,0h-11.43v-.24h11.45Zm-22.87,0h-11.44v-.24h11.44Zm-22.87,0h-11.44v-.24h11.44Zm-22.89,0h-11.43v-.24h11.43Z"/><path class="cls-4" d="M3439.75,315.35h-12.43v-1.24h12.43Zm-22.87,0h-12.43v-1.24h12.43Zm-22.87,0h-12.45v-1.24H3394Zm-22.88,0h-12.44v-1.24h12.44Zm-22.87,0h-12.44v-1.24h12.44Zm-22.88,0H3313v-1.24h12.43Zm-22.87,0h-12.44v-1.24h12.44Zm-22.87,0H3267.2v-1.24h12.44Zm-22.87,0h-12.44v-1.24h12.44Zm-22.89,0h-12.43v-1.24h12.43Zm-22.87,0h-12.44v-1.24H3211Zm-22.87,0H3175.7v-1.24h12.44Zm-22.87,0h-12.44v-1.24h12.44Zm-22.88,0H3130v-1.24h12.43Zm-22.87,0h-12.44v-1.24h12.44Zm-22.95,0h-12.33v-1.24h12.53Zm-22.8,0h-12.44v-1.24h12.44Zm-22.88,0h-12.43v-1.24h12.43Zm-22.91,0h-12.39v-1.24h12.49Zm-22.83,0h-12.44v-1.24h12.44Zm-22.88,0h-12.44v-1.24h12.45Zm-22.88,0H2947v-1.24h12.43Z"/><rect class="cls-4" x="3450.69" y="314.62" width="5.82" height="0.24"/><rect class="cls-4" x="3450.19" y="314.12" width="6.82" height="1.24"/><rect class="cls-4" x="2930.21" y="314.62" width="5.82" height="0.24"/><rect class="cls-4" x="2929.71" y="314.12" width="6.82" height="1.24"/><path class="cls-4" d="M3439.25,314.85h-11.43v-.24h11.43Zm-22.87,0H3405v-.24h11.43Zm-22.87,0h-11.45v-.24h11.45Zm-22.88,0h-11.44v-.24h11.44Zm-22.87,0h-11.44v-.24h11.44Zm-22.88,0h-11.43v-.24h11.43Zm-22.87,0h-11.44v-.24H3302Zm-22.87,0H3267.7v-.24h11.44Zm-22.87,0h-11.45v-.24h11.45Zm-22.89,0H3222v-.24h11.43Zm-22.87,0h-11.44v-.24h11.44Zm-22.87,0H3176.2v-.24h11.44Zm-22.87,0h-11.44v-.24h11.44Zm-22.88,0h-11.43v-.24h11.43Zm-22.87,0h-11.44v-.24H3119Zm-22.88,0h-11.4v-.24h11.44Zm-22.87,0h-11.44v-.24h11.44Zm-22.88,0H3039v-.24h11.43Zm-22.87,0h-11.43v-.24h11.45Zm-22.87,0h-11.44v-.24h11.44Zm-22.87,0h-11.44v-.24h11.44Zm-22.89,0h-11.43v-.24h11.43Z"/><path class="cls-4" d="M3439.75,315.35h-12.43v-1.24h12.43Zm-22.87,0h-12.43v-1.24h12.43Zm-22.87,0h-12.45v-1.24H3394Zm-22.88,0h-12.44v-1.24h12.44Zm-22.87,0h-12.44v-1.24h12.44Zm-22.88,0H3313v-1.24h12.43Zm-22.87,0h-12.44v-1.24h12.44Zm-22.87,0H3267.2v-1.24h12.44Zm-22.87,0h-12.44v-1.24h12.44Zm-22.89,0h-12.43v-1.24h12.43Zm-22.87,0h-12.44v-1.24H3211Zm-22.87,0H3175.7v-1.24h12.44Zm-22.87,0h-12.44v-1.24h12.44Zm-22.88,0H3130v-1.24h12.43Zm-22.87,0h-12.44v-1.24h12.44Zm-22.95,0h-12.33v-1.24h12.53Zm-22.8,0h-12.44v-1.24h12.44Zm-22.88,0h-12.43v-1.24h12.43Zm-22.91,0h-12.39v-1.24h12.49Zm-22.83,0h-12.44v-1.24h12.44Zm-22.88,0h-12.44v-1.24h12.45Zm-22.88,0H2947v-1.24h12.43Z"/><rect class="cls-4" x="3450.69" y="314.62" width="5.82" height="0.24"/><rect class="cls-4" x="3450.19" y="314.12" width="6.82" height="1.24"/></g><rect class="cls-8" x="3456.87" y="355.38" width="20.51" height="6.22"/><g class="cls-9"><rect class="cls-4" x="2930.21" y="358.18" width="5.82" height="0.24"/><rect class="cls-4" x="2929.71" y="357.68" width="6.82" height="1.24"/><path class="cls-4" d="M3439.25,358.42h-11.43v-.24h11.43Zm-22.87,0H3405v-.24h11.43Zm-22.87,0h-11.45v-.24h11.45Zm-22.88,0h-11.44v-.24h11.44Zm-22.87,0h-11.44v-.24h11.44Zm-22.88,0h-11.43v-.24h11.43Zm-22.87,0h-11.44v-.24H3302Zm-22.87,0H3267.7v-.24h11.44Zm-22.87,0h-11.45v-.24h11.45Zm-22.89,0H3222v-.24h11.43Zm-22.87,0h-11.44v-.24h11.44Zm-22.87,0H3176.2v-.24h11.44Zm-22.87,0h-11.44v-.24h11.44Zm-22.88,0h-11.43v-.24h11.43Zm-22.87,0h-11.44v-.24H3119Zm-22.88,0h-11.4v-.24h11.44Zm-22.87,0h-11.44v-.24h11.44Zm-22.88,0H3039v-.24h11.43Zm-22.87,0h-11.43v-.24h11.45Zm-22.87,0h-11.44v-.24h11.44Zm-22.87,0h-11.44v-.24h11.44Zm-22.89,0h-11.43v-.24h11.43Z"/><path class="cls-4" d="M3439.75,358.92h-12.43v-1.24h12.43Zm-22.87,0h-12.43v-1.24h12.43Zm-22.87,0h-12.45v-1.24H3394Zm-22.88,0h-12.44v-1.24h12.44Zm-22.87,0h-12.44v-1.24h12.44Zm-22.88,0H3313v-1.24h12.43Zm-22.87,0h-12.44v-1.24h12.44Zm-22.87,0H3267.2v-1.24h12.44Zm-22.87,0h-12.44v-1.24h12.44Zm-22.89,0h-12.43v-1.24h12.43Zm-22.87,0h-12.44v-1.24H3211Zm-22.87,0H3175.7v-1.24h12.44Zm-22.87,0h-12.44v-1.24h12.44Zm-22.88,0H3130v-1.24h12.43Zm-22.87,0h-12.44v-1.24h12.44Zm-22.95,0h-12.33v-1.24h12.53Zm-22.8,0h-12.44v-1.24h12.44Zm-22.88,0h-12.43v-1.24h12.43Zm-22.91,0h-12.39v-1.24h12.49Zm-22.83,0h-12.44v-1.24h12.44Zm-22.88,0h-12.44v-1.24h12.45Zm-22.88,0H2947v-1.24h12.43Z"/><rect class="cls-4" x="3450.69" y="358.18" width="5.82" height="0.24"/><rect class="cls-4" x="3450.19" y="357.68" width="6.82" height="1.24"/><rect class="cls-4" x="2930.21" y="358.18" width="5.82" height="0.24"/><rect class="cls-4" x="2929.71" y="357.68" width="6.82" height="1.24"/><path class="cls-4" d="M3439.25,358.42h-11.43v-.24h11.43Zm-22.87,0H3405v-.24h11.43Zm-22.87,0h-11.45v-.24h11.45Zm-22.88,0h-11.44v-.24h11.44Zm-22.87,0h-11.44v-.24h11.44Zm-22.88,0h-11.43v-.24h11.43Zm-22.87,0h-11.44v-.24H3302Zm-22.87,0H3267.7v-.24h11.44Zm-22.87,0h-11.45v-.24h11.45Zm-22.89,0H3222v-.24h11.43Zm-22.87,0h-11.44v-.24h11.44Zm-22.87,0H3176.2v-.24h11.44Zm-22.87,0h-11.44v-.24h11.44Zm-22.88,0h-11.43v-.24h11.43Zm-22.87,0h-11.44v-.24H3119Zm-22.88,0h-11.4v-.24h11.44Zm-22.87,0h-11.44v-.24h11.44Zm-22.88,0H3039v-.24h11.43Zm-22.87,0h-11.43v-.24h11.45Zm-22.87,0h-11.44v-.24h11.44Zm-22.87,0h-11.44v-.24h11.44Zm-22.89,0h-11.43v-.24h11.43Z"/><path class="cls-4" d="M3439.75,358.92h-12.43v-1.24h12.43Zm-22.87,0h-12.43v-1.24h12.43Zm-22.87,0h-12.45v-1.24H3394Zm-22.88,0h-12.44v-1.24h12.44Zm-22.87,0h-12.44v-1.24h12.44Zm-22.88,0H3313v-1.24h12.43Zm-22.87,0h-12.44v-1.24h12.44Zm-22.87,0H3267.2v-1.24h12.44Zm-22.87,0h-12.44v-1.24h12.44Zm-22.89,0h-12.43v-1.24h12.43Zm-22.87,0h-12.44v-1.24H3211Zm-22.87,0H3175.7v-1.24h12.44Zm-22.87,0h-12.44v-1.24h12.44Zm-22.88,0H3130v-1.24h12.43Zm-22.87,0h-12.44v-1.24h12.44Zm-22.95,0h-12.33v-1.24h12.53Zm-22.8,0h-12.44v-1.24h12.44Zm-22.88,0h-12.43v-1.24h12.43Zm-22.91,0h-12.39v-1.24h12.49Zm-22.83,0h-12.44v-1.24h12.44Zm-22.88,0h-12.44v-1.24h12.45Zm-22.88,0H2947v-1.24h12.43Z"/><rect class="cls-4" x="3450.69" y="358.18" width="5.82" height="0.24"/><rect class="cls-4" x="3450.19" y="357.68" width="6.82" height="1.24"/></g><rect class="cls-8" x="3456.87" y="398.94" width="20.51" height="6.22"/><g class="cls-9"><rect class="cls-4" x="2930.21" y="401.75" width="5.82" height="0.24"/><rect class="cls-4" x="2929.71" y="401.25" width="6.82" height="1.24"/><path class="cls-4" d="M3439.25,402h-11.43v-.25h11.43Zm-22.87,0H3405v-.25h11.43Zm-22.87,0h-11.45v-.25h11.45Zm-22.88,0h-11.44v-.25h11.44Zm-22.87,0h-11.44v-.25h11.44Zm-22.88,0h-11.43v-.25h11.43ZM3302,402h-11.44v-.25H3302Zm-22.87,0H3267.7v-.25h11.44Zm-22.87,0h-11.45v-.25h11.45Zm-22.89,0H3222v-.25h11.43Zm-22.87,0h-11.44v-.25h11.44Zm-22.87,0H3176.2v-.25h11.44Zm-22.87,0h-11.44v-.25h11.44Zm-22.88,0h-11.43v-.25h11.43ZM3119,402h-11.44v-.25H3119Zm-22.88,0h-11.4v-.25h11.44Zm-22.87,0h-11.44v-.25h11.44Zm-22.88,0H3039v-.25h11.43Zm-22.87,0h-11.43v-.25h11.45Zm-22.87,0h-11.44v-.25h11.44Zm-22.87,0h-11.44v-.25h11.44Zm-22.89,0h-11.43v-.25h11.43Z"/><path class="cls-4" d="M3439.75,402.5h-12.43v-1.25h12.43Zm-22.87,0h-12.43v-1.25h12.43Zm-22.87,0h-12.45v-1.25H3394Zm-22.88,0h-12.44v-1.25h12.44Zm-22.87,0h-12.44v-1.25h12.44Zm-22.88,0H3313v-1.25h12.43Zm-22.87,0h-12.44v-1.25h12.44Zm-22.87,0H3267.2v-1.25h12.44Zm-22.87,0h-12.44v-1.25h12.44Zm-22.89,0h-12.43v-1.25h12.43Zm-22.87,0h-12.44v-1.25H3211Zm-22.87,0H3175.7v-1.25h12.44Zm-22.87,0h-12.44v-1.25h12.44Zm-22.88,0H3130v-1.25h12.43Zm-22.87,0h-12.44v-1.25h12.44Zm-22.95,0h-12.33v-1.25h12.53Zm-22.8,0h-12.44v-1.25h12.44Zm-22.88,0h-12.43v-1.25h12.43Zm-22.91,0h-12.39v-1.25h12.49Zm-22.83,0h-12.44v-1.25h12.44Zm-22.88,0h-12.44v-1.25h12.45Zm-22.88,0H2947v-1.25h12.43Z"/><rect class="cls-4" x="3450.69" y="401.75" width="5.82" height="0.24"/><rect class="cls-4" x="3450.19" y="401.25" width="6.82" height="1.24"/><rect class="cls-4" x="2930.21" y="401.75" width="5.82" height="0.24"/><rect class="cls-4" x="2929.71" y="401.25" width="6.82" height="1.24"/><path class="cls-4" d="M3439.25,402h-11.43v-.25h11.43Zm-22.87,0H3405v-.25h11.43Zm-22.87,0h-11.45v-.25h11.45Zm-22.88,0h-11.44v-.25h11.44Zm-22.87,0h-11.44v-.25h11.44Zm-22.88,0h-11.43v-.25h11.43ZM3302,402h-11.44v-.25H3302Zm-22.87,0H3267.7v-.25h11.44Zm-22.87,0h-11.45v-.25h11.45Zm-22.89,0H3222v-.25h11.43Zm-22.87,0h-11.44v-.25h11.44Zm-22.87,0H3176.2v-.25h11.44Zm-22.87,0h-11.44v-.25h11.44Zm-22.88,0h-11.43v-.25h11.43ZM3119,402h-11.44v-.25H3119Zm-22.88,0h-11.4v-.25h11.44Zm-22.87,0h-11.44v-.25h11.44Zm-22.88,0H3039v-.25h11.43Zm-22.87,0h-11.43v-.25h11.45Zm-22.87,0h-11.44v-.25h11.44Zm-22.87,0h-11.44v-.25h11.44Zm-22.89,0h-11.43v-.25h11.43Z"/><path class="cls-4" d="M3439.75,402.5h-12.43v-1.25h12.43Zm-22.87,0h-12.43v-1.25h12.43Zm-22.87,0h-12.45v-1.25H3394Zm-22.88,0h-12.44v-1.25h12.44Zm-22.87,0h-12.44v-1.25h12.44Zm-22.88,0H3313v-1.25h12.43Zm-22.87,0h-12.44v-1.25h12.44Zm-22.87,0H3267.2v-1.25h12.44Zm-22.87,0h-12.44v-1.25h12.44Zm-22.89,0h-12.43v-1.25h12.43Zm-22.87,0h-12.44v-1.25H3211Zm-22.87,0H3175.7v-1.25h12.44Zm-22.87,0h-12.44v-1.25h12.44Zm-22.88,0H3130v-1.25h12.43Zm-22.87,0h-12.44v-1.25h12.44Zm-22.95,0h-12.33v-1.25h12.53Zm-22.8,0h-12.44v-1.25h12.44Zm-22.88,0h-12.43v-1.25h12.43Zm-22.91,0h-12.39v-1.25h12.49Zm-22.83,0h-12.44v-1.25h12.44Zm-22.88,0h-12.44v-1.25h12.45Zm-22.88,0H2947v-1.25h12.43Z"/><rect class="cls-4" x="3450.69" y="401.75" width="5.82" height="0.24"/><rect class="cls-4" x="3450.19" y="401.25" width="6.82" height="1.24"/></g><line class="cls-4" x1="2997.06" y1="227.72" x2="2997.06" y2="402.42"/><rect class="cls-4" x="2997.01" y="227.72" width="0.1" height="174.7"/><line class="cls-4" x1="3067.83" y1="227.72" x2="3067.83" y2="402.42"/><rect class="cls-4" x="3067.78" y="227.72" width="0.1" height="174.7"/><line class="cls-4" x1="3138.61" y1="227.72" x2="3138.61" y2="402.42"/><rect class="cls-4" x="3138.56" y="227.72" width="0.1" height="174.7"/><line class="cls-4" x1="3209.39" y1="227.72" x2="3209.39" y2="402.42"/><rect class="cls-4" x="3209.34" y="227.72" width="0.1" height="174.7"/><line class="cls-4" x1="3280.17" y1="227.72" x2="3280.17" y2="402.42"/><rect class="cls-4" x="3280.12" y="227.72" width="0.1" height="174.7"/><line class="cls-4" x1="3350.94" y1="227.72" x2="3350.94" y2="402.42"/><rect class="cls-4" x="3350.89" y="227.72" width="0.1" height="174.7"/><line class="cls-4" x1="3421.72" y1="227.72" x2="3421.72" y2="402.42"/><rect class="cls-4" x="3421.67" y="227.72" width="0.1" height="174.7"/><path class="cls-10" d="M3437,215.93l-8.1,8.43a2.42,2.42,0,0,0-.4.6l-5,10.34a2.3,2.3,0,0,1-2.24,1.29l-1.61-.13a2.27,2.27,0,0,1-2-1.64l-1.55-5.38a2.3,2.3,0,0,0-4.39-.1l-2.6,7.64a2.31,2.31,0,0,1-2.18,1.56h-10a2.32,2.32,0,0,1-2.27-1.94l-2.81-17.6a2.31,2.31,0,0,0-2.63-1.92,2.34,2.34,0,0,0-1.7,1.24l-14.41,28.46a2.31,2.31,0,0,1-3.09,1,1.75,1.75,0,0,1-.29-.18l-8.57-6.05a2.31,2.31,0,0,0-3.07.37l-3.25,3.75a2.6,2.6,0,0,0-.25.36l-8.67,15a2.29,2.29,0,0,1-2.22,1.14l-5.28-.53a2.38,2.38,0,0,0-1.09.16l-4.73,1.89a2.3,2.3,0,0,1-2.91-1.21l-1-2.38a2.31,2.31,0,0,0-2.21-1.38L3321,259a2.25,2.25,0,0,0-1.71.9l-1.54,2a2.29,2.29,0,0,1-3.22.42,2.34,2.34,0,0,1-.77-1.06l-1.94-5.48a2.3,2.3,0,0,0-2.93-1.41,2.46,2.46,0,0,0-.62.33l-9.21,6.9-10.18,8.22a2.3,2.3,0,0,1-2.5.25l-7.9-4.1a2.37,2.37,0,0,0-1.38-.24l-16,2.24a2.33,2.33,0,0,0-1.94,1.77l-2.84,12.34a2.29,2.29,0,0,1-2.75,1.73,2.41,2.41,0,0,1-1-.5h0a2.32,2.32,0,0,0-3.56.72l-2.18,4.37a2.29,2.29,0,0,1-1.68,1.24l-4.95.83a2.23,2.23,0,0,0-.89.36l-7.81,5.19a2.21,2.21,0,0,1-1.27.39h-3.65a2.31,2.31,0,0,1-2.12-1.39l-1-2.31a2.29,2.29,0,0,0-3-1.18l-.06,0-8.47,4a2.29,2.29,0,0,1-2.17-.11l-3.87-2.33a2.27,2.27,0,0,0-1.19-.33h-8.56a2.31,2.31,0,0,0-1.27.38l-8.54,5.68a2.31,2.31,0,0,1-2.25.16l-3.88-1.83a2.28,2.28,0,0,0-2.7.57l-1.84,2.1a2.29,2.29,0,0,1-3.23.24,2.31,2.31,0,0,1-.51-.62l-.55-1a2.3,2.3,0,0,0-3.13-.89l-.05,0-6.72,4a2.29,2.29,0,0,1-2.29,0l-2.77-1.54a2.29,2.29,0,0,0-2.07-.09l-2.63,1.2a2.31,2.31,0,0,1-3.06-1.16,1.36,1.36,0,0,1-.09-.23l-1.71-5.08a2.27,2.27,0,0,0-2.19-1.6h-2.48a2.31,2.31,0,0,1-1.12-.29l-9.53-5.23a2.3,2.3,0,0,0-2.48.18l-7,5.24a2.22,2.22,0,0,1-1.38.45H3112a2.29,2.29,0,0,0-1.27.39l-1.65,1.1a2.31,2.31,0,0,1-3.19-.63l-.15-.25-.39-.79a2.31,2.31,0,0,0-2.06-1.28h-4.41a2.28,2.28,0,0,0-1.81.89l-2.74,3.5a2.29,2.29,0,0,1-3.22.4,2.25,2.25,0,0,1-.53-.58l-.78-1.21a2.28,2.28,0,0,0-3.12-.74l-2.27,1.36a2.3,2.3,0,0,1-2.53-.11l-9.14-6.62a2.65,2.65,0,0,0-.52-.29l-7.15-2.75a2.31,2.31,0,0,0-2.91,1.28l-5,12.12a2.39,2.39,0,0,0-.15.54l-1.61,10.91a2.27,2.27,0,0,1-.6,1.23l-3.4,3.66a2.31,2.31,0,0,1-2.8.44l-5.91-3.28a2.29,2.29,0,0,0-3.12.88,1.84,1.84,0,0,0-.17.38l-3.75,10.95a2.34,2.34,0,0,0-.12.74v6.91a2.29,2.29,0,0,1-1.39,2.1l-6,2.66a2.28,2.28,0,0,1-2.08-.14l-4.52-2.66a2.37,2.37,0,0,0-1.5-.29l-7.92,1.14a2.29,2.29,0,0,1-2.3-1.13l-1.34-2.29a2.25,2.25,0,0,0-1.3-1l-3.6-1.13a2.28,2.28,0,0,0-2.39.65l-5,5.55a2.31,2.31,0,0,1-1.52.75l-7.37.62a2.12,2.12,0,0,0-1,.3l-12.84,7.38a2.3,2.3,0,0,1-2.58-.2l-3.65-2.91a2.32,2.32,0,0,0-1.43-.5H2952a2.27,2.27,0,0,1-1.79-.87l-3.48-4.34a2.29,2.29,0,0,0-3.23-.35,2.16,2.16,0,0,0-.27.25l-4.19,4.66a2.27,2.27,0,0,0-.59,1.53v57.82a2.3,2.3,0,0,0,2.29,2.3h498.09a2.3,2.3,0,0,0,2.3-2.3h0L3441,217.57a2.3,2.3,0,0,0-2.27-2.34A2.28,2.28,0,0,0,3437,215.93Z"/><path class="cls-10" d="M3436.58,290.81l-7.5,5a3,3,0,0,0-.69.65l-4.66,6.16a2.9,2.9,0,0,1-2.41,1.12l-1.52-.08a2.83,2.83,0,0,1-2.45-1.66l-1-2.07a2.83,2.83,0,0,0-3.74-1.43,2.78,2.78,0,0,0-1.35,1.27l-1.94,3.71a2.82,2.82,0,0,1-2.51,1.5h-9.62a2.8,2.8,0,0,1-2.75-2.15l-2.31-9.24a2.85,2.85,0,0,0-5-1.08L3373.31,310a2.82,2.82,0,0,1-3.39.83l-8.91-4a2.85,2.85,0,0,0-2.91.3l-3.19,2.36a2.56,2.56,0,0,0-.42.39l-8.41,9.32a2.89,2.89,0,0,1-2.29,1l-5.5-.35a3,3,0,0,0-.89.07l-5,1.27a2.81,2.81,0,0,1-3.05-1.14l-.56-.83a2.87,2.87,0,0,0-2.43-1.24l-5.52.17a2.71,2.71,0,0,0-1.74.66l-1.36,1.13a2.83,2.83,0,0,1-4-.35,2.77,2.77,0,0,1-.31-.45l-1.44-2.6a2.83,2.83,0,0,0-3.71-1.19l-9.3,4.47-10.28,5.31a2.85,2.85,0,0,1-2.2.17l-8.19-2.72a3,3,0,0,0-1.14-.14l-15.86,1.35a2.93,2.93,0,0,0-2.43,1.87l-2.3,6.42a2.83,2.83,0,0,1-3.63,1.71,2.87,2.87,0,0,1-.4-.18l-.1,0a2.8,2.8,0,0,0-3.59.73l-1.81,2.31a2.91,2.91,0,0,1-1.94,1.08l-5,.53a3.2,3.2,0,0,0-.81.2l-7.87,3.37a3,3,0,0,1-1.11.22h-3.78a2.84,2.84,0,0,1-2.35-1.24l-.54-.8a2.83,2.83,0,0,0-3.16-1.11l-8.82,2.67a2.9,2.9,0,0,1-1.84-.07l-4.09-1.57a2.71,2.71,0,0,0-1-.2h-8.78a2.67,2.67,0,0,0-1.11.24l-8.73,3.7a2.85,2.85,0,0,1-1.93.11l-4.32-1.29a2.84,2.84,0,0,0-2.49.42l-1.89,1.39a2.83,2.83,0,0,1-3.81-.42l-.28-.32a2.84,2.84,0,0,0-3.14-.78l-7,2.68a2.81,2.81,0,0,1-1.94,0l-3.09-1.1a2.87,2.87,0,0,0-1.74-.05l-2.91.84a2.83,2.83,0,0,1-3.32-1.45l-1.09-2.18a2.85,2.85,0,0,0-2.54-1.57h-2.52a2.9,2.9,0,0,1-1-.16l-9.78-3.43a2.8,2.8,0,0,0-2.18.12l-7.14,3.43a3,3,0,0,1-1.23.28h-9a3,3,0,0,0-1.11.22l-1.85.8a2.84,2.84,0,0,1-3.35-.87h0a2.85,2.85,0,0,0-2.24-1.09h-4.56a2.83,2.83,0,0,0-1.8.64L3094.3,342a2.83,2.83,0,0,1-3.81-.19l-.6-.61a2.83,2.83,0,0,0-3-.64l-2.64,1a2.94,2.94,0,0,1-2.22-.07l-9.28-4.31a1.91,1.91,0,0,0-.51-.17l-7.29-1.8a2.83,2.83,0,0,0-3.06,1.22l-4.58,7.14a2.9,2.9,0,0,0-.37.89l-1.39,6.06a3,3,0,0,1-1.16,1.71l-3,2.07a2.79,2.79,0,0,1-2.55.33l-6.22-2.21a2.84,2.84,0,0,0-3.48,1.4L3035.8,360a2.82,2.82,0,0,0-.33,1.33v2.77a2.86,2.86,0,0,1-2.08,2.73l-5.45,1.51a2.79,2.79,0,0,1-1.76-.07l-4.75-1.8a2.84,2.84,0,0,0-1.26-.17L3012,367a2.8,2.8,0,0,1-2.36-.91l-1-1.07a2.73,2.73,0,0,0-1.54-.88l-3.73-.75a2.89,2.89,0,0,0-2.21.47l-4.92,3.5a3,3,0,0,1-1.49.53l-7.54.39a3,3,0,0,0-.83.18l-13.08,4.85a2.77,2.77,0,0,1-2.27-.14l-3.78-1.94a2.88,2.88,0,0,0-1.29-.31h-14.06a2.8,2.8,0,0,1-1.78-.63l-3.4-2.72a2.84,2.84,0,0,0-3.43-.1l-3.64,2.6a2.84,2.84,0,0,0-1.19,2.32v27.25a2.84,2.84,0,0,0,2.84,2.84h497a2.84,2.84,0,0,0,2.84-2.84L3441,293.21a2.84,2.84,0,0,0-2.8-2.88A2.89,2.89,0,0,0,3436.58,290.81Z"/><circle class="cls-4" cx="3438.59" cy="290.09" r="6.79"/><path class="cls-11" d="M3438.15,357.23l-9.22,3.07a3.33,3.33,0,0,0-.5.25l-5.06,3.34a2.18,2.18,0,0,1-1.24.35l-3.15-.08a2.14,2.14,0,0,1-1.56-.7l-1.93-2.14a2.18,2.18,0,0,0-3.06-.15l0,0-3.27,3.06a2.11,2.11,0,0,1-1.47.59h-11.32a2.13,2.13,0,0,1-1.94-1.2l-2.59-5.17a2.15,2.15,0,0,0-2.9-1,1,1,0,0,0-.18.1l-16,10.15a2.17,2.17,0,0,1-1.63.28l-11-2.47a2,2,0,0,0-1.22.08l-4,1.48a1,1,0,0,0-.3.14l-8.85,4.9a2.21,2.21,0,0,1-1.12.27l-6.55-.21h-.34l-6.3.8a2.22,2.22,0,0,1-1.56-.39l-1.28-1a2.09,2.09,0,0,0-1.3-.42l-6.92.1a2,2,0,0,0-.8.16l-3.1,1.31a2.16,2.16,0,0,1-2.29-.4l-2.54-2.25a2.18,2.18,0,0,0-1.94-.49l-10.61,2.56-10.91,2.82a2.22,2.22,0,0,1-.89,0l-9.21-1.53a3.23,3.23,0,0,0-.44,0l-17,.77a2.14,2.14,0,0,0-1.66.9l-2.57,3.54a2.15,2.15,0,0,1-2.32.82l-2.75-.76a2.2,2.2,0,0,0-1.73.28l-2.75,1.75a2.13,2.13,0,0,1-1,.33l-5.82.32h-.33l-8.4,1.79a2.3,2.3,0,0,1-.45.05h-4.93a2.08,2.08,0,0,1-1.27-.42l-1.28-1a2.1,2.1,0,0,0-1.59-.4l-10.48,1.57a2.24,2.24,0,0,1-.73,0l-4.92-1a1.41,1.41,0,0,0-.41,0h-9.45a1.69,1.69,0,0,0-.45,0l-9.59,2a2,2,0,0,1-.77,0l-5.71-.86a2.17,2.17,0,0,0-1.07.12l-3.66,1.34a2.15,2.15,0,0,1-1.82-.16l-1.73-1a2.1,2.1,0,0,0-1.47-.25l-8.72,1.66a2.1,2.1,0,0,1-.79,0l-4.2-.75a2.66,2.66,0,0,0-.69,0l-4.63.67a2.14,2.14,0,0,1-1.83-.6l-1.53-1.47a2.25,2.25,0,0,0-1.54-.63h-3.67a2.29,2.29,0,0,1-.37,0l-10.72-1.88a2.17,2.17,0,0,0-.88,0l-8.11,1.94a2.14,2.14,0,0,1-.5.06H3111l-3.31.71a2.23,2.23,0,0,1-1.66-.2l-.91-.59A2.18,2.18,0,0,0,3104,382h-5.91a2.26,2.26,0,0,0-.81.17l-4.13,1.69a2.15,2.15,0,0,1-1.79-.07l-2.19-1.11a2.16,2.16,0,0,0-1.37-.19l-4.33.83a1.91,1.91,0,0,1-.89,0l-10-2.32h-.23l-8.52-1.06a2.16,2.16,0,0,0-1.59.44l-4.85,3.77a2.11,2.11,0,0,0-.63.79l-1.08,2.42a2.21,2.21,0,0,1-1.26,1.14l-3.73,1.27a2,2,0,0,1-1.07.09l-8.28-1.48a2.19,2.19,0,0,0-1.86.56l-3.28,3.07a2.15,2.15,0,0,0-.68,1.58h0a2.15,2.15,0,0,1-1.86,2.13l-6.22.87a2.73,2.73,0,0,1-.7,0l-5.62-1.07a2.09,2.09,0,0,0-.5,0l-9.4.43a2.25,2.25,0,0,1-1.13-.27l-1.65-.9a2.13,2.13,0,0,0-.82-.26l-4.94-.49a2.13,2.13,0,0,0-1,.11l-5.82,2.07a2.15,2.15,0,0,1-.67.12l-8.27.23a1.93,1.93,0,0,0-.34,0l-14,2.59a2.37,2.37,0,0,1-.92,0l-4.77-1.23a2.42,2.42,0,0,0-.54-.06h-15a2,2,0,0,1-.8-.16l-4.71-1.88a2.15,2.15,0,0,0-1.54,0l-4.38,1.56a2.15,2.15,0,0,0-1.43,2v1a2.15,2.15,0,0,0,2.14,2.16H3439a2.15,2.15,0,0,0,2.15-2.15h0l-.13-41a2.16,2.16,0,0,0-2.07-2.24A2.12,2.12,0,0,0,3438.15,357.23Z"/><circle class="cls-4" cx="3065.31" cy="335.66" r="6.79"/><circle class="cls-4" cx="3391.08" cy="293" r="6.79"/><circle class="cls-4" cx="3222.38" cy="338.57" r="6.79"/><circle class="cls-4" cx="3310.61" cy="314.33" r="6.79"/><path class="cls-4" d="M2973.3,374a3.26,3.26,0,0,1-1.52-.38l-3.78-1.93a2.28,2.28,0,0,0-1.06-.26h-14.06a3.31,3.31,0,0,1-2.09-.74l-3.41-2.72a2.34,2.34,0,0,0-2.82-.08l-3.64,2.6a2.33,2.33,0,0,0-1,1.91h-1a3.36,3.36,0,0,1,1.4-2.72l3.64-2.6a3.36,3.36,0,0,1,4,.12l3.4,2.72a2.34,2.34,0,0,0,1.47.52h14.06a3.34,3.34,0,0,1,1.52.37l3.78,1.94a2.28,2.28,0,0,0,1.86.11l13.09-4.85a3.29,3.29,0,0,1,1-.2l7.54-.4a2.38,2.38,0,0,0,1.23-.44l4.92-3.49a3.4,3.4,0,0,1,2.59-.56l3.74.75a3.31,3.31,0,0,1,1.81,1l1,1.08a2.32,2.32,0,0,0,1.94.75l8.19-.75a3.28,3.28,0,0,1,1.49.21l4.75,1.79a2.29,2.29,0,0,0,1.44.06l5.45-1.51a2.36,2.36,0,0,0,1.72-2.26v-2.76a3.28,3.28,0,0,1,.39-1.56l3.28-6.14a3.33,3.33,0,0,1,4.08-1.63l6.23,2.21a2.31,2.31,0,0,0,2.1-.27l3-2.07a2.39,2.39,0,0,0,1-1.41l1.39-6.06a3.6,3.6,0,0,1,.44-1.05l4.58-7.14a3.32,3.32,0,0,1,3.61-1.43l7.27,1.79a2.45,2.45,0,0,1,.61.21l9.28,4.3a2.33,2.33,0,0,0,1.83.06l2.63-1a3.33,3.33,0,0,1,3.57.76l.6.6a2.32,2.32,0,0,0,3.14.17l2.65-2.18a3.41,3.41,0,0,1,2.12-.75h4.56a3.34,3.34,0,0,1,2.63,1.29,2.37,2.37,0,0,0,2.77.71l1.84-.8a3.48,3.48,0,0,1,1.31-.26h9a2.37,2.37,0,0,0,1-.23L3130,336a3.32,3.32,0,0,1,2.55-.13l9.78,3.43a2.44,2.44,0,0,0,.8.13h2.53a3.34,3.34,0,0,1,3,1.84l1.08,2.19a2.34,2.34,0,0,0,2.74,1.19l2.91-.84a3.42,3.42,0,0,1,2,.06l3.09,1.1a2.32,2.32,0,0,0,1.6,0l7-2.68a3.35,3.35,0,0,1,3.69.92l.28.32a2.33,2.33,0,0,0,3.14.35l1.89-1.39a3.37,3.37,0,0,1,2.93-.5l4.32,1.29a2.32,2.32,0,0,0,1.6-.09l8.73-3.7a3.15,3.15,0,0,1,1.29-.28h8.79a3.41,3.41,0,0,1,1.15.23l4.09,1.57a2.33,2.33,0,0,0,1.52.06l8.81-2.67a3.35,3.35,0,0,1,3.72,1.31l.54.8a2.35,2.35,0,0,0,1.94,1h3.78a2.26,2.26,0,0,0,.92-.19l7.86-3.36a4,4,0,0,1,1-.24l5-.53a2.38,2.38,0,0,0,1.6-.89l1.8-2.31a3.31,3.31,0,0,1,4.24-.86l.08,0a2.07,2.07,0,0,0,.34.15,2.32,2.32,0,0,0,3-1.41l2.3-6.42a3.39,3.39,0,0,1,2.84-2.19l15.87-1.36a3.26,3.26,0,0,1,1.35.16l8.19,2.71a2.37,2.37,0,0,0,1.81-.13l10.28-5.32,9.31-4.47a3.34,3.34,0,0,1,4.37,1.4l1.44,2.6a2.4,2.4,0,0,0,.25.37,2.34,2.34,0,0,0,3.3.29l1.36-1.13a3.2,3.2,0,0,1,2.05-.78l5.52-.16a3.31,3.31,0,0,1,2.85,1.44l.56.84a2.34,2.34,0,0,0,2.52.94l4.95-1.27a3.73,3.73,0,0,1,1.05-.09l5.5.35a2.37,2.37,0,0,0,1.88-.8l8.42-9.33a3,3,0,0,1,.49-.45l3.19-2.36a3.35,3.35,0,0,1,3.42-.35l8.9,4a2.32,2.32,0,0,0,2.8-.68l13.86-17.53a3.36,3.36,0,0,1,4.34-.79,3.28,3.28,0,0,1,1.52,2.06l2.31,9.24a2.3,2.3,0,0,0,2.26,1.77h9.64a2.34,2.34,0,0,0,2.06-1.23l1.93-3.71a3.45,3.45,0,0,1,1.59-1.5,3.33,3.33,0,0,1,4.4,1.69l1,2a2.36,2.36,0,0,0,2,1.39l1.53.07a2.41,2.41,0,0,0,2-.93l4.66-6.15a3.44,3.44,0,0,1,.81-.76l7.51-5a3.4,3.4,0,0,1,1.83-.56h0a3.33,3.33,0,0,1,3.34,3.33h-1a2.34,2.34,0,0,0-2.34-2.34h0a2.43,2.43,0,0,0-1.28.39l-7.5,5a2.21,2.21,0,0,0-.57.53l-4.67,6.16a3.42,3.42,0,0,1-2.82,1.32l-1.53-.08a3.33,3.33,0,0,1-2.88-2l-1-2.06a2.33,2.33,0,0,0-4.19-.14l-1.94,3.71a3.31,3.31,0,0,1-2.94,1.77h-9.65a3.31,3.31,0,0,1-3.22-2.53l-2.31-9.24a2.33,2.33,0,0,0-2.84-1.7,2.35,2.35,0,0,0-1.26.81l-13.87,17.53a3.3,3.3,0,0,1-4,1l-8.91-4a2.36,2.36,0,0,0-2.4.24l-3.2,2.36a2,2,0,0,0-.33.32l-8.42,9.32a3.25,3.25,0,0,1-2.69,1.13l-5.5-.34a2.38,2.38,0,0,0-.75.06l-4.94,1.27a3.35,3.35,0,0,1-3.59-1.35l-.57-.83a2.3,2.3,0,0,0-2-1l-5.53.16a2.21,2.21,0,0,0-1.42.54l-1.37,1.14a3.34,3.34,0,0,1-4.7-.41,3.23,3.23,0,0,1-.37-.54l-1.43-2.6a2.34,2.34,0,0,0-3.06-1l-9.3,4.47-10.28,5.3a3.33,3.33,0,0,1-2.57.2l-8.2-2.71a2.3,2.3,0,0,0-.94-.12l-15.86,1.36a2.38,2.38,0,0,0-2,1.55l-2.3,6.41a3.34,3.34,0,0,1-4.27,2,2.18,2.18,0,0,1-.47-.21l-.08,0a2.32,2.32,0,0,0-3,.6l-1.8,2.31a3.39,3.39,0,0,1-2.28,1.26l-5,.54a2.2,2.2,0,0,0-.67.17l-7.86,3.36a3.48,3.48,0,0,1-1.31.26h-3.78a3.34,3.34,0,0,1-2.76-1.46l-.55-.79a2.32,2.32,0,0,0-2.6-.92l-8.81,2.66a3.3,3.3,0,0,1-2.17-.08l-4.09-1.57a2.48,2.48,0,0,0-.8-.16H3197a2.28,2.28,0,0,0-.91.19l-8.73,3.71a3.31,3.31,0,0,1-2.28.12l-4.31-1.28a2.36,2.36,0,0,0-2.06.35l-1.89,1.38a3.32,3.32,0,0,1-4.48-.49l-.28-.32a2.36,2.36,0,0,0-2.59-.65l-7,2.69a3.34,3.34,0,0,1-2.29,0l-3.08-1.1a2.36,2.36,0,0,0-1.44,0l-2.91.84a3.34,3.34,0,0,1-3.91-1.71l-1.09-2.18a2.32,2.32,0,0,0-2.09-1.29h-2.52a3.39,3.39,0,0,1-1.13-.19l-9.79-3.43a2.32,2.32,0,0,0-1.79.1l-7.15,3.43a3.57,3.57,0,0,1-1.44.33h-9a2.48,2.48,0,0,0-.93.18l-1.83.8a3.37,3.37,0,0,1-4-1,2.34,2.34,0,0,0-1.84-.9h-4.56a2.33,2.33,0,0,0-1.48.53l-2.65,2.17a3.31,3.31,0,0,1-4.49-.23l-.59-.6A2.36,2.36,0,0,0,3088,341l-2.63,1a3.38,3.38,0,0,1-2.61-.09l-9.28-4.31a1.62,1.62,0,0,0-.41-.13l-7.29-1.8a2.33,2.33,0,0,0-2.53,1l-4.58,7.14a2.53,2.53,0,0,0-.31.74l-1.38,6.05a3.42,3.42,0,0,1-1.37,2l-3,2.08a3.33,3.33,0,0,1-3,.38l-6.22-2.21a2.36,2.36,0,0,0-2.87,1.15l-3.28,6.14a2.35,2.35,0,0,0-.27,1.1v2.77a3.36,3.36,0,0,1-2.45,3.21l-5.45,1.52a3.27,3.27,0,0,1-2.07-.1l-4.75-1.79a2.15,2.15,0,0,0-1-.14l-8.2.74a3.32,3.32,0,0,1-2.77-1.07l-1-1.08a2.26,2.26,0,0,0-1.26-.71l-3.74-.76a2.42,2.42,0,0,0-1.83.39l-4.91,3.5a3.46,3.46,0,0,1-1.75.62l-7.54.39a2.85,2.85,0,0,0-.69.15l-13.07,4.85A3.35,3.35,0,0,1,2973.3,374Z"/><g class="cls-12"><rect class="cls-4" x="2910.18" y="442.26" width="567.19" height="0.1"/><polygon class="cls-4" points="3477.37 442.86 2909.68 442.86 2909.68 441.86 2910.18 441.76 3477.87 441.76 3477.87 442.76 3477.37 442.86"/></g><circle class="cls-8" cx="2997.44" cy="442.31" r="4.85"/><circle class="cls-8" cx="3068.22" cy="442.31" r="4.85"/><circle class="cls-8" cx="3139" cy="442.31" r="4.85"/><circle class="cls-8" cx="3209.78" cy="442.31" r="4.85"/><circle class="cls-8" cx="3280.55" cy="442.31" r="4.85"/><circle class="cls-8" cx="3351.33" cy="442.31" r="4.85"/><circle class="cls-8" cx="3422.11" cy="442.31" r="4.85"/><path class="cls-13" d="M2868.45,630.21c-2.78-5.1-1.23-11.79,4.35-18.84.4-.51.82-1,1.23-1.53,3.28-4.06,6.67-8.26,6.59-13-.12-7.08-7.73-11.8-14.44-16l-1.42-.89a83.76,83.76,0,0,1-15.46-12.44,24.22,24.22,0,0,1-5-6.7c-1.68-3.75-1.72-7.64-1.61-12,.33-12.44,1-25,1.86-37.41l4,.29c-.9,12.33-1.52,24.85-1.85,37.22-.1,3.85-.08,7.26,1.22,10.16a20.16,20.16,0,0,0,4.18,5.56,79.74,79.74,0,0,0,14.78,11.91l1.41.88c7.21,4.47,16.17,10,16.33,19.29.1,6.18-3.93,11.17-7.48,15.57-.4.5-.81,1-1.2,1.5-2.62,3.31-6.62,9.59-4,14.45Z"/><path class="cls-7" d="M2832.48,511a13.59,13.59,0,0,1,6.79-11.15l3.05,6-.1-7.29a13.87,13.87,0,0,1,4.49-.54,13.57,13.57,0,1,1-14.24,13Z"/><path class="cls-7" d="M2856.75,603.05a13.58,13.58,0,1,0-.66-10.95l8.51,6.91-9.36-2.16A13.52,13.52,0,0,0,2856.75,603.05Z"/><path class="cls-7" d="M2863.47,576.63a13.57,13.57,0,0,0,4.32-26.69l.07,5.6-3.08-6.1h0a13.58,13.58,0,0,0-14.22,12.9v.06a13.25,13.25,0,0,0,.58,4.64A13.56,13.56,0,0,0,2863.47,576.63Z"/><path class="cls-7" d="M2830.44,554.65a13.57,13.57,0,1,0-6-25.47l2.4,6.59-4.94-4.75a13.61,13.61,0,0,0,8.56,23.63Z"/><path class="cls-5" d="M2834.32,514.58c3.14.34,6.19,1.32,9.34,1.51s6.62-.56,8.61-3c1.07-1.32,1.61-3,2.51-4.43a9.59,9.59,0,0,1,3.44-3.23,13.57,13.57,0,1,1-24.49,11.71,13.13,13.13,0,0,1-.95-2.68C2833.29,514.48,2833.81,514.52,2834.32,514.58Z"/><path class="cls-5" d="M2830.44,554.65a13.57,13.57,0,0,0,12.94-19.39,10,10,0,0,0-2.73,2.73c-1,1.47-1.56,3.16-2.7,4.5-2.12,2.5-5.74,3.31-9,3.16s-6.46-1.08-9.7-1.38c-.46,0-.91-.07-1.38-.08A13.62,13.62,0,0,0,2830.44,554.65Z"/><path class="cls-5" d="M2863.47,576.63a13.58,13.58,0,0,0,13.05-19.2,11.28,11.28,0,0,0-2.91,2.77c-1.05,1.49-1.71,3.21-2.91,4.58-2.29,2.56-6.15,3.46-9.62,3.38s-6.63-.89-10-1.16A13.57,13.57,0,0,0,2863.47,576.63Z"/><path class="cls-5" d="M2856.75,603.05a13.59,13.59,0,1,0,24.81-11.1,13.25,13.25,0,0,0-3,2.66c-1.3,1.58-2.16,3.37-3.65,4.84-2.78,2.74-7.27,3.88-11.27,4A59,59,0,0,1,2856.75,603.05Z"/><path class="cls-14" d="M2890.74,623.11s-10.75-.33-14-2.64-16.48-5.05-17.31-1.35-16.15,18.42-4,18.48,28.18-1.89,31.42-3.88S2890.74,623.11,2890.74,623.11Z"/><path class="cls-15" d="M2855.2,636.31c12.13.09,28.18-1.88,31.4-3.88,2.47-1.5,3.45-6.88,3.78-9.36h.36s-.68,8.66-3.88,10.67-19.29,4-31.42,3.88c-3.5,0-4.7-1.27-4.63-3.12C2851.26,635.59,2852.59,636.29,2855.2,636.31Z"/><path class="cls-4" d="M3704.15,396.24v36.23a1.28,1.28,0,0,1-1.27,1.27h-.9V622.51a19.69,19.69,0,0,1-19.69,19.7H3564.34a19.7,19.7,0,0,1-19.7-19.7h0V440.36H3544a.89.89,0,0,1-.89-.89V418.85a.89.89,0,0,1,.89-.9h.65v-7.76H3544a.94.94,0,0,1-.93-.94V388.91a.93.93,0,0,1,.93-.94h.65v-10.6H3544a.83.83,0,0,1-.83-.83h0v-11.1a.83.83,0,0,1,.83-.83h.66V342.13a19.7,19.7,0,0,1,19.7-19.69h117.95A19.69,19.69,0,0,1,3702,342.13V395h.9A1.28,1.28,0,0,1,3704.15,396.24Z"/><rect class="cls-16" x="3608.43" y="332.54" width="21.97" height="4.46" rx="1.4"/><circle class="cls-16" cx="3636.25" cy="334.77" r="2.53"/><path class="cls-3" d="M3692.55,345.8V618.91a12.38,12.38,0,0,1-12.49,12.27H3567.15a12.37,12.37,0,0,1-12.5-12.23V345.8a12.38,12.38,0,0,1,12.5-12.27h16.9v2.13a10.19,10.19,0,0,0,10.28,10.1h57.43a10.2,10.2,0,0,0,10.29-10.1v-2.13h18a12.38,12.38,0,0,1,12.49,12.26Z"/><rect class="cls-13" x="3568.44" y="412.45" width="111.45" height="62.34"/><rect class="cls-13" x="3568.44" y="484.17" width="111.45" height="62.34"/><circle class="cls-4" cx="3674.92" cy="367.48" r="11.03"/><polygon class="cls-13" points="3679.89 367.12 3675.27 367.12 3675.27 362.51 3674.57 362.51 3674.57 367.12 3669.95 367.12 3669.95 367.83 3674.57 367.83 3674.57 372.44 3675.27 372.44 3675.27 367.83 3679.89 367.83 3679.89 367.12"/><path class="cls-4" d="M3611.7,455.26c3.35,12.38,14.82,20.06,14.82,20.06s6.05-12.42,2.7-24.8-14.83-20.06-14.83-20.06S3608.35,442.87,3611.7,455.26Z"/><path class="cls-7" d="M3616.62,452.6c9.19,8.95,10.32,22.71,10.32,22.71s-13.79-.76-23-9.71-10.32-22.71-10.32-22.71S3607.43,443.65,3616.62,452.6Z"/><rect class="cls-13" x="3568.44" y="555.18" width="111.45" height="62.34"/><path class="cls-4" d="M3611.7,598c3.35,12.38,14.82,20,14.82,20s6.05-12.41,2.7-24.79-14.83-20.06-14.83-20.06S3608.35,585.6,3611.7,598Z"/><path class="cls-4" d="M3611.7,527c3.35,12.39,14.82,20.06,14.82,20.06s6.05-12.41,2.7-24.8-14.83-20.06-14.83-20.06S3608.35,514.59,3611.7,527Z"/><path class="cls-7" d="M3616.62,524.32c9.19,8.95,10.32,22.71,10.32,22.71s-13.79-.75-23-9.71-10.32-22.7-10.32-22.7S3607.43,515.37,3616.62,524.32Z"/><path class="cls-4" d="M3642.18,527c-3.35,12.39-14.83,20.06-14.83,20.06s-6-12.41-2.69-24.8,14.83-20.06,14.83-20.06S3645.53,514.59,3642.18,527Z"/><path class="cls-7" d="M3637.26,524.32c-9.2,8.95-10.32,22.71-10.32,22.71s13.78-.75,23-9.71,10.31-22.7,10.31-22.7S3646.45,515.37,3637.26,524.32Z"/><rect class="cls-4" x="270.42" y="478.92" width="637.45" height="144.9"/><path class="cls-4" d="M912.86,628.82H265.42V473.92H912.86Zm-637.44-10H902.86V483.92H275.42Z"/><rect class="cls-3" x="377.14" y="178.09" width="440.05" height="245.64"/><path class="cls-4" d="M912.86,628.82H265.42V120.24H912.86Zm-637.44-10H902.86V130.24H275.42Z"/><ellipse class="cls-2" cx="738.21" cy="664.21" rx="176.6" ry="23.58"/><path class="cls-17" d="M576.87,627.36c4.46,16.5,19.75,26.71,19.75,26.71s8-16.52,3.58-33-19.74-26.71-19.74-26.71S572.41,610.87,576.87,627.36Z"/><path class="cls-3" d="M583.43,623.82c12.24,11.92,13.74,30.24,13.74,30.24s-18.36-1-30.61-12.92-13.74-30.25-13.74-30.25S571.18,611.9,583.43,623.82Z"/><circle class="cls-2" cx="185.9" cy="190.75" r="64.59"/><circle class="cls-2" cx="272.5" cy="306.3" r="40.81"/><circle class="cls-18" cx="840.28" cy="536.84" r="11.87"/><circle class="cls-18" cx="638.04" cy="598.56" r="9.02"/><circle class="cls-7" cx="696.25" cy="207.46" r="12.34"/><path class="cls-19" d="M697.41,449.93,687,451.09s-4.65,20.93,0,48.83,10.46,55.81,10.46,55.81,4.65,90.69,7,91.85,23.25,8.14,24.41,1.16S730,482.48,730,482.48l16.27,76.74s2.33,96.5,7,96.5,19.76-1.17,19.76-9.3,3.49-115.11,3.49-115.11-1.16-79.06-5.81-81.38S697.41,449.93,697.41,449.93Z"/><path class="cls-19" d="M706.71,644.09s-10.46-1.16-12.79,0-5.81,9.3,0,13.95,20.93,11.63,25.58,11.63a23.81,23.81,0,0,0,9.3-2.33l-2.32-19.76Z"/><path class="cls-19" d="M753.22,649.9l1.16,16.28s15.12,2.33,16.28,0,12.79-8.14,14-9.3,2.33-14-4.65-15.11-9.3,2.32-9.3,2.32Z"/><g class="cls-20"><g class="cls-21"><path class="cls-22" d="M578.35,334.26S550.45,361,553.94,375s31.39,54.64,31.39,54.64,26.74,13.95,30.23,0S597,419.14,597,419.14l-17.44-41.86,19.77-27.9Z"/><path class="cls-22" d="M703,293.58s25.42-16.35,24.83-27.58S712,219.37,712,219.37s-12-24.93-16.75-14.74,6.26,21,6.26,21l7.12,34.73-19.35,18.46Z"/><path class="cls-22" d="M629.51,262.18,633,284.27l25.57-4.65s-1.16-22.09-1.16-24.42S629.51,262.18,629.51,262.18Z"/><path class="cls-22" d="M628.34,284.27s29.07-7,32.56-4.65,20.93,4.65,20.93,4.65l19.76,30.23-5.81,38.36s-1.16,61.62,1.16,72.09,15.11,11.63-11.63,13.95-31.39-1.16-50,3.49-33.72-2.33-29.07-7,12.79-79.06,3.49-86-12.79-43-12.79-43S628.34,290.08,628.34,284.27Z"/><path class="cls-22" d="M678.34,287.76l3.49-3.49,7-7s22.67,9.89,21.51,13.37-8.72,23.84-8.72,23.84L691.13,318Z"/><circle class="cls-22" cx="639.97" cy="249.39" r="20.93"/><path class="cls-22" d="M610.9,308.68,597,306.36S586.49,318,583,322.64s-10.46,16.27-10.46,16.27L597,356.35l18.61-19.76Z"/><path class="cls-22" d="M647.27,224l-.21-1.68a13,13,0,0,0-4.19.66,6.88,6.88,0,0,1,.26-3,13.82,13.82,0,0,0-3.88,1.69l-.84-3.06-11.62,5.73c-4.18,2-8.58,4.31-11,8.31-2.66,4.45-2.2,10.17-.38,15s4.84,9.15,7.26,13.74a34,34,0,0,0,3.3,5.61c4.39,5.47,12.93,6.58,19.11,3.28a11.14,11.14,0,0,0,5.3-5.45,34.86,34.86,0,0,0,1.05-4.52c.77-3.12,1.66-9.57,4.2-11.55,1.11-.87,3.33,2,4.25.94,2.38-2.75,1.88-7,.41-10.32a76.1,76.1,0,0,0-5-9.68C654.57,228.51,647.25,223.83,647.27,224Z"/></g></g><path class="cls-23" d="M655.56,352.27S627.65,379,631.14,393s31.39,54.64,31.39,54.64,26.74,14,30.23,0-18.6-10.46-18.6-10.46l-17.44-41.85,19.76-27.91Z"/><path class="cls-23" d="M780.24,311.58s25.42-16.34,24.83-27.57-15.91-46.64-15.91-46.64-12-24.92-16.76-14.74,6.27,21,6.27,21l7.12,34.73-19.35,18.46Z"/><circle class="cls-23" cx="717.18" cy="267.39" r="20.93"/><path class="cls-23" d="M706.71,280.18l3.49,22.09,25.58-4.65s-1.16-22.09-1.16-24.41S706.71,280.18,706.71,280.18Z"/><path class="cls-24" d="M705.55,302.27s29.07-7,32.55-4.65S759,302.27,759,302.27L778.8,332.5,773,370.87s-1.16,61.62,1.17,72.08,15.11,11.63-11.63,14-31.39-1.17-50,3.48-33.72-2.32-29.07-7,12.79-79.06,3.49-86-12.79-43-12.79-43S705.55,308.09,705.55,302.27Z"/><path class="cls-24" d="M755.54,305.76l3.49-3.49,7-7s22.67,9.88,21.51,13.37-8.72,23.83-8.72,23.83L768.33,336Z"/><path class="cls-24" d="M688.11,326.69l-14-2.33S663.7,336,660.21,340.64s-10.47,16.28-10.47,16.28l24.42,17.44,18.6-19.77Z"/><path class="cls-19" d="M724.48,242l-.21-1.68a13.5,13.5,0,0,0-4.19.66,6.82,6.82,0,0,1,.26-3,13,13,0,0,0-3.88,1.69l-.85-3.06L704,242.36c-4.17,2.06-8.57,4.32-11,8.31-2.66,4.45-2.2,10.18-.38,15s4.83,9.16,7.26,13.74a35.15,35.15,0,0,0,3.29,5.62c4.39,5.47,12.93,6.57,19.12,3.27a11,11,0,0,0,5.29-5.45,35.14,35.14,0,0,0,1.06-4.51c.77-3.13,1.65-9.58,4.19-11.56,1.12-.87,3.33,2,4.26.95,2.38-2.76,1.88-7,.4-10.33a74.7,74.7,0,0,0-5-9.67C731.77,246.51,724.45,241.84,724.48,242Z"/><rect class="cls-7" x="379.77" y="506.25" width="81.81" height="60.77"/><text class="cls-25" transform="translate(398.42 287.55)">RAISE <tspan class="cls-26" x="69.5" y="0">Y</tspan><tspan x="82.76" y="0">OUR HAND</tspan><tspan class="cls-27" x="51.62" y="24">T</tspan><tspan x="64.12" y="24">O </tspan><tspan class="cls-27" x="86.86" y="24">P</tspan><tspan class="cls-28" x="101.4" y="24">L</tspan><tspan class="cls-29" x="113.76" y="24">A</tspan><tspan class="cls-30" x="128.6" y="24">Y</tspan><tspan x="142.86" y="24">!</tspan></text><path class="cls-31" d="M376.62,459a5,5,0,0,1-3.17-1.14l-72.32-59.28a5,5,0,1,1,6.34-7.73l72.32,59.28a5,5,0,0,1-3.17,8.87Z"/><path class="cls-31" d="M344.62,464.16a5,5,0,0,1-3.17-1.13L302.32,431a5,5,0,1,1,6.34-7.73l39.13,32.08a5,5,0,0,1-3.17,8.86Z"/><path class="cls-31" d="M886.28,268.79a5,5,0,0,1-3.17-1.13l-51.17-42a5,5,0,0,1,6.33-7.74l51.18,42a5,5,0,0,1-3.17,8.87Z"/><path class="cls-31" d="M870.28,278.06a5,5,0,0,1-3.17-1.14l-27.69-22.7a5,5,0,1,1,6.34-7.73l27.69,22.7a5,5,0,0,1-3.17,8.87Z"/><rect class="cls-7" x="581.05" y="431.95" width="32.24" height="13.66" rx="6.83"/><circle class="cls-4" cx="597.17" cy="438.78" r="4.9"/><path class="cls-4" d="M275.42,628.82H190.75V120.24h84.67Zm-74.67-10h64.67V130.24H200.75Z"/><path class="cls-4" d="M986.33,628.82H901.66V120.24h84.67Zm-74.67-10h64.67V130.24H911.66Z"/><path class="cls-4" d="M195.75,125.24H981.33V102a26.07,26.07,0,0,0-26.07-26.07H221.81A26.07,26.07,0,0,0,195.75,102Z"/><path class="cls-4" d="M986.33,130.24H190.75V102a31.1,31.1,0,0,1,31.06-31.07H955.26A31.11,31.11,0,0,1,986.33,102Zm-785.58-10H976.33V102a21.1,21.1,0,0,0-21.07-21.07H221.81A21.09,21.09,0,0,0,200.75,102Z"/><circle class="cls-2" cx="950.6" cy="100.58" r="73.6"/><text class="cls-32" transform="translate(349.62 37.98)">Digital sc<tspan class="cls-33" x="218.31" y="0">r</tspan><tspan x="237.17" y="0">een</tspan></text><text class="cls-32" transform="translate(0 688.97)">Ou<tspan class="cls-34" x="68.41" y="0">t</tspan><tspan x="87.08" y="0">e</tspan><tspan class="cls-35" x="115.28" y="0">r</tspan><tspan class="cls-36" x="134.36" y="0">n</tspan><tspan x="165.5" y="0">ets </tspan><tspan class="cls-35" x="249.5" y="0">k</tspan><tspan x="278.81" y="0">it</tspan></text><text class="cls-32" transform="translate(358.7 688.97)"><tspan class="cls-35">C</tspan><tspan x="32.57" y="0">a</tspan><tspan class="cls-36" x="60.14" y="0">m</tspan><tspan x="107.28" y="0">e</tspan><tspan class="cls-37" x="135.47" y="0">r</tspan><tspan x="154.42" y="0">a</tspan></text><path class="cls-38" d="M529.1,203.08a2,2,0,0,1-1.85-1.25L466.39,52a2,2,0,0,1,3.71-1.5L531,200.33a2,2,0,0,1-1.85,2.75Z"/><path class="cls-38" d="M267.54,654a2.2,2.2,0,0,1-1.45-.51,2,2,0,0,1-.2-2.91L374,530.55a2.18,2.18,0,0,1,3-.19,2,2,0,0,1,.2,2.91l-108.07,120A2.2,2.2,0,0,1,267.54,654Z"/><path class="cls-38" d="M483.09,655.72a2.11,2.11,0,0,1-1-.25,2.07,2.07,0,0,1-.84-2.81L590.35,451.84a2.09,2.09,0,0,1,2.82-.84,2.06,2.06,0,0,1,.85,2.81L484.92,654.63A2.08,2.08,0,0,1,483.09,655.72Z"/><polygon class="cls-39" points="1375.2 345.49 1072.76 345.49 1072.76 279.17 1375.2 279.17 1425.82 312.33 1375.2 345.49"/><polygon class="cls-39" points="1073.82 428.4 1376.26 428.4 1376.26 362.08 1073.82 362.08 1023.2 395.24 1073.82 428.4"/><text class="cls-40" transform="translate(1168.42 326.17)"><tspan class="cls-41">D</tspan><tspan class="cls-42" x="31.47" y="0">AT</tspan><tspan x="83.58" y="0">A</tspan></text><text class="cls-40" transform="translate(1126.4 409.07)"><tspan class="cls-43">C</tspan><tspan x="27.88" y="0">ONTENT</tspan></text><polygon class="cls-39" points="2626.7 345.49 2324.26 345.49 2324.26 279.17 2626.7 279.17 2677.32 312.33 2626.7 345.49"/><polygon class="cls-39" points="2325.32 428.4 2627.76 428.4 2627.76 362.08 2325.32 362.08 2274.7 395.24 2325.32 428.4"/><text class="cls-40" transform="translate(2419.92 326.17)"><tspan class="cls-41">D</tspan><tspan class="cls-42" x="31.47" y="0">AT</tspan><tspan x="83.58" y="0">A</tspan></text><text class="cls-40" transform="translate(2377.9 409.07)"><tspan class="cls-43">C</tspan><tspan x="27.88" y="0">ONTENT</tspan></text><text class="cls-44" transform="translate(63.11 888.23)"><tspan class="cls-45">L</tspan><tspan class="cls-46" x="39.79" y="0">e</tspan><tspan x="80.13" y="0">a</tspan><tspan class="cls-45" x="120.53" y="0">r</tspan><tspan x="147.45" y="0">n visually </tspan><tspan class="cls-46" x="479.19" y="0">y</tspan><tspan x="515.28" y="0">et </tspan><tspan class="cls-47" x="602.39" y="0">k</tspan><tspan x="642.12" y="0">eep p</tspan><tspan class="cls-48" x="835.65" y="0">r</tspan><tspan class="cls-49" x="862.57" y="0">i</tspan><tspan class="cls-50" x="880.99" y="0">v</tspan><tspan x="917.02" y="0">a</tspan><tspan class="cls-51" x="957.42" y="0">t</tspan><tspan class="cls-49" x="983.93" y="0">e</tspan><tspan x="175.87" y="82.18">(GD</tspan><tspan class="cls-52" x="307.91" y="82.18">P</tspan><tspan class="cls-53" x="356.4" y="82.18">R </tspan><tspan class="cls-54" x="423.85" y="82.18">c</tspan><tspan x="461.79" y="82.18">omplia</tspan><tspan class="cls-55" x="701.08" y="82.18">n</tspan><tspan class="cls-56" x="747.58" y="82.18">c</tspan><tspan x="785.52" y="82.18">e)</tspan></text><text class="cls-44" transform="translate(1295.42 888.23)"><tspan class="cls-57">C</tspan><tspan x="47.67" y="0">ent</tspan><tspan class="cls-58" x="163.2" y="0">r</tspan><tspan class="cls-53" x="190.05" y="0">alised </tspan><tspan class="cls-45" x="406.53" y="0">c</tspan><tspan x="444.54" y="0">loud man</tspan><tspan class="cls-59" x="775.8" y="0">a</tspan><tspan x="816.34" y="0">ge</tspan><tspan class="cls-59" x="904.69" y="0">m</tspan><tspan class="cls-49" x="977.49" y="0">ent</tspan></text><text class="cls-44" transform="translate(2595.47 888.23)">S<tspan class="cls-46" x="42.12" y="0">e</tspan><tspan class="cls-53" x="82.46" y="0">amlessly </tspan><tspan class="cls-59" x="395.78" y="0">m</tspan><tspan class="cls-46" x="468.58" y="0">ov</tspan><tspan x="546.58" y="0">e be</tspan><tspan class="cls-52" x="693.69" y="0">t</tspan><tspan class="cls-46" x="720.81" y="0">w</tspan><tspan x="779.98" y="0">een </tspan><tspan class="cls-60" x="927.01" y="0">c</tspan><tspan x="965.02" y="0">han</tspan><tspan class="cls-59" x="1098.16" y="0">n</tspan><tspan class="cls-49" x="1144.66" y="0">els, </tspan><tspan x="200.9" y="82.18">offli</tspan><tspan class="cls-59" x="327.12" y="82.18">n</tspan><tspan x="373.62" y="82.18">e </tspan><tspan class="cls-61" x="432.93" y="82.18">t</tspan><tspan class="cls-53" x="459.43" y="82.18">o onli</tspan><tspan class="cls-59" x="646.46" y="82.18">n</tspan><tspan x="692.97" y="82.18">e a</tspan><tspan class="cls-59" x="792.68" y="82.18">n</tspan><tspan class="cls-62" x="839.18" y="82.18">d </tspan><tspan class="cls-63" x="903.56" y="82.18">b</tspan><tspan class="cls-59" x="949.78" y="82.18">a</tspan><tspan class="cls-60" x="990.33" y="82.18">c</tspan><tspan x="1028.34" y="82.18">k</tspan></text></g></g></svg>