<svg xmlns="http://www.w3.org/2000/svg" xmlns:xlink="http://www.w3.org/1999/xlink" viewBox="0 0 1079.99 570.96"><defs><style>.cls-1{fill:none;}.cls-2,.cls-7{fill:#fff;}.cls-16,.cls-3,.cls-5{fill:#6680ff;}.cls-4,.cls-40{fill:#d3ddff;}.cls-5{opacity:0.2;}.cls-12,.cls-14,.cls-16,.cls-19,.cls-20,.cls-33,.cls-5,.cls-6,.cls-7{isolation:isolate;}.cls-6{opacity:0.5;}.cls-7{opacity:0.8;}.cls-8{fill:#2f2fcb;}.cls-9{clip-path:url(#clip-path);}.cls-10{clip-path:url(#clip-path-2);}.cls-11{opacity:0.3;}.cls-12,.cls-13,.cls-14{fill:#545454;}.cls-12,.cls-15,.cls-16,.cls-19{opacity:0.1;}.cls-14,.cls-20{opacity:0.02;}.cls-17{fill:url(#linear-gradient);}.cls-18{fill:#444053;}.cls-21{fill:#efb7b9;}.cls-22{fill:#ff6484;}.cls-23{fill:#925978;}.cls-24{fill:url(#linear-gradient-2);}.cls-25{fill:#d38884;}.cls-26{fill:#b07473;}.cls-27{fill:#67647e;}.cls-28{fill:#585268;}.cls-29{fill:#e1e7ef;}.cls-30{fill:url(#linear-gradient-3);}.cls-31{fill:#fdc2cc;}.cls-32{fill:#d39999;}.cls-33,.cls-37{opacity:0.05;}.cls-34{fill:#7e5659;}.cls-35{fill:#865a61;}.cls-36{fill:#65617d;}.cls-38{fill:#3f3d56;}.cls-39{fill:#e6e8ec;}.cls-40{opacity:0.6;}</style><clipPath id="clip-path"><path class="cls-1" d="M930.25,342.89,929.82,248,772.68,210.62v130l156.18,3.67Z"/></clipPath><clipPath id="clip-path-2"><polygon class="cls-1" points="733.39 161.33 962.72 221.4 962.72 365.31 733.39 368.85 733.39 161.33"/></clipPath><linearGradient id="linear-gradient" x1="982.87" y1="-6.81" x2="982.87" y2="128.02" gradientTransform="matrix(1, 0, 0, -1, -56.96, 387.75)" gradientUnits="userSpaceOnUse"><stop offset="0" stop-color="gray" stop-opacity="0.25"/><stop offset="0.54" stop-color="gray" stop-opacity="0.12"/><stop offset="1" stop-color="gray" stop-opacity="0.1"/></linearGradient><linearGradient id="linear-gradient-2" x1="807.63" y1="67.79" x2="807.63" y2="248.97" gradientTransform="matrix(1, 0, 0, -1, -31.16, 511.76)" xlink:href="#linear-gradient"/><linearGradient id="linear-gradient-3" x1="-11066.59" y1="67.44" x2="-11066.59" y2="247.9" gradientTransform="translate(-10345.13 511.76) rotate(180)" xlink:href="#linear-gradient"/></defs><title>Asset 8</title><g id="Layer_2" data-name="Layer 2"><g id="Layer_2-2" data-name="Layer 2"><circle class="cls-2" cx="286.23" cy="284.18" r="247.98"/><circle class="cls-2" cx="798.84" cy="285.48" r="247.98"/><path class="cls-3" d="M571,285.48a284.26,284.26,0,0,1-31,129.4C492.81,507.5,396.55,571,285.47,571,127.81,571,0,443.14,0,285.48H61.9C61.9,409,162,509.05,285.47,509.05S509.05,409,509.05,285.48L540,328.22Z"/><path class="cls-4" d="M540,156.08a284.22,284.22,0,0,0-30.94,129.4C509.05,162,408.94,61.91,285.47,61.91S61.9,162,61.9,285.48l-31-42.74L0,285.48C0,127.82,127.81,0,285.47,0,396.55,0,492.81,63.45,540,156.08Z"/><path class="cls-4" d="M1080,285.48C1080,443.14,952.19,571,794.51,571,683.45,571,587.18,507.5,540,414.88a284.26,284.26,0,0,0,31-129.4C571,409,671,509.05,794.51,509.05S1018.1,409,1018.1,285.48Z"/><path class="cls-3" d="M1080,285.48l-31-42.74-30.94,42.74C1018.1,162,918,61.91,794.51,61.91S571,162,571,285.48h-61.9A284.22,284.22,0,0,1,540,156.08C587.18,63.45,683.45,0,794.51,0,952.19,0,1080,127.82,1080,285.48Z"/><polygon class="cls-3" points="61.9 285.48 0 285.48 30.94 242.74 61.9 285.48"/><polygon class="cls-4" points="1079.99 285.48 1018.1 285.48 1049.04 242.74 1079.99 285.48"/><polygon class="cls-3" points="570.95 285.48 539.99 328.22 509.05 285.48 570.95 285.48"/><polygon class="cls-2" points="623.52 220.4 733.39 160.33 733.39 367.85 623.52 364.31 623.52 220.4"/><polygon class="cls-5" points="623.52 220.4 733.39 160.33 733.39 367.85 623.52 364.31 623.52 220.4"/><polygon class="cls-2" points="733.39 160.33 962.72 220.4 962.72 364.31 733.39 367.85 733.39 160.33"/><g class="cls-6"><polygon class="cls-2" points="738.39 166.81 957.72 224.26 957.72 359.39 738.39 362.77 738.39 166.81"/><path class="cls-3" d="M743.39,173.29l209.33,54.83V354.46l-209.33,3.23V173.29m-10-13V367.84l229.33-3.53V220.4L733.39,160.33Z"/></g><path class="cls-5" d="M930.25,341.89l-.43-94.9-157.14-35.1v131.2l156.19.19Z"/><polygon class="cls-7" points="781.67 228.29 819.6 235.64 819.63 260.22 781.68 254.59 781.67 228.29"/><polygon class="cls-8" points="832.89 238.21 864.61 244.35 864.67 266.9 832.94 262.19 832.89 238.21"/><polygon class="cls-7" points="781.68 265.9 819.64 270.79 819.67 295.42 781.69 292.25 781.68 265.9"/><polygon class="cls-7" points="832.95 272.51 864.7 276.6 864.76 299.19 833 296.54 832.95 272.51"/><polygon class="cls-7" points="781.69 303.58 819.69 306.01 819.72 330.7 781.7 329.98 781.69 303.58"/><polygon class="cls-7" points="833.01 306.87 864.78 308.91 864.84 331.54 833.05 330.95 833.01 306.87"/><g class="cls-9"><g class="cls-10"><g class="cls-11"><path class="cls-12" d="M901.85,375.87c1.76,3.58-10.69,7.43-26.11,8.54-13.81,1-25.17-.63-26.61-3.54s7.36-6.44,20.88-8C885.1,371.07,900.09,372.33,901.85,375.87Z"/><path class="cls-13" d="M896.39,285.85s.69-.66.46-1.11a1.06,1.06,0,0,1,0-.89s-1.54-6.05-2.11-6.65a4.9,4.9,0,0,1-.85-1.51.71.71,0,0,0,.08-.38,3,3,0,0,0-.59-1.69,4,4,0,0,1-.71-2.23,1.5,1.5,0,0,1,0-.3h0a3,3,0,0,0-2.07-1.83c.2-1.29.47-2.57.55-3.86.27-4-1.23-7.95-2.71-11.74a12.61,12.61,0,0,0-1.3-2.66,7.75,7.75,0,0,0-5.57-3,5.39,5.39,0,0,0-2.39.23,7.25,7.25,0,0,0-2,1.38c-.64.53-1.28,1.08-1.87,1.67l-.07.07-.21.22-.08.08-.2.22-.07.08a3.88,3.88,0,0,0-.26.31h0l-.23.3-.07.1-.15.22-.07.11c-.06.08-.1.16-.15.24l-.06.1-.19.35-.21.48v.06l-.13.32c-.16.38-.31.76-.51,1.13h0l0,.06-.43.52a3.59,3.59,0,0,0-.48.83l0,.1a.65.65,0,0,1,0,.13l0,.1a.57.57,0,0,1,0,.14v.12l0,.13v.12a.21.21,0,0,1,0,.13v.86a.43.43,0,0,0,0,.16.17.17,0,0,0,0,.1.38.38,0,0,0,0,.15v.26a.21.21,0,0,0,0,.11l0,.15v.1l.06.16s0,.06,0,.08a1.37,1.37,0,0,1,.09.25,6.12,6.12,0,0,0,.67,1.13c.17.24.35.47.53.71l.26.36a7.11,7.11,0,0,1,.47.74,5.2,5.2,0,0,1-.19,5.15l-.21.32a2,2,0,0,0-.25.6,1.31,1.31,0,0,0,.34,1l-.53.14-.73.21a6.61,6.61,0,0,0-1.09,0,3,3,0,0,0-1.3.84s-2.28.27-3-.39-3.36-.89-3.36-.89a5.62,5.62,0,0,0-1.53-1.89c-.8-.45-2.74-1.28-2.8-1.72a3.69,3.69,0,0,0-.74-1.27,6,6,0,0,0-1.19-.15l-.12-.21-1.6-2.75s-2-2.33-3.07-2.56,1.52,2.48,1.64,2.61a1.7,1.7,0,0,0-2.38.39c-.85.94,1.4,3.15,2.79,4.38l.23.19c0,.13,0,.25.05.37.63,3.27,4.1,6.11,4.1,6.11s.4,1.83,1.71,2.27c1.05.36,6.65,2.9,9.58,3.4-.25.64-.53,2.1.68,4.26,0,0,.28,3.83-.34,4.33s-.6,6.05-.6,6.05-2.38,9.66,0,11.71a1.66,1.66,0,0,0,.51.31,4,4,0,0,0,.06.47,4.71,4.71,0,0,1-.12,2.38c-.59.95.2,3.5.2,3.5S868,325.56,869,330.16a52.24,52.24,0,0,1,.91,10.44s-.34,4,1.43,6.5a6.76,6.76,0,0,1,.34,1.78,10.53,10.53,0,0,0,.91,3.39c.4.77,1.19,4.05.51,4.94s.74,10.55.74,10.55-1.14,3,0,4.55l0,0a7.5,7.5,0,0,1-2-.29c-1.28-.42-.32,1.2,1.19,2.31-.66,1.5-1.57,3.52-1.87,4.17a16.73,16.73,0,0,1-5.46.24c-2.11-.5.91,2.88,3.75,3.5a27.73,27.73,0,0,0,6.1.44l1.84-2a23.11,23.11,0,0,0,4.48.17l-.16,1.88h1.08v-1.95c.68-.07,1.38-.16,2.11-.29,0,0,0-2.06-.09-4l.66.05.1-1.07,2.35.42,2.1-17.3s.23-6.44.75-10-1.09-15.71-1.09-15.71-.11-.59-.23-1.72,0-7.66,0-7.66a23.52,23.52,0,0,0,.69-3.88,6.2,6.2,0,0,1,.05-1.83c3.58-7.3-.82-13.89-2.35-15.85a.46.46,0,0,0,.15-.31.28.28,0,0,0,0-.13,13.37,13.37,0,0,0-.86-1.79l.89-1.14.53.78a10.85,10.85,0,0,1,1.94-3c1-.82,5.64-8.6,5.64-8.6s1.09-.73.51-1.34S896.39,285.85,896.39,285.85ZM882,347.24a1.46,1.46,0,0,0-.4-.66s-.17-1.19-.23-2.72c.34,1.19.69,2.05.69,2.05Zm2.69,28.38v-.32h.08Zm.7-79v-.07a.88.88,0,0,1,.37-.79.43.43,0,0,0,.2-.39,1.45,1.45,0,0,0-.28-.69c.12.08.47.27.71-.42a1.26,1.26,0,0,0,.05-.33,2.79,2.79,0,0,0-.67-1.56l2.57-5.43a6.28,6.28,0,0,0,.86.19h0c-.67,2.09-1.23,4.58-1.23,4.58l-2,4.38a.9.9,0,0,1,.35.25Z"/><path class="cls-13" d="M876.86,372.21s-3.35.42-5-.15.5,2.39,2.71,3.11a20.27,20.27,0,0,0,4.77.81l2.58-2.43,2.74.21-.47,2.7.85.07.33-3.52Z"/><path class="cls-12" d="M876.86,372.21s-3.35.42-5-.15.5,2.39,2.71,3.11a20.27,20.27,0,0,0,4.77.81l2.58-2.43,2.74.21-.47,2.7.85.07.33-3.52Z"/><path class="cls-13" d="M872,378.36s-4,.88-6.06.39.89,2.86,3.64,3.46a25.19,25.19,0,0,0,5.88.44l2.87-3.24,3.35-.06-.28,3.33h1.05v-4.32Z"/><path class="cls-12" d="M872,378.36s-4,.88-6.06.39.89,2.86,3.64,3.46a25.19,25.19,0,0,0,5.88.44l2.87-3.24,3.35-.06-.28,3.33h1.05v-4.32Z"/><path class="cls-13" d="M886.88,301.93s6.88,7.65,2.76,16.29a6.48,6.48,0,0,0-.06,1.82,25,25,0,0,1-.66,3.85s-.11,6.49,0,7.59.22,1.7.22,1.7,1.54,12,1,15.58-.71,10-.71,10l-2,17.17-10.56-2,4.77-23.56.17-4.17s-2-5.12-1.1-7.7-.22-35.55-.22-35.55Z"/><path class="cls-14" d="M886.88,301.93s6.88,7.65,2.76,16.29a6.48,6.48,0,0,0-.06,1.82,25,25,0,0,1-.66,3.85s-.11,6.49,0,7.59.22,1.7.22,1.7,1.54,12,1,15.58-.71,10-.71,10l-2,17.17-10.56-2,4.77-23.56.17-4.17s-2-5.12-1.1-7.7-.22-35.55-.22-35.55Z"/><path class="cls-13" d="M881.82,338.91c-1.19,2.31-.44,7.92-.44,7.92,1.59,1.38.72,13.38.72,13.38s1.09,11.83,1.79,13.2.59,7,.59,7c-8.09,1.49-13.37-1.7-13.37-1.7s2.59-5.89,2.64-6.17.38.27.48.39l-.48-.66c-1.1-1.54,0-4.51,0-4.51s-1.38-9.54-.72-10.46-.1-4.12-.49-4.89a10.91,10.91,0,0,1-.88-3.36,7,7,0,0,0-.33-1.76c-1.71-2.42-1.38-6.44-1.38-6.44a52.71,52.71,0,0,0-.88-10.34c-1-4.57,1.24-17.5,1.24-17.5s-.74-2.53-.19-3.47a5,5,0,0,0,.11-2.39c-.14-1.19-.39-2.3-.39-2.3l15-2.65c.32.53.6,1,.87,1.52,5,9.19,1.62,12.59,1.62,12.59l-3.19,9.8S883,336.6,881.82,338.91Z"/><path class="cls-13" d="M858,267.1l-2.15,1.79s-.42-.33-1-.84c-1.35-1.19-3.52-3.4-2.71-4.33a1.64,1.64,0,0,1,2.26-.43l0,0c-.12-.13-2.62-2.8-1.59-2.59s3,2.53,3,2.53l1.54,2.73Z"/><polygon class="cls-13" points="886.77 296.82 884.24 297.59 886.16 300.94 888.37 298.09 886.77 296.82"/><circle class="cls-13" cx="880.83" cy="258.08" r="7.21"/><path class="cls-13" d="M876.59,260.72s6.56,10.39.33,11.27,8.36,7.21,8.36,7.21l5.44-5.5s-5.67-9.79-4.77-13.53S876.59,260.72,876.59,260.72Z"/><path class="cls-12" d="M885.76,303.76a33.52,33.52,0,0,1-4.43,1s-8.12,3.58-11.07,2.38c-.13-1.19-.38-2.3-.38-2.3l15-2.64C885.2,302.77,885.5,303.28,885.76,303.76Z"/><path class="cls-13" d="M893.22,276.56l-1.47,3L890.1,283l-.24.49-2,4.24-2.49,5.37s.88,1.05.59,1.87-.66.44-.71.39.6.78.1,1.1a1,1,0,0,0-.32,1,38.94,38.94,0,0,1,2.42,4.57c.39,1.21-6.16,2.26-6.16,2.26s-9.3,4.13-11.62,2.09,0-11.61,0-11.61,0-5.5.6-6,.33-4.29.33-4.29c-1.6-2.92-.5-4.57-.5-4.57l-.44-7.48s.72-.77,1.27-.82a4.52,4.52,0,0,1,1,0s.29-.11.71-.22c.89-.25,2.35-.6,2.87-.34.77.39,5.72-.6,5.72-.6a60.67,60.67,0,0,1,6.44-.59,6.18,6.18,0,0,1,2.18.24A2.89,2.89,0,0,1,892,272a3.84,3.84,0,0,0,.66,2.53C893.6,276,893.22,276.56,893.22,276.56Z"/><path class="cls-12" d="M858,267.1l-2.15,1.79s-.42-.33-1-.84c-.18-1.85,1.4-2.1,2.52-2.05Z"/><path class="cls-13" d="M870.65,272.44l-.94.06s-2.2.27-2.91-.39-3.25-.88-3.25-.88a5.55,5.55,0,0,0-1.48-1.87c-.77-.44-2.65-1.27-2.7-1.71a3.86,3.86,0,0,0-.72-1.26s-4.12-1-3.52,2.25,4,6.06,4,6.06.39,1.79,1.66,2.25,9.46,4.3,10.78,3.31S870.65,272.44,870.65,272.44Z"/><path class="cls-12" d="M892.71,274.51a3.84,3.84,0,0,1-.66-2.53,2.93,2.93,0,0,0-2.1-1.85,4.94,4.94,0,0,0-1.07-.21,2.89,2.89,0,0,1,2.07,1.84,3.79,3.79,0,0,0,.67,2.53c.87,1.43.49,2,.49,2l-1.47,3L889,282.79l-.24.48-2,4.25-2.49,5.36s.87,1.05.59,1.88-.65.43-.71.39.6.78.11,1.09a1,1,0,0,0-.33,1.05,37.46,37.46,0,0,1,2.42,4.57c.38,1.21-6.16,2.25-6.16,2.25s-6.46,2.86-10,2.64c3,1.17,11.05-2.42,11.05-2.42s6.56-1,6.16-2.25a40.55,40.55,0,0,0-2.42-4.57,1,1,0,0,1,.33-1.05c.48-.31-.06-1-.1-1.09s.45.38.71-.39-.6-1.87-.6-1.87l2.49-5.37,2-4.24.24-.49,1.65-3.42,1.46-3S893.6,275.94,892.71,274.51Z"/><path class="cls-13" d="M892.22,275.74l1,.82a4.5,4.5,0,0,0,.83,1.5c.55.59,2,6.59,2,6.59a1.06,1.06,0,0,0,0,.89c.22.44-.44,1.1-.44,1.1s-.33-.11.22.49-.49,1.32-.49,1.32-4.51,7.7-5.45,8.53a10.93,10.93,0,0,0-1.87,3s-2-3.08-2.42-3.14l1.92-4.35s1.32-6.05,2.31-7.16-.49-4.9-.49-4.9Z"/><path class="cls-12" d="M892.85,287a4.06,4.06,0,0,1-3.58,1.06,2.72,2.72,0,0,1-.56-.09c-.29-.05-.57-.12-.84-.19a8.71,8.71,0,0,1-2.73-1.35,1.89,1.89,0,0,0-.6-.35,1.3,1.3,0,0,0-1.3.7c-.28.45-.41,1-.7,1.42a3.26,3.26,0,0,1-2.7,1.32,9.39,9.39,0,0,1-3.06-.59,9.29,9.29,0,0,0,2-3.26,7.84,7.84,0,0,0,.16-2.46c-.24-3.9-1.59-8-4.77-10.27a3.53,3.53,0,0,1-1.4-1.45,6.11,6.11,0,0,1,2.86-.34c.77.39,5.73-.59,5.73-.59a57.73,57.73,0,0,1,6.44-.6,6.7,6.7,0,0,1,2.18.24,13.58,13.58,0,0,0-.18,4.92,11,11,0,0,0,1.09,2.9c.28.55.59,1.09.89,1.63a11.84,11.84,0,0,1,1.78,4.71A3.61,3.61,0,0,1,892.85,287Z"/><path class="cls-12" d="M882,294.72a3.75,3.75,0,0,1,1.29-.12,2.49,2.49,0,0,1,1,.56H881.4a3.74,3.74,0,0,1-2.39-.47C879.5,294.2,881.25,294.8,882,294.72Z"/><path class="cls-13" d="M872.17,257.24a4.27,4.27,0,0,0-.49,4.14c.45,1.06,1.33,1.89,1.86,2.92a5.26,5.26,0,0,1-.18,5.1,2.41,2.41,0,0,0-.44.91c-.13.84.74,1.45,1.43,1.94,3.18,2.26,4.53,6.37,4.78,10.26A7.83,7.83,0,0,1,879,285a9.08,9.08,0,0,1-2,3.26,9.45,9.45,0,0,0,3.06.6,3.31,3.31,0,0,0,2.71-1.33c.28-.44.41-1,.69-1.42a1.29,1.29,0,0,1,1.3-.7,1.89,1.89,0,0,1,.6.35,8.75,8.75,0,0,0,4.13,1.63,4.06,4.06,0,0,0,3.58-1.06,3.67,3.67,0,0,0,.68-2.66c-.29-3.34-3.11-6-3.76-9.24-.53-2.65.42-5.36.6-8.06.26-4-1.2-7.89-2.62-11.63a12.88,12.88,0,0,0-1.26-2.65,7.4,7.4,0,0,0-5.36-3,4.94,4.94,0,0,0-2.32.23,7.37,7.37,0,0,0-2,1.36,13.83,13.83,0,0,0-3.58,4c-.32.67-.53,1.39-.88,2"/><g class="cls-15"><path class="cls-13" d="M873.47,255.78c.35-.65.6-1.36.88-2A8.33,8.33,0,0,1,875.5,252a9.56,9.56,0,0,0-2,2.66c-.31.65-.52,1.34-.86,2l.43-.37q-.16.24-.3.48A5,5,0,0,0,873.47,255.78Z"/><path class="cls-13" d="M890.39,286.42a8.64,8.64,0,0,1-4.13-1.62,2.28,2.28,0,0,0-.6-.36,1.33,1.33,0,0,0-1.3.71,2.64,2.64,0,0,0-.15.29.92.92,0,0,1,.59-.05,1.58,1.58,0,0,1,.6.35,8.64,8.64,0,0,0,4.13,1.62,4,4,0,0,0,3.58-1.05,2.36,2.36,0,0,0,.28-.42A4.61,4.61,0,0,1,890.39,286.42Z"/><path class="cls-13" d="M880.94,287.89a9.66,9.66,0,0,1-3.06-.59,9.33,9.33,0,0,0,2-3.27,7.82,7.82,0,0,0,.16-2.46c-.24-3.89-1.59-8-4.78-10.26-.69-.5-1.55-1.1-1.43-1.94a2.59,2.59,0,0,1,.45-.91,5.29,5.29,0,0,0,.18-5.1c-.54-1-1.41-1.86-1.87-2.92a4.29,4.29,0,0,1,.19-3.67c-.15.16-.31.31-.48.46a4.63,4.63,0,0,1-.4.48,4.29,4.29,0,0,0-.19,3.67c.46,1.06,1.33,1.89,1.87,2.92a5.29,5.29,0,0,1-.18,5.1,2.41,2.41,0,0,0-.44.91c-.14.84.74,1.45,1.43,1.94,3.17,2.26,4.52,6.37,4.77,10.26A7.83,7.83,0,0,1,879,285a9.08,9.08,0,0,1-2,3.26,9.46,9.46,0,0,0,3.07.6,3.29,3.29,0,0,0,2.7-1.33,1.62,1.62,0,0,0,.1-.18A3.78,3.78,0,0,1,880.94,287.89Z"/></g></g></g></g><path class="cls-16" d="M953.7,387.69c1.76,3.58-10.69,7.43-26.1,8.54-13.82,1-25.18-.63-26.62-3.54s7.37-6.44,20.88-8C937,382.89,951.94,384.15,953.7,387.69Z"/><path class="cls-17" d="M948.25,297.67s.68-.66.46-1.11a1,1,0,0,1,0-.89s-1.54-6.05-2.12-6.65a4.9,4.9,0,0,1-.85-1.51.73.73,0,0,0,.08-.38,3,3,0,0,0-.59-1.69,4.07,4.07,0,0,1-.71-2.23,1.5,1.5,0,0,1,0-.3h0a3,3,0,0,0-2.07-1.83c.2-1.29.47-2.57.55-3.86.27-4-1.23-8-2.71-11.74a12.14,12.14,0,0,0-1.3-2.66,7.74,7.74,0,0,0-5.57-3.05A5.35,5.35,0,0,0,931,260a7.16,7.16,0,0,0-2.06,1.38c-.64.53-1.28,1.08-1.87,1.67l-.07.07-.21.22-.08.08-.2.22-.07.08-.26.31h0l-.22.3-.08.1-.15.22-.07.11a1.49,1.49,0,0,0-.14.24l-.07.1-.19.35-.21.48V266l-.13.32c-.16.38-.31.76-.51,1.13h0l0,.06L924,268a3.93,3.93,0,0,0-.49.84l0,.1a.43.43,0,0,1-.05.13l0,.1c0,.05,0,.1,0,.14v.11l0,.14v.11a.24.24,0,0,1,0,.14v1.64l0,.15v.1l.06.16s0,.06,0,.08a1.37,1.37,0,0,1,.09.25,6.73,6.73,0,0,0,.67,1.13c.17.24.35.47.53.71l.26.36a6.19,6.19,0,0,1,.47.74,5.21,5.21,0,0,1-.18,5.14l-.22.33a1.65,1.65,0,0,0-.24.6,1.24,1.24,0,0,0,.34,1l-.54.14-.73.21a6.49,6.49,0,0,0-1.08,0,2.94,2.94,0,0,0-1.31.84s-2.28.27-3-.39-3.35-.89-3.35-.89a5.56,5.56,0,0,0-1.54-1.89c-.8-.45-2.73-1.28-2.79-1.72a4.2,4.2,0,0,0-.74-1.28,7,7,0,0,0-1.2-.14l-.12-.21-1.59-2.75s-2-2.34-3.08-2.56,1.52,2.48,1.64,2.6a1.71,1.71,0,0,0-2.38.4c-.85.94,1.4,3.15,2.8,4.38l.22.19a2.2,2.2,0,0,0,.06.37c.62,3.27,4.09,6.11,4.09,6.11s.4,1.83,1.72,2.27c1,.36,6.65,2.9,9.57,3.4-.24.64-.53,2.1.68,4.26,0,0,.29,3.83-.34,4.33s-.6,6-.6,6-2.38,9.66,0,11.71a1.79,1.79,0,0,0,.51.31,4,4,0,0,0,.06.47,4.85,4.85,0,0,1-.11,2.38c-.6.95.19,3.5.19,3.5s-2.3,13-1.27,17.65a53,53,0,0,1,.9,10.44s-.34,4.05,1.43,6.49a6.83,6.83,0,0,1,.34,1.79,10.79,10.79,0,0,0,.91,3.39c.4.77,1.19,4.05.51,4.94s.74,10.55.74,10.55-1.13,3,0,4.55l0,0a7.5,7.5,0,0,1-2-.29c-1.27-.43-.32,1.2,1.2,2.31-.67,1.5-1.57,3.52-1.88,4.17a16.47,16.47,0,0,1-5.46.23c-2.11-.49.91,2.89,3.76,3.51a27.64,27.64,0,0,0,6.09.44l1.84-2a23.93,23.93,0,0,0,4.48.17l-.16,1.88h1.08v-2c.68-.06,1.38-.15,2.11-.28,0,0,0-2.07-.09-4l.66.06.1-1.08,2.35.43,2.1-17.3s.24-6.44.75-10.05-1.09-15.71-1.09-15.71-.11-.59-.22-1.72,0-7.66,0-7.66a23.57,23.57,0,0,0,.68-3.88,6.58,6.58,0,0,1,.06-1.84c3.58-7.29-.83-13.88-2.36-15.84a.46.46,0,0,0,.15-.32.24.24,0,0,0,0-.12,12.81,12.81,0,0,0-.86-1.79l.9-1.14.53.78a10.73,10.73,0,0,1,1.93-3c1-.82,5.64-8.6,5.64-8.6s1.09-.73.51-1.34S948.25,297.67,948.25,297.67Zm-14.36,61.39a1.46,1.46,0,0,0-.4-.66s-.17-1.19-.23-2.72c.34,1.19.69,2.05.69,2.05Zm2.69,28.38v-.32h.08Zm.7-79v-.07a.9.9,0,0,1,.37-.79.41.41,0,0,0,.2-.39,1.35,1.35,0,0,0-.28-.69c.12.08.47.27.71-.42a1.26,1.26,0,0,0,.05-.33,2.78,2.78,0,0,0-.67-1.57l2.58-5.42a6.14,6.14,0,0,0,.85.19h0c-.67,2.09-1.22,4.58-1.22,4.58l-2,4.38a.9.9,0,0,1,.35.25Z"/><path class="cls-18" d="M928.71,384s-3.35.41-5-.15.5,2.39,2.7,3.11a20.27,20.27,0,0,0,4.77.81l2.58-2.43,2.75.21-.48,2.69.85.08.33-3.52Z"/><path class="cls-19" d="M928.71,384s-3.35.41-5-.15.5,2.39,2.7,3.11a20.27,20.27,0,0,0,4.77.81l2.58-2.43,2.75.21-.48,2.69.85.08.33-3.52Z"/><path class="cls-18" d="M923.88,390.18s-4,.88-6.06.38.89,2.87,3.64,3.47a25.23,25.23,0,0,0,5.88.44l2.87-3.24,3.35-.06-.27,3.33h1.05v-4.32Z"/><path class="cls-19" d="M923.88,390.18s-4,.88-6.06.38.89,2.87,3.64,3.47a25.23,25.23,0,0,0,5.88.44l2.87-3.24,3.35-.06-.27,3.33h1.05v-4.32Z"/><path class="cls-18" d="M938.73,313.75s6.88,7.65,2.76,16.29a6.48,6.48,0,0,0-.06,1.82,25,25,0,0,1-.66,3.85s-.11,6.49,0,7.59.22,1.7.22,1.7,1.54,12,1,15.58-.72,10-.72,10l-2,17.17-10.57-2,4.77-23.56.17-4.17s-2-5.12-1.1-7.71-.22-35.54-.22-35.54Z"/><path class="cls-20" d="M938.73,313.75s6.88,7.65,2.76,16.29a6.48,6.48,0,0,0-.06,1.82,25,25,0,0,1-.66,3.85s-.11,6.49,0,7.59.22,1.7.22,1.7,1.54,12,1,15.58-.72,10-.72,10l-2,17.17-10.57-2,4.77-23.56.17-4.17s-2-5.12-1.1-7.71-.22-35.54-.22-35.54Z"/><path class="cls-18" d="M933.67,350.73c-1.19,2.31-.44,7.92-.44,7.92C934.82,360,934,372,934,372s1.1,11.82,1.79,13.2.59,7,.59,7c-8.08,1.49-13.37-1.71-13.37-1.71s2.59-5.88,2.64-6.16.38.27.48.39l-.48-.66c-1.1-1.54,0-4.51,0-4.51s-1.38-9.55-.71-10.46-.11-4.13-.5-4.9a10.77,10.77,0,0,1-.88-3.35,6.6,6.6,0,0,0-.33-1.76c-1.7-2.42-1.38-6.44-1.38-6.44a52.7,52.7,0,0,0-.87-10.34c-1-4.57,1.23-17.5,1.23-17.5s-.74-2.53-.19-3.47a5,5,0,0,0,.11-2.39c-.13-1.19-.38-2.3-.38-2.3l15-2.65c.32.53.6,1,.87,1.52,5,9.18,1.62,12.59,1.62,12.59L936,338S934.88,348.42,933.67,350.73Z"/><path class="cls-21" d="M909.88,278.92l-2.15,1.79s-.42-.33-1-.84c-1.35-1.19-3.52-3.4-2.7-4.34a1.63,1.63,0,0,1,2.25-.42l.05,0c-.12-.13-2.62-2.8-1.59-2.59s3,2.53,3,2.53l1.54,2.73Z"/><polygon class="cls-21" points="938.63 308.64 936.1 309.41 938.02 312.76 940.22 309.9 938.63 308.64"/><circle class="cls-21" cx="932.68" cy="269.9" r="7.21"/><path class="cls-21" d="M928.44,272.53s6.56,10.4.34,11.28,8.35,7.21,8.35,7.21l5.44-5.5s-5.66-9.79-4.77-13.53S928.44,272.53,928.44,272.53Z"/><path class="cls-19" d="M937.61,315.58a33.52,33.52,0,0,1-4.43,1s-8.11,3.57-11.07,2.38c-.13-1.19-.38-2.3-.38-2.3l15-2.64C937.06,314.59,937.35,315.09,937.61,315.58Z"/><path class="cls-22" d="M945.07,288.38l-1.46,3L942,294.83l-.24.49-2,4.24-2.49,5.37s.88,1,.6,1.87-.67.44-.71.39.59.78.1,1.1a1,1,0,0,0-.33,1,38.94,38.94,0,0,1,2.42,4.57c.39,1.21-6.16,2.26-6.16,2.26s-9.3,4.12-11.62,2.08,0-11.6,0-11.6,0-5.5.6-6,.33-4.29.33-4.29c-1.59-2.92-.5-4.57-.5-4.57l-.44-7.48a2.93,2.93,0,0,1,1.27-.83,6.14,6.14,0,0,1,1,0s.28-.1.71-.21c.88-.25,2.34-.6,2.86-.34.77.39,5.73-.6,5.73-.6a60.24,60.24,0,0,1,6.43-.59,6.47,6.47,0,0,1,2.19.23,2.92,2.92,0,0,1,2.1,1.86,3.86,3.86,0,0,0,.66,2.53C945.45,287.78,945.07,288.38,945.07,288.38Z"/><path class="cls-19" d="M909.88,278.92l-2.15,1.79s-.42-.33-1-.84c-.18-1.85,1.41-2.1,2.52-2.05Z"/><path class="cls-22" d="M922.5,284.26l-.94.06s-2.2.27-2.91-.39-3.25-.88-3.25-.88a5.42,5.42,0,0,0-1.48-1.87c-.77-.44-2.65-1.27-2.7-1.71a4,4,0,0,0-.71-1.26s-4.13-1-3.52,2.25,4,6.06,4,6.06.38,1.79,1.65,2.25,9.46,4.3,10.78,3.31S922.5,284.26,922.5,284.26Z"/><path class="cls-19" d="M944.57,286.33a3.85,3.85,0,0,1-.67-2.53,2.93,2.93,0,0,0-2.1-1.85,4.94,4.94,0,0,0-1.07-.21,2.92,2.92,0,0,1,2.08,1.84,3.73,3.73,0,0,0,.66,2.53c.88,1.43.49,2,.49,2l-1.46,3-1.66,3.42-.24.49-2,4.25-2.49,5.36s.88,1.05.6,1.88-.66.43-.71.38.59.79.1,1.1a1.08,1.08,0,0,0-.33,1.05,36.7,36.7,0,0,1,2.42,4.57c.38,1.21-6.16,2.25-6.16,2.25s-6.46,2.86-10,2.64c3,1.17,11-2.42,11-2.42s6.56-1,6.16-2.25a39.66,39.66,0,0,0-2.42-4.57,1.06,1.06,0,0,1,.33-1.05c.48-.31-.06-1-.1-1.09s.45.38.71-.39-.6-1.88-.6-1.88l2.5-5.36,2-4.25.24-.48,1.65-3.42,1.47-3S945.45,287.76,944.57,286.33Z"/><path class="cls-22" d="M944.07,287.56l1,.82a4.46,4.46,0,0,0,.83,1.49c.55.6,2,6.6,2,6.6a1.12,1.12,0,0,0,0,.88c.22.45-.44,1.11-.44,1.11s-.33-.12.22.49-.49,1.32-.49,1.32-4.51,7.7-5.45,8.53a11.2,11.2,0,0,0-1.87,3s-2-3.07-2.42-3.13l1.92-4.35s1.32-6.05,2.31-7.16-.49-4.9-.49-4.9Z"/><path class="cls-19" d="M944.7,298.78a4.06,4.06,0,0,1-3.58,1.06,2.72,2.72,0,0,1-.56-.09c-.28-.05-.56-.12-.84-.19a8.71,8.71,0,0,1-2.73-1.35,1.89,1.89,0,0,0-.6-.35,1.31,1.31,0,0,0-1.3.7c-.28.45-.41,1-.69,1.42a3.28,3.28,0,0,1-2.71,1.32,9.71,9.71,0,0,1-3.06-.59,9.12,9.12,0,0,0,2-3.27,7.75,7.75,0,0,0,.15-2.45c-.24-3.9-1.59-8-4.77-10.27a3.6,3.6,0,0,1-1.4-1.45c.89-.25,2.35-.6,2.87-.34.77.39,5.72-.6,5.72-.6a60.43,60.43,0,0,1,6.44-.59,6.44,6.44,0,0,1,2.18.24,13.79,13.79,0,0,0-.18,4.92,11,11,0,0,0,1.09,2.9c.28.55.6,1.09.89,1.63a12,12,0,0,1,1.79,4.71A3.67,3.67,0,0,1,944.7,298.78Z"/><path class="cls-19" d="M933.82,306.53a4,4,0,0,1,1.29-.11,2.49,2.49,0,0,1,1,.56h-2.83a3.81,3.81,0,0,1-2.39-.47C931.35,306,933.11,306.62,933.82,306.53Z"/><path class="cls-23" d="M924,269.06a4.27,4.27,0,0,0-.49,4.14c.46,1.06,1.33,1.89,1.86,2.92a5.29,5.29,0,0,1-.17,5.1,2.59,2.59,0,0,0-.45.91c-.13.84.74,1.45,1.44,1.93,3.17,2.27,4.52,6.38,4.77,10.27a7.83,7.83,0,0,1-.15,2.46,9.08,9.08,0,0,1-2,3.26,9.73,9.73,0,0,0,3.07.6,3.31,3.31,0,0,0,2.7-1.33c.28-.44.42-1,.7-1.42a1.26,1.26,0,0,1,1.3-.7,1.85,1.85,0,0,1,.59.35,8.67,8.67,0,0,0,4.14,1.62,4,4,0,0,0,3.58-1.05,3.66,3.66,0,0,0,.67-2.66c-.29-3.34-3.11-6-3.76-9.24-.53-2.65.43-5.36.6-8.06.26-4-1.19-7.89-2.62-11.63a13.38,13.38,0,0,0-1.25-2.65,7.44,7.44,0,0,0-5.37-3,4.94,4.94,0,0,0-2.32.23,7.17,7.17,0,0,0-2,1.36,13.56,13.56,0,0,0-3.58,4c-.33.67-.53,1.39-.89,2"/><g class="cls-15"><path d="M925.32,267.6c.35-.65.6-1.37.89-2a7.91,7.91,0,0,1,1.14-1.72,9.56,9.56,0,0,0-2,2.66c-.31.65-.52,1.34-.86,2l.43-.37q-.17.24-.3.48A5,5,0,0,0,925.32,267.6Z"/><path d="M942.25,298.24a8.63,8.63,0,0,1-4.14-1.62,2.13,2.13,0,0,0-.59-.36,1.34,1.34,0,0,0-1.31.71l-.15.29a.89.89,0,0,1,.6-.05,1.54,1.54,0,0,1,.59.35,8.67,8.67,0,0,0,4.14,1.62,4.05,4.05,0,0,0,3.58-1.06,2.42,2.42,0,0,0,.27-.41A4.59,4.59,0,0,1,942.25,298.24Z"/><path d="M932.79,299.71a9.45,9.45,0,0,1-3.06-.6,9,9,0,0,0,2-3.26,7.55,7.55,0,0,0,.16-2.46c-.24-3.89-1.59-8-4.77-10.26-.7-.5-1.56-1.1-1.44-1.94a2.77,2.77,0,0,1,.45-.91,5.29,5.29,0,0,0,.18-5.1c-.54-1-1.41-1.86-1.87-2.92a4.36,4.36,0,0,1,.19-3.67,5.11,5.11,0,0,1-.48.45,3.88,3.88,0,0,1-.4.49,4.26,4.26,0,0,0-.18,3.67c.45,1.06,1.32,1.89,1.86,2.92a5.29,5.29,0,0,1-.18,5.1,2.41,2.41,0,0,0-.44.91c-.13.84.74,1.45,1.43,1.93,3.17,2.27,4.53,6.38,4.77,10.27a7.83,7.83,0,0,1-.15,2.46,9.08,9.08,0,0,1-2,3.26,9.79,9.79,0,0,0,3.07.6,3.29,3.29,0,0,0,2.7-1.33,1.62,1.62,0,0,0,.1-.18A3.75,3.75,0,0,1,932.79,299.71Z"/></g><ellipse class="cls-16" cx="782.45" cy="441.47" rx="31.3" ry="5.18"/><path class="cls-24" d="M805.84,318.31c-.66-4.46-4.71-14.86-4.71-14.86h0c-.07-.3-.15-.61-.24-.91C798,292.67,794,291.81,794,291.81l-14.24-3.07a1.07,1.07,0,0,1,.31.29,1.81,1.81,0,0,0-.23,0,5.54,5.54,0,0,1-1.24-2.7,3.25,3.25,0,0,1-.07-.45,10,10,0,0,0,.18-14.17,9.35,9.35,0,0,0-1-.89l-.46-.34a2.25,2.25,0,0,0,.19-2.7c-1.12-2.33-3.56-3.8-6.06-4.52a10.31,10.31,0,0,0-5.9-.13,21.45,21.45,0,0,0-3.08,1.43c-1.89,1-4,1.69-5.4,3.25a1.6,1.6,0,0,0-.54,1.3,3.75,3.75,0,0,0,.54.95,2.84,2.84,0,0,1,0,2.37,21.86,21.86,0,0,0-.88,2.28,2.4,2.4,0,0,0,.47,2.29,10,10,0,0,0,.89.61,4.57,4.57,0,0,1,.85,1c.57.75,1.13,1.51,1.69,2.27a24.33,24.33,0,0,1,2.11,3.21,16,16,0,0,0,1.3,2.46,3.91,3.91,0,0,0,.57.58l-.17-.06a2.53,2.53,0,0,0,1.87.76h.09a.48.48,0,0,0,.34-.14V288a31.21,31.21,0,0,1-.05,3.35l-.13-.07a1.17,1.17,0,0,0-1.22.13l-13.11,10.52s-2.85,3.9-2.46,10.63l-2.29,10.1s-2.88,8.56-.67,14.67,3.49,9.62,3.49,9.62.89,6.94,2.21,7.51,1.9.87,1.9.87l.27,1.67h0l.24.43c1,1.68,4.55,7.61,6.62,7a25.63,25.63,0,0,1,.34,4.87l2.06,13.81s1.43,3.76,1.34,5.73,1.68,4.77,1.68,4.77a9.13,9.13,0,0,0-.89,6.42c.84,3.68,1.9,20.62,1.9,20.62l1.54,4.11-.05,4.81a4.5,4.5,0,0,1-.95,2.15c-1,1.08-.92,2.32-3.31,3.8s-3.91,2-3.91,4a5.55,5.55,0,0,1-.07.82c-.22,1.43-.65,2.21,3.75,2.63a11.6,11.6,0,0,0,8.62-2.89s.76-1.37,4.34-1.93c0,0,1.22-.07,1.29-1.15,0-.37,0-1.09,0-1.87a11.57,11.57,0,0,0-.4-3.34,7.81,7.81,0,0,1-.8-2.16h1s.92-6.95,0-11.45a18.57,18.57,0,0,1-.09-7.69l-.18-11.88a3.4,3.4,0,0,1-.26-3.63c1-2.32,0-13.76,0-13.76s.36-4.11,1.37-5.07,0-6,0-6.28l1.81,6.06s.79,12.06,2.48,14.24l.48,5.46s3.44,5,2.78,7.74.71,12.49.71,12.49v10s-1.55,4,.61,5.46l.92,0c-.3.28-.54.71-.9,1.08s-.65,2.05-.78,3.44c-.11,1.18-.15,2.2-.15,2.2a3.61,3.61,0,0,0,2.65,1.57c1.74.1,7.44,4.44,7.44,4.44a69,69,0,0,0,7.1-.3l.08,0a1.89,1.89,0,0,0,1.11-.89,2.34,2.34,0,0,0,.26-1.66,4.12,4.12,0,0,0-2.38-2.6c-3.77-2-4.33-3.85-4.33-3.85l-2.47-3.71h.35a15.83,15.83,0,0,1,2.48-8.35l-.18-19.44s1.1-6.69-.79-10.31c0,0-.16-3.85,1.11-5S798,374.7,798,374.7s-.61-6.41-1.33-12.25h0c3,2.83,6.07-7.36,6.59-9.17h.08l0-.13,0-.13h0s-.66-2.35-.18-1.87,1.68-1.31,1.68-1.31-.18-9.75,1.9-14.66S805.84,318.31,805.84,318.31Zm-8.89,6.2,0,0c.3,5.95-.06,18.65-.06,18.65s-.41,1.63-.85,3.54l-.31-12.06h0l-.3-11.36Zm-38-4.1s1.5,18.79,0,21.5a14.06,14.06,0,0,0-1.08,3.71c-.5-1.31-1.55-4.36-1.17-6,.48-2.09-1-7.6-1-7.73a12.92,12.92,0,0,1,.92-5.31c1-2.24.36-3.21.36-3.21S757.85,319.7,758.91,320.41Z"/><path class="cls-25" d="M762.57,362.72c-1.31,5.75-6.51-2.94-7.7-5-.15-.28-.24-.43-.24-.43l.57-2.65,3-1.23a8.46,8.46,0,0,1,1.33.87A8.05,8.05,0,0,1,762.57,362.72Z"/><path class="cls-25" d="M803,353.31a.38.38,0,0,1,0,.13.46.46,0,0,1,0,.13c-.51,1.8-3.54,11.91-6.47,9.1-3.21-3.06-1.65-10.15-1.65-10.15h0l6.74-.69,1.34,1.38h0Z"/><path class="cls-18" d="M799,403.07l.18,19.31a15.78,15.78,0,0,0-2.43,8.27l-8.72.35c-2.13-1.43-.61-5.42-.61-5.42v-9.94s-1.35-9.72-.7-12.41-2.73-7.66-2.73-7.66l-.48-5.42C781.9,388,781.12,376,781.12,376l-1.77-6c0,.26,1,5.3,0,6.23s-1.34,5-1.34,5,1,11.37,0,13.66a3.38,3.38,0,0,0,.26,3.6l.17,11.8a18.5,18.5,0,0,0,.09,7.63c.91,4.47,0,11.37,0,11.37h-9.35l0-4.82-1.52-4.07s-1-16.83-1.86-20.48a9.1,9.1,0,0,1,.86-6.37s-1.73-2.77-1.64-4.73-1.34-5.67-1.34-5.67l-2-13.71a26.32,26.32,0,0,0-1-7.8c-1.17-3.91-2.9-9-2.9-9l2,.18,9.88.88s24-1.62,25.1-.28a4.41,4.41,0,0,1,.45,1.4c1.08,4.85,2.51,20,2.51,20s2.9,11.84,1.66,13-1.1,5-1.1,5C800.13,396.42,799,403.07,799,403.07Z"/><path class="cls-26" d="M778.73,436.61c-.07,1.08-1.26,1.14-1.26,1.14-3.52.55-4.26,1.92-4.26,1.92a11.3,11.3,0,0,1-8.46,2.86c-4.32-.42-3.9-1.18-3.68-2.61a5.4,5.4,0,0,0,.07-.8c0-2,1.5-2.51,3.84-4s2.28-2.7,3.25-3.77a5.93,5.93,0,0,0,1.08-3.15c1.1-1.93,3.9.3,3.9.3.13.68,4.29.59,4.29.59a9,9,0,0,0,.84,2.34,12,12,0,0,1,.38,3.31C778.75,435.53,778.76,436.24,778.73,436.61Z"/><path class="cls-19" d="M778.73,436.61c-.07,1.08-1.26,1.14-1.26,1.14-3.52.55-4.26,1.92-4.26,1.92a11.3,11.3,0,0,1-8.46,2.86c-4.32-.42-3.9-1.18-3.68-2.61,1.93.48,5.62,1.15,7.78,0,3-1.63,5.14-2.76,5.14-2.76l4.73-2.38C778.75,435.53,778.76,436.24,778.73,436.61Z"/><path class="cls-26" d="M805.2,442.4a1.81,1.81,0,0,1-1.07.89l-.09,0a64.22,64.22,0,0,1-7,.31s-5.59-4.33-7.29-4.42a3.56,3.56,0,0,1-2.6-1.57s0-1,.14-2.17c.13-1.39.36-3,.77-3.42.75-.78.92-1.84,2.6-1.17,0,0,2.41-4.24,5.24-1l2.93,4.44s.55,1.84,4.26,3.84a4.09,4.09,0,0,1,2.34,2.59A2.3,2.3,0,0,1,805.2,442.4Z"/><path class="cls-19" d="M805.2,442.4l-1.07.89-.09,0a64.22,64.22,0,0,1-7,.31s-5.59-4.33-7.29-4.42a3.56,3.56,0,0,1-2.6-1.57s0-1,.14-2.17c1.72.51,4.33,1.42,5,2.4,1.07,1.5,4.33,3.58,4.33,3.58s6.08-.59,8.78-.66A2.3,2.3,0,0,1,805.2,442.4Z"/><path class="cls-25" d="M781.56,291.05l-8,8.46s-9.69-.72-8-3.58c.86-1.46,1-4.51.92-7.17s-.33-4.73-.33-4.73,13.59-6.77,12.56-.46a10.37,10.37,0,0,0,0,3.6A4.71,4.71,0,0,0,781.56,291.05Z"/><path class="cls-19" d="M778.7,283.57a10.62,10.62,0,0,0,0,3.6,10,10,0,0,1-7.11,3c-1.84,0-3.83-1.51-5.32-2.38-.07-2.57-.08-3.73-.08-3.73S779.74,277.26,778.7,283.57Z"/><path class="cls-25" d="M781.56,279.6a10,10,0,1,1-3.77-7.83A10,10,0,0,1,781.56,279.6Z"/><path class="cls-19" d="M795.19,354.79c-2.49,5.94-18.54,6.06-18.54,6.06v-6.47l-1-.06c.42,1.85-.59,6.37-.59,6.37-12.68,1.79-15.78-5.44-15.78-5.44l.45-2.47,9.88.88s24-1.61,25.1-.27A4.33,4.33,0,0,1,795.19,354.79Z"/><path class="cls-3" d="M776.65,360.07V353.6l-1-.06c.42,1.84-.59,6.37-.59,6.37-9.54,1.35-13.66-2.41-15.11-4.35a6.7,6.7,0,0,1-.67-1.08l3.88-21.79.92-32.08L765.5,295l.32-2.7v0h0l1,.42,5.91,2.55,6.71-5.07.09-.07.34-.25.55.44,1.38,1.11L786.24,320s7.67,22,9.1,30.87c.06.36.11.69.14,1C796.43,359.92,776.65,360.07,776.65,360.07Z"/><circle class="cls-27" cx="773.46" cy="295.86" r="0.57"/><circle class="cls-27" cx="773.73" cy="301.07" r="0.57"/><circle class="cls-27" cx="774.3" cy="309.49" r="0.57"/><circle class="cls-27" cx="775.24" cy="318.57" r="0.57"/><circle class="cls-27" cx="775.81" cy="327.09" r="0.57"/><circle class="cls-27" cx="776.38" cy="336.17" r="0.57"/><circle class="cls-27" cx="776.15" cy="345.14" r="0.57"/><path class="cls-19" d="M766.2,335.86s-.64,8.34-1.81,10.77-1.69,9.24-1.69,9.24l-2.72-.31a6.29,6.29,0,0,1-.67-1.08l3.88-21.79.92-32.07L765.5,295l.32-2.7,0,0a1.08,1.08,0,0,1,1,0l.13.06c0,.11-.07.23-.11.34a52,52,0,0,0-1.45,9.44s1.53,11.19,1.69,16.4S766.2,335.86,766.2,335.86Z"/><path class="cls-19" d="M759.51,354.26a2,2,0,0,1-.1.21c-1,1.78-3.73,2.91-4.54,3.22l-.24-.43.57-2.65,3-1.23A8.51,8.51,0,0,1,759.51,354.26Z"/><path class="cls-27" d="M752.29,311.67l-2.47,1.48-2.26,10s-2.82,8.5-.65,14.57,3.43,9.55,3.43,9.55.86,6.89,2.17,7.46,1.86.86,1.86.86l.26,1.65s3.53-1.2,4.78-3.31-.92-7.35-.92-7.35-1.86-4.47-1.39-6.55-1-7.55-1-7.67a13,13,0,0,1,.92-5.27c1-2.23.35-3.19.35-3.19l-.66-6.37Z"/><path class="cls-19" d="M795.4,352.92s-6.55,2.47-8.63.31-1.87-12.32-1.87-12.32-2-18.74-3.25-21.82-.61-25.28-.61-25.28-.85-2.88-1.59-3.63a.57.57,0,0,0-.15-.12l.25.05.89.19,1.38,1.11L786.24,320s7.66,22,9.1,30.87Z"/><path class="cls-19" d="M803,353.57h-.08c-.82.11-8.1,1-8.13-.53a4.53,4.53,0,0,1,0-.52l6.74-.69,1.34,1.37h0c0,.09,0,.17.06.23Z"/><path class="cls-27" d="M796,301.64l4.79,2.49s4,10.32,4.62,14.74c0,0,3,11.85.92,16.72s-1.87,14.55-1.87,14.55-1.17,1.78-1.65,1.3.18,1.87.18,1.87-8.18,1.08-8.21-.52,1.88-9.28,1.88-9.28.52-18.26-.22-21.13S796,301.64,796,301.64Z"/><path class="cls-19" d="M781.7,321.08s-2.7,6.59-3.56,7,.17,2.17.17,2.17S783.21,323.43,781.7,321.08Z"/><path class="cls-19" d="M780.09,298c0-.13-3.21,3.18-4.08,3.68S779.18,301.62,780.09,298Z"/><path class="cls-19" d="M771.07,320.56s-4.94,3.2-4.29,4.47S771.07,320.56,771.07,320.56Z"/><path class="cls-19" d="M780.05,367.23a26.39,26.39,0,0,0,10.75,3.37Z"/><path class="cls-19" d="M769.94,373.74s3.9,4.9,5.68,5S769.94,373.74,769.94,373.74Z"/><path class="cls-19" d="M775.41,393c-.18.09-2.22,4.43-4.29,4.56S775.41,393,775.41,393Z"/><path class="cls-19" d="M793.49,402.46s3.87-.87,4.73,1.9C798.22,404.35,798,403.49,793.49,402.46Z"/><path class="cls-19" d="M790.89,418.32s4.68-1,5.68.35S790.89,418.32,790.89,418.32Z"/><path class="cls-19" d="M777.63,420.54s-4.77,1-4.6,1.56,5.09.52,5.27-.43a.93.93,0,0,0-.66-1.13Z"/><path class="cls-19" d="M789.33,424.65s7.84-.95,7.35.7S789.33,424.65,789.33,424.65Z"/><path class="cls-19" d="M755.5,341.51s-4.25,1.35-4,3.37S751.12,343.94,755.5,341.51Z"/><path class="cls-19" d="M753.52,351.83s1.55-2.12,3-1.73S753.52,351.83,753.52,351.83Z"/><path class="cls-19" d="M777.79,271.77a2,2,0,0,1-.49.37c-1.23.72-1.57,1.82-2.15,3.09a6.58,6.58,0,0,1-2.23,3c-1.42.85-3.28.53-4.74,1.28a3.68,3.68,0,0,0-2,3.62,11.53,11.53,0,0,0,.42,1.66,11.93,11.93,0,0,1,.45,3.61v.11A10,10,0,1,1,776,270.64a9.74,9.74,0,0,1,1.78,1.13Z"/><path class="cls-28" d="M777.53,268.76a9.19,9.19,0,0,0-5.95-4.49,9.94,9.94,0,0,0-5.79-.13,21.83,21.83,0,0,0-3,1.42c-1.86.94-3.9,1.68-5.3,3.22a1.62,1.62,0,0,0-.53,1.3,3.48,3.48,0,0,0,.53.93,2.86,2.86,0,0,1,0,2.36,24,24,0,0,0-.86,2.27,2.37,2.37,0,0,0,.47,2.27,8.52,8.52,0,0,0,.87.61,4.63,4.63,0,0,1,.83.94l1.66,2.27a22.23,22.23,0,0,1,2.07,3.18,15.2,15.2,0,0,0,1.28,2.43,2.77,2.77,0,0,0,2.32,1.24.44.44,0,0,0,.37-.17.46.46,0,0,0,0-.23,11.81,11.81,0,0,0-.44-3.6,11.53,11.53,0,0,1-.42-1.66,3.69,3.69,0,0,1,2-3.62c1.48-.75,3.34-.43,4.75-1.28a6.53,6.53,0,0,0,2.23-3.07c.59-1.27.92-2.37,2.15-3.08A2.15,2.15,0,0,0,777.53,268.76Z"/><path class="cls-19" d="M773.05,432.51s1.53,1.95,1.13,3.07S773.05,432.51,773.05,432.51Z"/><path class="cls-19" d="M793.78,437.4s.34-2.62,1.71-2.64A4.42,4.42,0,0,1,798,435c1,.4,2,1,1.71,1.11s-1.8-1.49-3.32-.68A10.83,10.83,0,0,0,793.78,437.4Z"/><path class="cls-19" d="M768.47,298.51l4.29-3s-6.27-3.71-7-3.19-1.26,5.21-1.26,5.21Z"/><path class="cls-29" d="M768.45,298.32l4.3-3.06s-6.28-3.71-7-3.19-1.26,5.47-1.26,5.47Z"/><path class="cls-3" d="M768.45,298.32l4.3-3.06s-6.28-3.71-7-3.19-1.26,5.47-1.26,5.47Z"/><path class="cls-27" d="M766.43,292.09l-.13-.06a1.11,1.11,0,0,0-1.2.12L752.23,302.6s-2.8,3.87-2.41,10.55l7.59,10.75s.87-3.64,1.9-2.95c0,0,1.48,18.65,0,21.34S757.19,355,757.19,355l5,.57s.52-6.81,1.69-9.24,1.81-10.78,1.81-10.78,1.05-12.12.88-17.32-1.69-16.4-1.69-16.4S765.29,295.31,766.43,292.09Z"/><path class="cls-19" d="M779.26,296.61l-5.35-2s6.81-7.46,7.66-3.32Z"/><path class="cls-29" d="M779.26,296.35l-5.35-2s6.81-7.46,7.66-3.32Z"/><path class="cls-3" d="M779.26,296.35l-5.35-2s6.81-7.46,7.66-3.32Z"/><path class="cls-19" d="M779.08,290a.28.28,0,0,1,.22,0Z"/><path class="cls-27" d="M779.6,289.49l14.19,3.06s3.9.87,6.72,10.67S796.65,325,796.65,325l-1.47-1.25.73,28.62s-6.55,2.47-8.63.31-1.86-12.33-1.86-12.33-2-18.73-3.26-21.81-.61-25.29-.61-25.29S780.39,289.32,779.6,289.49Z"/><path class="cls-19" d="M792.58,307.73c-.2.18-.43,8.84.44,15.44a83.2,83.2,0,0,0,2.45,11.88l-1.29-26.41S793.19,307.16,792.58,307.73Z"/><path class="cls-19" d="M790.84,300.27c.35.21,1.87,3.81,1.18,5.29S790.84,300.27,790.84,300.27Z"/><path class="cls-19" d="M777.45,268.76a7.81,7.81,0,0,0-3.12-3.27,7.35,7.35,0,0,1,2.34,2.76,2.18,2.18,0,0,1-.76,3.12c-1.19.67-1.56,1.81-2.15,3.08a6.74,6.74,0,0,1-2.23,3.07c-1.41.85-3.27.53-4.75,1.28a3.7,3.7,0,0,0-2,3.63,11.73,11.73,0,0,0,.42,1.65,11.62,11.62,0,0,1,.45,3.61.46.46,0,0,1-.05.23.43.43,0,0,1-.36.18,2.18,2.18,0,0,1-1.07-.2,2.5,2.5,0,0,0,1.84.72.37.37,0,0,0,.41-.31v-.1a11.62,11.62,0,0,0-.45-3.61,10.35,10.35,0,0,1-.42-1.66,3.69,3.69,0,0,1,2-3.62c1.47-.74,3.34-.43,4.75-1.28a6.53,6.53,0,0,0,2.23-3.07c.59-1.26.92-2.36,2.15-3.08A2.18,2.18,0,0,0,777.45,268.76Z"/><ellipse class="cls-16" cx="714.19" cy="440.69" rx="41.6" ry="5.18"/><path class="cls-19" d="M743.46,301.42c0,.13,5.17.82,5.86,2.47,0,0-5-2.34-5.83-2.34"/><path class="cls-30" d="M691.23,443.63s7,1.92,10.38-.63,4.83-1.74,4.83-1.74,8-.44,8.7-2.34-3.08-8.81-3.08-8.81c-.27-.61-.66-1.39-.83-1.39l0-2.91h0l1.16-12.18c2.69-6.9.05-15.8.05-15.8l-.48-2.21a5.64,5.64,0,0,1,.45-3.68l4.89-9.81a14.22,14.22,0,0,1,.92-1.88c.3-.56.71-1.25,1.22-2.09l.48-.74c.59-.92,1.31-2,2.18-3.17a25.68,25.68,0,0,0,3.88-9.5l.26.87h.25l.12,0h.05l1.5,19.12c.09,7.45,2.83,11.58,2.83,11.58l-.38,16.45c.52,4-.61,9.25-1.13,11.36l-1.18,2.67a3.2,3.2,0,0,0-1.74,2.43c-.24,2-2.31,6.22-2.31,6.22-.8,1-2.55,3.76-2.55,3.76s-.82,2.66-.31,3.65,4.76.89,4.76.89c4.86,1.08,8.58-1.53,8.35-3.33s.76-2.25.76-2.25c1.93-.61,1.74-1.92,1.74-1.92a12,12,0,0,0-1.46-7.83l-.31.71a11,11,0,0,1,.58-4.18l-.17.12-.06,0h0c.31-2.69,3.13-7.67,3.13-7.67,5.19-9.09,3.3-21.42,3.3-21.42l-.8-3.84-.05-1.45a49,49,0,0,1,.78-10.33c.28-1.51.57-3.33.79-5.34a47.48,47.48,0,0,1,2.66-10.47l.21,0h0l.86-.15h0s.17-.9.31-2.42c.08-1,.15-2.2.15-3.62a40.77,40.77,0,0,0-1.93-12.6l.15-.22s.37-.51,1-1.38h0c1.24-1.58,3.18-4,5.57-6.69,4.28-4.88,3-9.81,3-9.81s-3.1-11.34-4.48-18.15a20.53,20.53,0,0,0-3.39-8.08,16.37,16.37,0,0,0,.43-3.27,12,12,0,0,0-.89-5.94,5.1,5.1,0,0,0-4.85-3,1.83,1.83,0,0,1-.87,0,1.28,1.28,0,0,1-.58-.5,7.55,7.55,0,0,1-.89-5.79c.37-2,1.13-3.86,1.46-5.84a7.2,7.2,0,0,0-1.07-5.74c-1.48-1.84-4.06-2.36-6-3.74-1.35-1-2.37-2.37-3.79-3.23s-2.76-.53-4.31-.21c-2.6.55-5.07.8-7.53,1.92a19.93,19.93,0,0,0-6.57,4.78,6.12,6.12,0,0,0-1.47,2.31c-.61,2,.59,4.18.34,6.28a12.6,12.6,0,0,1-1.75,4.11,5.28,5.28,0,0,0-.68,4.29c.85,2.17,3.65,2.63,5.69,3.78a1.82,1.82,0,0,1,.67.59c.5.87-.52,1.78-1.17,2.56a4,4,0,0,0-.77,1.56,5.55,5.55,0,0,0-3.33,4c-.69,3.09.37,7,1.31,9.56-1,5.73.31,8,1.28,8.86a4.94,4.94,0,0,1,1.71,3.36v.1c.06,1,.17,2.08.32,3.12h0c0-.24-.07-.5-.09-.61-.8,1.48-2.32,5.26-3.18,11.62a36.62,36.62,0,0,1-.77,4,21.82,21.82,0,0,0-.65,7.24l.15,2.06a.64.64,0,0,1-.42-.13l1.08,2v3.32a12.21,12.21,0,0,1-.82,4.39c-.07.2-.16.4-.24.61a3.53,3.53,0,0,0-.37,1.81c-2.31,3.54-7.62,23.42-7.62,23.42-2.87,6.51.24,10.72.24,10.72S702.52,414,702.8,415s.91,12,.91,12h0v.88a2.46,2.46,0,0,0-.53-.15c-2.52-.14-3.2,3.84-3.2,3.84l-5.16,4.93s-2.36-.4-5.83,2.21S691.23,443.63,691.23,443.63Zm51.54-104.85v-.06l-.15.09h0l-.05,0,0,0h0l-2.38-8.4a13.79,13.79,0,0,1-.17-6.9l1.83-8.06h0v-1.93l5.85,15.57C748,331.24,744.56,336.33,742.77,338.78Z"/><path class="cls-31" d="M745.34,364.12a48.23,48.23,0,0,0-3,11.25c-.22,2-.5,3.78-.78,5.27a48.4,48.4,0,0,0-.75,10.2l0,1.43.77,3.79s1.84,12.18-3.24,21.15c0,0-3,5.37-3.1,7.91l-2,.79-4.12-1.15s2-7.14,1.34-12.13l.37-16.25s-2.67-4.06-2.77-11.42l-1.57-20.19Z"/><path class="cls-31" d="M726.53,361.24s-.5,7.87-4.4,13.3-4.72,7.78-4.72,7.78L712.62,392a5.61,5.61,0,0,0-.45,3.63l.47,2.18s2.59,8.79,0,15.6l-1.25,13.15H704s-.61-10.93-.88-11.85-1.76-18.85-1.76-18.85-3.06-4.16-.23-10.6c0,0,6.39-24.07,8.1-23.66S726.53,361.24,726.53,361.24Z"/><g class="cls-15"><path d="M711.9,397.83l-.47-2.18a5.52,5.52,0,0,1,.45-3.64l4.79-9.7s.83-2.36,4.72-7.78c3.74-5.21,4.35-12.68,4.4-13.25l.74,0s-.5,7.87-4.4,13.3-4.72,7.78-4.72,7.78L712.62,392a5.61,5.61,0,0,0-.45,3.63l.47,2.18s2.59,8.79,0,15.6l-1.25,13.15h-.75l1.25-13.15C714.49,406.61,711.9,397.83,711.9,397.83Z"/></g><path class="cls-19" d="M734.59,425.13c.09-2.54,3.1-7.91,3.1-7.91,5.09-9,3.24-21.15,3.24-21.15l-.79-3.8,0-1.43a48.5,48.5,0,0,1,.75-10.2c.28-1.49.56-3.28.77-5.27a47.63,47.63,0,0,1,3-11.22l.76,0a48.23,48.23,0,0,0-3,11.25c-.22,2-.5,3.78-.78,5.27a48.4,48.4,0,0,0-.75,10.2l0,1.43.77,3.79s1.84,12.18-3.24,21.15c0,0-3,5.37-3.1,7.91l-2,.79-.43-.12Z"/><path class="cls-32" d="M732.23,425a3.51,3.51,0,0,0,3.37-.42,10.9,10.9,0,0,0-.28,6.12c.84,3.33-7.78-2.69-7.78-2.69l1.84-4.2A2.89,2.89,0,0,0,732.23,425Z"/><path class="cls-19" d="M732.87,425.23a3.45,3.45,0,0,0,2.73-.61,10.86,10.86,0,0,0-.27,6.11c.83,3.33-7.78-2.69-7.78-2.69l1.84-4.2a2.62,2.62,0,0,0,2.1,1.18C732,425.08,732.42,425.14,732.87,425.23Z"/><polygon class="cls-31" points="712.69 347.15 716.29 347.15 716.29 326.73 713.59 326.25 712.69 347.15"/><polygon class="cls-33" points="712.69 347.15 716.29 347.15 716.29 326.73 713.59 326.25 712.69 347.15"/><path class="cls-34" d="M730.19,426.62a3.58,3.58,0,0,1,3.28,1.89l1.26,1,.61-1.44a11.91,11.91,0,0,1,1.41,7.73s.19,1.3-1.71,1.9c0,0-1,.46-.74,2.22s-3.42,4.36-8.19,3.29c0,0-4.17.09-4.68-.88s.32-3.56.32-3.56,1.72-2.72,2.5-3.72c0,0,2-4.2,2.27-6.13S729,425.55,730.19,426.62Z"/><path class="cls-32" d="M711.42,428.33l0-2.88s-4.14,1.19-7.49-.15c0,0,.28,2.89-.19,3.28s1.56,4.12,1.56,4.12l2.25,2.36,3.87-1.41,1-3.31S711.69,428.33,711.42,428.33Z"/><path class="cls-19" d="M711.42,428.33l0-2.88s-4.14,1.19-7.49-.15c0,0,.28,2.89-.19,3.28s1.56,4.12,1.56,4.12l2.25,2.36,3.87-1.41,1-3.31S711.69,428.33,711.42,428.33Z"/><path class="cls-34" d="M703.52,427.29s2.2.25,1.92,3.06.12,0,.12,0a8.06,8.06,0,0,1,3.17,2.27c.83,1.32,2.34-1.18,2.45-1.9s1.05-1,1.05-1,3.68,6.82,3,8.7-8.54,2.3-8.54,2.3-1.44-.81-4.75,1.72-10.19.61-10.19.61-5.6-2.34-2.19-4.9S695.3,436,695.3,436l5.07-4.89S701,427.15,703.52,427.29Z"/><path class="cls-35" d="M729.8,266.06c1.4.85,2.4,2.23,3.73,3.19,1.88,1.37,4.42,1.87,5.87,3.69a7.23,7.23,0,0,1,1.06,5.68c-.33,1.95-1.08,3.82-1.43,5.77a7.47,7.47,0,0,0,.87,5.72,1.33,1.33,0,0,0,.56.49,1.79,1.79,0,0,0,.86,0,5,5,0,0,1,4.76,3,15.5,15.5,0,0,1-.11,10.63c-1.22,2.5-3.77,4.05-6.29,5.23a47.45,47.45,0,0,1-5,2A7.53,7.53,0,0,1,731,312c-2.1-.36-3.58-2.27-5.57-3a11.78,11.78,0,0,0-5.16-.24c-1.48.13-3.17.13-4.18-.95-1.31-1.39-.72-3.62-.05-5.41a3.85,3.85,0,0,1-3.6-4.08,3.9,3.9,0,0,1,.87-2.21c.64-.77,1.64-1.66,1.15-2.53a1.68,1.68,0,0,0-.66-.58c-2-1.14-4.75-1.59-5.59-3.73a5.3,5.3,0,0,1,.67-4.25,12.66,12.66,0,0,0,1.72-4.05c.24-2.07-.92-4.2-.33-6.2a6.31,6.31,0,0,1,1.44-2.29,19.67,19.67,0,0,1,6.43-4.71c2.42-1.11,4.85-1.36,7.4-1.9C727.1,265.54,728.37,265.19,729.8,266.06Z"/><path class="cls-31" d="M716.28,296.92s-5.86-.31-7,4.69,2.41,12.16,2.41,12.16Z"/><path class="cls-33" d="M716.28,296.92s-5.86-.31-7,4.69,2.41,12.16,2.41,12.16Z"/><path class="cls-31" d="M712.54,311.8l2.22,1.76,10.37.46,6.48-4.44,6.58-11.3a8.14,8.14,0,0,1-6.26-6.41,14,14,0,0,1-.13-5.35s-10.55-5.47-9.26,3.06a11.62,11.62,0,0,1,.1,3.17c-.61,5-5.46,4.06-5.46,4.06l-1.86,2.87-2.13,7.05Z"/><path class="cls-19" d="M722.55,289.57a11.62,11.62,0,0,1,.1,3.17,9.35,9.35,0,0,0,9.29-.87,14,14,0,0,1-.13-5.35S721.25,281.05,722.55,289.57Z"/><circle class="cls-31" cx="726.54" cy="283.87" r="9.35"/><path class="cls-3" d="M719.92,310c.23,0,.45,0,.68.06,1.22.12,6.35.4,9.26-3.09,3.27-3.9,7.61-8.71,7.79-8.91h0l4.43,1.34s-3.51-1.25-5.83,5.26a6.74,6.74,0,0,0,2.28,7.76,7.14,7.14,0,0,0,2.89,1.23s0,0,0,0v2.86h0l-1.81,8a13.82,13.82,0,0,0,.18,6.82l2.75,9.75h0c-.41.29-17.53,11.93-29,3.89h0c0-.35,1.46-11.79.47-17.39a39.33,39.33,0,0,1-.51-4.33v-.11a4.88,4.88,0,0,0-1.67-3.31c-1-.92-2.43-3.37-1-9.85a24.08,24.08,0,0,1,1.53-4.67l3.84-8.66h0l3.53.07m0,0c-.3.38-4.4,5.5-4.85,8.8-.43,3.13-1,4.1,5,4.48Z"/><path class="cls-31" d="M745.05,300.93s3.46,3,4.82,9.69,4.38,17.91,4.38,17.91a11.41,11.41,0,0,1-3,9.69c-4.19,4.81-7,8.58-7,8.58l-2.76,4.06a3.41,3.41,0,0,1-2,1.41,6.7,6.7,0,0,1-4.86-.35,2.81,2.81,0,0,1-1.22-3.57l.61-1.42s-5.68,3.58-6.17,1.6,6.6-3.95,6.6-3.95,5.87-1,7.05-3.77c0,0,6.3-8.08,5.8-10.86l-6.08-16.3s-7.6-1-5-9.55S745.05,300.93,745.05,300.93Z"/><path class="cls-36" d="M708.69,362.42s13.89,2.77,17.16,2.4l.36,1.18s5.27,1.18,17.19-.71c.78-.13,1.59-.26,2.42-.42l.28-.05a24,24,0,0,0,.29-2.38,41.25,41.25,0,0,0-2-16.81l-2-6.18s-12.39,7.43-20.59,6.75c-.73-.06-1.46-.12-2.19-.15-1.69-.06-4.29,0-6-1.36l-3.55.62v10.11a12.31,12.31,0,0,1-.81,4.33c-.07.2-.15.4-.24.61A3.2,3.2,0,0,0,708.69,362.42Z"/><path class="cls-19" d="M726.2,362.85V366s6.07,1.35,19.9-1.18c0,0,.16-.88.29-2.38C742.15,363.12,730.45,364.75,726.2,362.85Z"/><path class="cls-19" d="M708.69,362.42s13.89,2.77,17.16,2.4l.36,1.18v-3.15c-1.58.65-12.88-2.07-17-3.09-.07.2-.15.4-.24.62A3.19,3.19,0,0,0,708.69,362.42Z"/><path class="cls-36" d="M742.37,358.91l1,6.38c.77-.12,1.58-.26,2.42-.41-.32-1.87-1-6.13-.83-6.84l-1.3-1.11Z"/><path class="cls-19" d="M742.51,358.77l1,6.39c.78-.12,1.59-.26,2.42-.41-.32-1.87-1-6.13-.83-6.84l-1.29-1.11Z"/><g class="cls-37"><path d="M721,346.19c-.73-.06-1.46-.12-2.19-.14-1.63-.06-4.13,0-5.84-1.25l.6-.11c1.7,1.35,4.29,1.29,6,1.36.74,0,1.46.08,2.2.14.23,0,.48,0,.73,0A12.19,12.19,0,0,1,721,346.19Z"/><path d="M742.65,365.29c.78-.13,1.59-.26,2.43-.42l.28-.05s.16-.88.29-2.38a41.25,41.25,0,0,0-2-16.81l-1.89-5.83c.4-.22.61-.36.61-.36l2,6.18a41.6,41.6,0,0,1,2,16.81c-.13,1.5-.29,2.38-.29,2.38l-.28.06-2.43.41a77.1,77.1,0,0,1-12.49,1.07A79.7,79.7,0,0,0,742.65,365.29Z"/><path d="M725.11,364.82v0h-.4Z"/></g><ellipse class="cls-32" cx="744.09" cy="359.02" rx="0.52" ry="1.08"/><path class="cls-31" d="M710.64,337.17c.85-6.28,2.34-10,3.13-11.48,0,.2.11.85.14,1.05A30.46,30.46,0,0,1,714,330l-.78,14.2,1,4.45c1,3.52-2.67.74-2.67.74a2.17,2.17,0,0,1-2.15,1.48l-.19-2.55a22.08,22.08,0,0,1,.64-7.15A33.43,33.43,0,0,0,710.64,337.17Z"/><path class="cls-33" d="M710.64,337.17c.85-6.28,2.34-10,3.13-11.48,0,.2.11.85.14,1.05A30.46,30.46,0,0,1,714,330l-.78,14.2,1,4.45c1,3.52-2.67.74-2.67.74a2.17,2.17,0,0,1-2.15,1.48l-.19-2.55a22.08,22.08,0,0,1,.64-7.15A33.43,33.43,0,0,0,710.64,337.17Z"/><path class="cls-31" d="M745.82,344.84l-1,1.35L742,350.25a3.41,3.41,0,0,1-2,1.41,6.72,6.72,0,0,1-4.87-.35,2.81,2.81,0,0,1-1.22-3.57l.61-1.42s-5.68,3.58-6.17,1.6S735,344,735,344s5.87-1,7-3.77c0,0,.52-.65,1.23-1.66"/><path class="cls-36" d="M742.37,351.65s-6.72-.66-8.85-4.5l-1,3.18s7.05,4.86,8.66,4.23Z"/><path class="cls-19" d="M742.13,351.62s-6.72-.66-8.85-4.5l-1,3.16s7.05,4.87,8.66,4.24Z"/><path class="cls-36" d="M711.8,349.85s-2.35.84-2.82.37l1.06,1.95,2-1.53Z"/><path class="cls-19" d="M711.8,349.85s-2.35.84-2.82.37l1.06,1.95,2-1.53Z"/><polygon class="cls-19" points="726.2 362.85 726.2 358.79 725.24 362.95 726.2 362.85"/><path class="cls-19" d="M735.73,278.93a3.61,3.61,0,0,1-2.52,1.32,19.11,19.11,0,0,1-2.93,0,7.41,7.41,0,0,0-4.42,1.12,11.1,11.1,0,0,0-2,2.14c-1.9,2.32-4.53,4.48-7.51,4.24a1.94,1.94,0,0,1-1.4-.59,2.25,2.25,0,0,1-.35-1.27,28.69,28.69,0,0,1,.18-5.71,12.19,12.19,0,0,1,.86-3.42,11.8,11.8,0,0,1,2.08-3,12.63,12.63,0,0,1,3.63-2.91,6.48,6.48,0,0,1,4.53-.58c1.79.48,3.18,1.88,4.89,2.6C732.69,273.73,737.86,275.91,735.73,278.93Z"/><path class="cls-35" d="M735.73,278.56a3.61,3.61,0,0,1-2.52,1.32,19.11,19.11,0,0,1-2.93,0,7.41,7.41,0,0,0-4.42,1.11,11.15,11.15,0,0,0-2,2.15c-1.9,2.31-4.53,4.48-7.51,4.24a1.94,1.94,0,0,1-1.4-.59,2.28,2.28,0,0,1-.35-1.27,28.79,28.79,0,0,1,.18-5.72,12.21,12.21,0,0,1,.86-3.41,11.8,11.8,0,0,1,2.08-3,12.46,12.46,0,0,1,3.63-2.91,6.48,6.48,0,0,1,4.53-.59c1.79.49,3.18,1.89,4.89,2.61C732.69,273.36,737.86,275.54,735.73,278.56Z"/><polygon class="cls-31" points="713.6 344.69 713.58 345.81 713.33 344.74 713.6 344.69"/><polygon class="cls-33" points="713.6 344.69 713.58 345.81 713.33 344.74 713.6 344.69"/><g class="cls-37"><path d="M737.24,303.52c-2.6,8.54,5,9.54,5,9.54l6.08,16.3c.49,2.78-5.8,10.87-5.8,10.87a5.43,5.43,0,0,1-2.73,2.4,4.22,4.22,0,0,0,1.62-1.78s6.29-8.08,5.8-10.86l-6.08-16.3s-7.57-1-5-9.54c.86-2.86,2.14-4.16,3.43-4.62A7.86,7.86,0,0,0,737.24,303.52Z"/></g><g class="cls-15"><path d="M737.37,311.28a6.38,6.38,0,0,0,1.22,1.16,7.12,7.12,0,0,0,2.9,1.23h0V314a7.06,7.06,0,0,1-2.63-1.16A6.27,6.27,0,0,1,737.37,311.28Z"/><path d="M713.85,323.5v.11a39.85,39.85,0,0,0,.53,4.34c.92,5.28-.29,15.78-.46,17.23l-.3-.2h0c0-.35,1.46-11.79.47-17.39a39.33,39.33,0,0,1-.51-4.33v-.1a4.75,4.75,0,0,0-.82-2.35A4.75,4.75,0,0,1,713.85,323.5Z"/><path d="M719.5,297.05l-3-.05h0l-3.83,8.66a23.86,23.86,0,0,0-1.53,4.67c-1.12,5.24-.42,7.85.44,9.14-1-1.13-1.95-3.71-.72-9.5a23.18,23.18,0,0,1,1.52-4.67l3.86-8.67h0l3.53.08m0,0-.25.32Z"/><path d="M742.08,299.41h0Z"/><path d="M741,299.36l-3-.91m0,0c-.18.2-4.53,5-7.79,8.91-2.92,3.49-8,3.21-9.27,3.09l-.67-.06c-3.35-.21-4.67-.61-5.11-1.46.63.62,2,.92,4.83,1.1.23,0,.45,0,.68.05,1.22.12,6.34.4,9.26-3.09,3.27-3.9,7.61-8.71,7.79-8.91h0l4.37,1.33a2.62,2.62,0,0,0-1.08-.05Z"/></g><path class="cls-19" d="M705.42,431.74s-4.23,1.16-5-.66"/><path class="cls-19" d="M732.27,430.87s-4.9,1.27-6-.69"/><path class="cls-38" d="M366.78,198.09v36.24a1.26,1.26,0,0,1-1.26,1.26h-.9V424.36a19.7,19.7,0,0,1-19.7,19.7H227a19.69,19.69,0,0,1-19.69-19.69h0V242.21h-.65a.89.89,0,0,1-.9-.88V220.7a.89.89,0,0,1,.9-.89h.65V212h-.66a.93.93,0,0,1-.93-.94V190.76a.93.93,0,0,1,.93-.93h.66V179.22h-.67a.83.83,0,0,1-.83-.82h0V167.3a.84.84,0,0,1,.83-.84h.67V144A19.69,19.69,0,0,1,227,124.29h118A19.7,19.7,0,0,1,364.62,144v52.85h.9A1.27,1.27,0,0,1,366.78,198.09Z"/><rect class="cls-39" x="271.06" y="134.39" width="21.97" height="4.46" rx="1.4"/><circle class="cls-39" cx="298.88" cy="136.63" r="2.53"/><path class="cls-40" d="M355.18,147.88V426a12.49,12.49,0,0,1-12.49,12.49H229.78A12.48,12.48,0,0,1,217.28,426V147.88a12.5,12.5,0,0,1,12.5-12.5h16.9v2.17A10.29,10.29,0,0,0,257,147.84h57.42a10.29,10.29,0,0,0,10.29-10.29v-2.17h18a12.49,12.49,0,0,1,12.49,12.49Z"/><path class="cls-2" d="M297.48,397.08h0a6.29,6.29,0,1,0,6.29-6.28A6.29,6.29,0,0,0,297.48,397.08Zm14.44-55.57-3,6.28H262.35a3,3,0,0,0-3.05,3,3.72,3.72,0,0,0,.32,1.58l11.31,19.45a6.15,6.15,0,0,0,5.5,3.29h23.4l3.14,5a3.8,3.8,0,0,1,.33.78v.09a.75.75,0,0,1-.79.7h-36v6h36.73c3.9,0,6.78-2.08,6.78-6.28a6,6,0,0,0-.79-3l-4.73-7.69,11.31-22.91h6.28v-6.28Zm-45.37,55.57a6.29,6.29,0,1,0,6.29-6.28A6.28,6.28,0,0,0,266.55,397.08Z"/><polygon class="cls-3" points="280.88 358.89 286.14 358.89 286.14 353.62 290.1 353.62 290.1 358.89 295.36 358.89 295.36 362.84 290.1 362.84 290.1 368.11 286.14 368.11 286.14 362.84 280.88 362.84 280.88 358.89"/><rect class="cls-7" x="229.45" y="192.28" width="46.99" height="29.53"/><rect class="cls-8" x="294.51" y="192.28" width="46.99" height="29.53"/><rect class="cls-7" x="229.45" y="234.5" width="46.99" height="29.53"/><rect class="cls-7" x="294.51" y="234.5" width="46.99" height="29.53"/><rect class="cls-7" x="229.45" y="276.71" width="46.99" height="29.53"/><rect class="cls-7" x="294.51" y="276.71" width="46.99" height="29.53"/></g></g></svg>