<svg xmlns="http://www.w3.org/2000/svg" xmlns:xlink="http://www.w3.org/1999/xlink" viewBox="0 0 376 393.58"><defs><style>.cls-1{fill:none;}.cls-2{fill:#fff;}.cls-3{clip-path:url(#clip-path);}</style><clipPath id="clip-path"><circle class="cls-1" cx="188" cy="188" r="176"/></clipPath></defs><title>raisehand</title><g id="Layer_2" data-name="Layer 2"><g id="Layer_1-2" data-name="Layer 1"><path class="cls-2" d="M188,30A158,158,0,0,1,299.72,299.72,158,158,0,1,1,76.28,76.28,156.93,156.93,0,0,1,188,30m0-30C84.17,0,0,84.17,0,188S84.17,376,188,376s188-84.17,188-188S291.83,0,188,0Z"/><g class="cls-3"><path class="cls-2" d="M172.13,223a52.35,52.35,0,1,0-52.35-52.35A52.4,52.4,0,0,0,172.13,223Z"/><path class="cls-2" d="M127.62,233.44A36.5,36.5,0,0,0,91.11,270V386.56a7,7,0,0,0,7,7h148a7,7,0,0,0,7-7V271a22.54,22.54,0,0,0,1.63-3.43l28.64-75.83a22.4,22.4,0,0,0,1.46-7.95V98.66a22.47,22.47,0,1,0-44.93,0v81s-3.37,24.58-26.85,43.39S127.62,233.44,127.62,233.44Z"/></g></g></g></svg>