<?xml version="1.0" encoding="utf-8"?>
<!-- Generator: Adobe Illustrator 23.0.6, SVG Export Plug-In . SVG Version: 6.00 Build 0)  -->
<svg version="1.1" id="Capa_1" xmlns="http://www.w3.org/2000/svg" xmlns:xlink="http://www.w3.org/1999/xlink" x="0px" y="0px"
	 viewBox="0 0 467.3 467.3" style="enable-background:new 0 0 467.3 467.3;" xml:space="preserve">
<style type="text/css">
	.st0{fill:#FFFFFF;}
</style>
<g>
	<g>
		<path class="st0" d="M379.3,51.1c-31-26.8-69.7-37.7-109.7-42.5C163.1-25.3,68.1,45,26.6,142.4c-44.7,105-23.4,222.2,73.5,287.7
			c99,66.8,235,39.4,311-48.6C494,285.3,473.5,132.7,379.3,51.1z M196.8,432.7c-56.2-8-110.6-42.5-139.1-91.8
			c-25.4-44-25.2-99.2-13.8-147.3c17.5-74,70.6-140.7,139.9-156.7c0.1,0,0.2,0,0.3,0c24.9,0.7,51.3,0.8,77,3.6
			c2.4,0.8,4.9,1.5,7.3,2.4c4.1,1.5,7.6,1.3,10.6,0.1c27.8,4.7,54.3,13.6,77,31.4c50.1,39.4,76.5,110.5,75,172.7
			C428.4,364.4,308,448.5,196.8,432.7z"/>
		<path class="st0" d="M169.3,211.9c23.3,0,23.3-36.1,0-36.1C146,175.8,146,211.9,169.3,211.9z"/>
		<path class="st0" d="M293.8,213.7c23.3,0,23.3-36.1,0-36.1C270.6,177.6,270.6,213.7,293.8,213.7z"/>
		<path class="st0" d="M302.7,275c-43.2,43-99,38.7-142.4-1.8c-17-15.9-42.6,9.6-25.5,25.5c57.6,53.9,136.1,58.8,193.4,1.8
			C344.8,284.1,319.3,258.5,302.7,275z"/>
	</g>
</g>
</svg>
