<svg xmlns="http://www.w3.org/2000/svg" xmlns:xlink="http://www.w3.org/1999/xlink" viewBox="0 0 1733.42 959.71"><defs><style>.cls-1,.cls-21{fill:none;}.cls-2,.cls-3{fill:#6c63ff;}.cls-2{opacity:0.5;}.cls-4{fill:#fff;}.cls-5{fill:#ffd551;}.cls-6{fill:#bf6c0d;}.cls-7{fill:#ffc34c;}.cls-8{fill:#ff5039;}.cls-9{fill:#ffc1c7;}.cls-10{fill:#192534;}.cls-11{fill:#2f2e41;}.cls-12{fill:#ce9fa6;}.cls-13{fill:#3f3d56;}.cls-14{opacity:0.1;isolation:isolate;}.cls-15{clip-path:url(#clip-path);}.cls-16{fill:#af412e;}.cls-17{clip-path:url(#clip-path-3);}.cls-18{fill:#ffb8b8;}.cls-19{fill:#fbb03b;}.cls-20{fill:#c1272d;}.cls-21{stroke:#f15a24;stroke-width:3px;}</style><clipPath id="clip-path"><rect class="cls-1" x="709.15" y="50.27" width="407.92" height="296.45"/></clipPath><clipPath id="clip-path-3"><rect class="cls-1" x="1270.15" y="49.27" width="407.92" height="296.45"/></clipPath></defs><title>Asset 6</title><g id="Layer_2" data-name="Layer 2"><g id="Layer_1-2" data-name="Layer 1"><ellipse class="cls-2" cx="124.5" cy="600.06" rx="124.5" ry="22"/><ellipse class="cls-2" cx="1014.5" cy="600.06" rx="124.5" ry="22"/><ellipse class="cls-2" cx="1599.5" cy="600.06" rx="124.5" ry="22"/><rect class="cls-3" x="93.71" y="1" width="517.72" height="517.72"/><rect class="cls-4" x="148.15" y="50.27" width="407.92" height="296.45"/><circle class="cls-5" cx="460.44" cy="248.18" r="75.74"/><path class="cls-6" d="M457.18,287a20.94,20.94,0,0,1-2.22-.44c-13.21-2.26-19.7-9-22.81-14.32a25.87,25.87,0,0,1-3.6-11.47,3.57,3.57,0,0,1,7.14-.18c0,.66.81,15.66,20.63,19a3.34,3.34,0,0,1,.43.1,22.86,22.86,0,0,0,20.81-5.88c1.29-1.31,3.46-4,3.95-6a3.57,3.57,0,1,1,6.92,1.75c-1.13,4.48-5.38,8.83-5.86,9.31a.94.94,0,0,1-.1.1A30.27,30.27,0,0,1,457.18,287Z"/><circle class="cls-6" cx="500.41" cy="240.33" r="10.76"/><circle class="cls-6" cx="424.57" cy="228.87" r="10.76"/><path class="cls-7" d="M405.55,239.89a75.74,75.74,0,0,1,76.1-64.42,74.77,74.77,0,0,0-9.9-2.18,75.74,75.74,0,1,0-22.62,149.78,77.14,77.14,0,0,0,10.1.84A75.74,75.74,0,0,1,405.55,239.89Z"/><path class="cls-8" d="M181.12,161.52a15.94,15.94,0,0,1-5.33-1.06l1.71-8a16,16,0,0,0,9.28.78,5.77,5.77,0,0,0,2.43-1,1.42,1.42,0,0,0,.6-1.45,1.4,1.4,0,0,0-1.17-1,17.8,17.8,0,0,0-3.07-.37,32.11,32.11,0,0,1-4.6-.57,8,8,0,0,1-3.49-1.72,6.76,6.76,0,0,1-2.22-4,10.86,10.86,0,0,1,.26-6.14,10.42,10.42,0,0,1,3.64-4.85,16.74,16.74,0,0,1,6.64-2.92,21.59,21.59,0,0,1,5.49-.55,14.12,14.12,0,0,1,4.69.9l-1.51,7.89a11.2,11.2,0,0,0-3.69-.88,13.48,13.48,0,0,0-3.85.29,5.69,5.69,0,0,0-2.66,1.21,1.69,1.69,0,0,0-.68,1.6,1.43,1.43,0,0,0,1.18,1.06,17.2,17.2,0,0,0,3.18.34,29.43,29.43,0,0,1,4.53.48,7.72,7.72,0,0,1,3.48,1.68,6.67,6.67,0,0,1,2.18,3.9A10.29,10.29,0,0,1,194.19,158a16.8,16.8,0,0,1-6.6,2.9A23.79,23.79,0,0,1,181.12,161.52Z"/><path class="cls-8" d="M231.47,128.07a8.26,8.26,0,0,1,3.23,5.36,16.32,16.32,0,0,1,.38,2.9l.62,13.12-8.3,1.86-.54-11.87a6.39,6.39,0,0,0-.17-1.45,3.08,3.08,0,0,0-.9-1.78,1.58,1.58,0,0,0-1.46-.33q-2.54.57-2.33,4.74l.55,11.77-8.3,1.86-.54-11.86a6.48,6.48,0,0,0-.17-1.46,3.15,3.15,0,0,0-.9-1.77,1.58,1.58,0,0,0-1.46-.33c-1.67.37-2.44,2-2.33,4.91l.55,11.6-8.3,1.86L200,133.43l7.82-1.75.1,2.31a8.51,8.51,0,0,1,2.27-2.6,7.57,7.57,0,0,1,2.87-1.32,7,7,0,0,1,3.66.14,6.39,6.39,0,0,1,3.07,2.17,9.52,9.52,0,0,1,2.51-3.4,8.65,8.65,0,0,1,3.72-1.82A6.75,6.75,0,0,1,231.47,128.07Z"/><path class="cls-8" d="M239.1,121.4a4.43,4.43,0,0,1-2-2.91,5.11,5.11,0,0,1,.64-4,5.29,5.29,0,0,1,3.5-2.32,4.94,4.94,0,0,1,3.68.42,4.2,4.2,0,0,1,2,2.83,5.14,5.14,0,0,1-4.1,6.5A4.82,4.82,0,0,1,239.1,121.4Zm-.92,3.47,8.27-1.85,1.12,23.77-8.27,1.85Z"/><path class="cls-8" d="M249.73,113.72l8.3-1.86,1.51,32.25-8.3,1.86Z"/><path class="cls-8" d="M284.29,128.86,270.22,132a3,3,0,0,0,1.67,1.78,5,5,0,0,0,2.79,0,6.7,6.7,0,0,0,4-2.57l4.74,5a14.34,14.34,0,0,1-8.15,4.81,12.83,12.83,0,0,1-6.07,0,9.63,9.63,0,0,1-4.72-2.81,11.3,11.3,0,0,1-2.63-5.29,14.71,14.71,0,0,1,.05-7.11,11.8,11.8,0,0,1,3.34-5.66,12.72,12.72,0,0,1,6.12-3.15,11.41,11.41,0,0,1,5.76,0,8.78,8.78,0,0,1,4.32,2.76,11.26,11.26,0,0,1,2.39,5A20.07,20.07,0,0,1,284.29,128.86Zm-13.92-4a5,5,0,0,0-.84,2.54l6.57-1.48a3.11,3.11,0,0,0-1.31-2.05,3,3,0,0,0-2.35-.33A3.3,3.3,0,0,0,270.37,124.84Z"/><path class="cls-8" d="M306.82,124.07a5.46,5.46,0,0,0,.08.68,1.42,1.42,0,0,0,1.9,1.25,4,4,0,0,0,1.71-1l2.38,6.14a10.28,10.28,0,0,1-5.13,2.56,7.73,7.73,0,0,1-5.8-.65,7,7,0,0,1-3.14-4.81,12.06,12.06,0,0,1-.29-2.31l-.26-6-2.8.63-.33-7.17,2.76-.62-.3-6.65,8.3-1.86.3,6.65,4.11-.92.34,7.17-4.12.92Z"/><path class="cls-8" d="M320.21,129.57a9.51,9.51,0,0,1-4.63-2.85,11.38,11.38,0,0,1-2.59-5.26,14.22,14.22,0,0,1,.11-7.08,13,13,0,0,1,15.54-8.83,9.55,9.55,0,0,1,4.63,2.85,11.37,11.37,0,0,1,2.58,5.26,14.18,14.18,0,0,1-.11,7.07,12.37,12.37,0,0,1-3.41,5.7,12.54,12.54,0,0,1-6.06,3.16A12.39,12.39,0,0,1,320.21,129.57Zm7.18-9.54a6.65,6.65,0,0,0,.16-4,4.21,4.21,0,0,0-1.38-2.44,2.74,2.74,0,0,0-2.41-.49,3.16,3.16,0,0,0-2.3,2,6.5,6.5,0,0,0-.16,4,4.15,4.15,0,0,0,1.37,2.44,2.71,2.71,0,0,0,2.41.49A3.16,3.16,0,0,0,327.39,120Z"/><path class="cls-8" d="M359,112.37a5.44,5.44,0,0,0,.08.69,1.42,1.42,0,0,0,1.9,1.24,4.18,4.18,0,0,0,1.71-1l2.38,6.14A10.26,10.26,0,0,1,360,122a7.71,7.71,0,0,1-5.79-.65,7.07,7.07,0,0,1-3.15-4.81,12.81,12.81,0,0,1-.28-2.31l-.27-6-2.79.63-.33-7.17,2.75-.62-.29-6.65,8.3-1.86.3,6.65,4.11-.92.33,7.17-4.11.92Z"/><path class="cls-8" d="M380.39,92.57l.4,8.69a10,10,0,0,0-1.83.23,5.11,5.11,0,0,0-3.12,1.82,5.93,5.93,0,0,0-.9,3.83l.49,11-8.3,1.87L366,96.23l7.83-1.76.12,2.44C375.18,94.7,377.33,93.25,380.39,92.57Z"/><path class="cls-8" d="M405.72,87.33l-7.11,26.1a24.4,24.4,0,0,1-2.15,5.59,9.71,9.71,0,0,1-2.8,3.22,11.38,11.38,0,0,1-4,1.67,10.77,10.77,0,0,1-3.41.19,7.79,7.79,0,0,1-2.94-.83l2.13-7.37a4.61,4.61,0,0,0,3.28.53,2.68,2.68,0,0,0,1.84-1.42L381,92.88,389.23,91,394,102.86l3.56-13.71Z"/><path class="cls-8" d="M424.93,106.1a9.51,9.51,0,0,1-4.63-2.85A11.48,11.48,0,0,1,417.71,98a14.29,14.29,0,0,1,.12-7.07,12.32,12.32,0,0,1,3.41-5.71,12.53,12.53,0,0,1,6.06-3.15,12.27,12.27,0,0,1,6.06,0A9.51,9.51,0,0,1,438,84.93a11.48,11.48,0,0,1,2.59,5.26,14.29,14.29,0,0,1-.11,7.07,12.41,12.41,0,0,1-3.41,5.7,12.54,12.54,0,0,1-6.07,3.16A12.27,12.27,0,0,1,424.93,106.1Zm7.18-9.54a6.57,6.57,0,0,0,.16-4,4.08,4.08,0,0,0-1.38-2.43,2.72,2.72,0,0,0-2.4-.5,3.2,3.2,0,0,0-2.31,2,6.69,6.69,0,0,0-.16,4,4.17,4.17,0,0,0,1.38,2.43,2.69,2.69,0,0,0,2.4.49A3.16,3.16,0,0,0,432.11,96.56Z"/><path class="cls-8" d="M461.85,76.42a8.09,8.09,0,0,1,3.26,5.33,17.64,17.64,0,0,1,.39,2.94l.63,13.12-8.3,1.86-.56-12a12.82,12.82,0,0,0-.16-1.41c-.37-1.65-1.25-2.31-2.65-2q-2.94.66-2.73,5.18l.51,11.43-8.3,1.86L442.82,79l7.82-1.76.11,2.39A8.77,8.77,0,0,1,453.14,77a8.33,8.33,0,0,1,3-1.39A7.17,7.17,0,0,1,461.85,76.42Z"/><path class="cls-8" d="M194,210.53a9.55,9.55,0,0,1-4.63-2.85,11.48,11.48,0,0,1-2.59-5.26,14.29,14.29,0,0,1,.12-7.07,12.34,12.34,0,0,1,3.41-5.7,12.54,12.54,0,0,1,6.06-3.16,12.39,12.39,0,0,1,6.06,0,9.51,9.51,0,0,1,4.63,2.85,11.48,11.48,0,0,1,2.59,5.26,14.18,14.18,0,0,1-.11,7.07,12.41,12.41,0,0,1-3.41,5.71,12.59,12.59,0,0,1-6.06,3.16A12.42,12.42,0,0,1,194,210.53Zm7.18-9.53a6.58,6.58,0,0,0,.16-4,4.11,4.11,0,0,0-1.38-2.44,2.69,2.69,0,0,0-2.4-.49,3.16,3.16,0,0,0-2.31,2,6.65,6.65,0,0,0-.16,4,4.16,4.16,0,0,0,1.38,2.43,2.69,2.69,0,0,0,2.4.5A3.16,3.16,0,0,0,201.21,201Z"/><path class="cls-8" d="M233.92,178.52,235,202.29,227.22,204l-.11-2.39a8.6,8.6,0,0,1-2.37,2.68,8,8,0,0,1-3,1.37,7.06,7.06,0,0,1-5.63-.85,8.11,8.11,0,0,1-3.24-5.33,17.64,17.64,0,0,1-.39-2.94l-.63-13.12,8.31-1.86.55,12a11.79,11.79,0,0,0,.17,1.45c.37,1.62,1.22,2.28,2.57,2q2.86-.63,2.66-5.16l-.52-11.43Z"/><path class="cls-8" d="M251.94,174l.4,8.69a10.76,10.76,0,0,0-1.83.24,5.09,5.09,0,0,0-3.13,1.82,5.9,5.9,0,0,0-.89,3.82l.49,11-8.3,1.86-1.12-23.77,7.82-1.75.12,2.43Q247.34,175.08,251.94,174Z"/><path class="cls-8" d="M284.36,168.88a8.07,8.07,0,0,1,3.26,5.33,15.76,15.76,0,0,1,.39,2.95l.63,13.12-8.3,1.86-.56-11.95a13.1,13.1,0,0,0-.16-1.42c-.37-1.64-1.25-2.31-2.65-2q-2.94.65-2.73,5.18l.51,11.43-8.3,1.86-1.12-23.77,7.82-1.75.12,2.39a8.54,8.54,0,0,1,2.38-2.69,8.14,8.14,0,0,1,3-1.38A7.16,7.16,0,0,1,284.36,168.88Z"/><path class="cls-8" d="M313.68,175l-14.07,3.15a3,3,0,0,0,1.67,1.78,4.86,4.86,0,0,0,2.78,0,6.74,6.74,0,0,0,4-2.57l4.74,4.95a14.24,14.24,0,0,1-8.15,4.81,12.7,12.7,0,0,1-6.07,0,9.57,9.57,0,0,1-4.72-2.8,11.34,11.34,0,0,1-2.63-5.3,14.67,14.67,0,0,1,0-7.1,11.94,11.94,0,0,1,3.34-5.67,12.8,12.8,0,0,1,6.13-3.15,11.53,11.53,0,0,1,5.76.05,8.87,8.87,0,0,1,4.32,2.77,11.26,11.26,0,0,1,2.39,5A19.89,19.89,0,0,1,313.68,175Zm-13.92-4a4.94,4.94,0,0,0-.84,2.53l6.57-1.47a3.13,3.13,0,0,0-1.31-2.06,3,3,0,0,0-2.35-.33A3.33,3.33,0,0,0,299.76,171Z"/><path class="cls-8" d="M349.52,152.61l-5.71,25.3-8.19,1.84-3.84-10.25-2.44,11.66L321.18,183l-8.35-22.14,7.56-1.7,4.12,11.64,3-13.24,7.13-1.59,4.16,11.71,3-13.32Z"/><path class="cls-8" d="M366.47,172.66a12.1,12.1,0,0,1-4.12-.66l1.43-7.08a11.4,11.4,0,0,0,3.67.8,13.61,13.61,0,0,0,3.77-.27c1.64-.37,2.38-.92,2.22-1.64-.07-.31-.33-.49-.8-.55a12.73,12.73,0,0,0-2.13,0,23.92,23.92,0,0,1-3.88-.08,6.34,6.34,0,0,1-3.06-1.24,5.62,5.62,0,0,1-2-3.41,7.56,7.56,0,0,1,1.72-7.14,14.21,14.21,0,0,1,7.66-4,20.48,20.48,0,0,1,4.34-.52,14.51,14.51,0,0,1,3.91.47l-1.43,7.08a10.81,10.81,0,0,0-6.37-.37,4.21,4.21,0,0,0-1.85.76,1,1,0,0,0-.43.93c.07.31.33.49.78.55a15.71,15.71,0,0,0,2.25,0,23.15,23.15,0,0,1,3.82.09,6.13,6.13,0,0,1,3,1.25A5.58,5.58,0,0,1,381,161a7.7,7.7,0,0,1-.44,5,9.07,9.07,0,0,1-3.39,3.81,16.55,16.55,0,0,1-5.49,2.25A21.8,21.8,0,0,1,366.47,172.66Z"/><path class="cls-8" d="M405,154.5l-14.07,3.15a3,3,0,0,0,1.68,1.78,5,5,0,0,0,2.78,0,6.72,6.72,0,0,0,4-2.57l4.73,5a14.26,14.26,0,0,1-8.14,4.81,12.74,12.74,0,0,1-6.08,0,9.48,9.48,0,0,1-4.71-2.81,11.18,11.18,0,0,1-2.64-5.29,14.79,14.79,0,0,1,.05-7.1,11.94,11.94,0,0,1,3.34-5.67,12.72,12.72,0,0,1,6.12-3.15,11.41,11.41,0,0,1,5.76.05,8.76,8.76,0,0,1,4.33,2.76,11.34,11.34,0,0,1,2.38,5A19.21,19.21,0,0,1,405,154.5Zm-13.92-4a5.11,5.11,0,0,0-.84,2.54l6.58-1.47a3.1,3.1,0,0,0-1.31-2.06,3,3,0,0,0-2.35-.33A3.3,3.3,0,0,0,391.07,150.48Z"/><path class="cls-8" d="M428.68,134.88l1.12,23.76L422,160.4l-.1-2.18a7.22,7.22,0,0,1-9.13,3.36,9.26,9.26,0,0,1-3.92-3,12.83,12.83,0,0,1-2.46-5.4,15.52,15.52,0,0,1-.05-7,12.29,12.29,0,0,1,2.85-5.6,9.4,9.4,0,0,1,4.94-2.91q4-.9,6.37,1.56l-.1-2.52Zm-12.63,18.44a2.74,2.74,0,0,0,2.41.49,3.16,3.16,0,0,0,2.3-2,6.5,6.5,0,0,0,.16-4,4.15,4.15,0,0,0-1.37-2.44,2.71,2.71,0,0,0-2.41-.49,3.16,3.16,0,0,0-2.31,2,6.58,6.58,0,0,0-.15,4A4.15,4.15,0,0,0,416.05,153.32Z"/><path class="cls-8" d="M436.74,156.91a12.1,12.1,0,0,1-4.12-.66l1.42-7.08a11.27,11.27,0,0,0,3.68.81,14,14,0,0,0,3.77-.28c1.64-.37,2.38-.91,2.22-1.64-.07-.31-.33-.49-.8-.54a11.5,11.5,0,0,0-2.13,0,24.07,24.07,0,0,1-3.88-.07,6.36,6.36,0,0,1-3.06-1.25,5.57,5.57,0,0,1-1.95-3.4,7.57,7.57,0,0,1,1.71-7.15,14.21,14.21,0,0,1,7.66-4,20.46,20.46,0,0,1,4.34-.51,14.13,14.13,0,0,1,3.91.46l-1.43,7.08a10.89,10.89,0,0,0-6.37-.37,4.33,4.33,0,0,0-1.85.76,1,1,0,0,0-.43.94c.07.3.33.48.78.55a16.12,16.12,0,0,0,2.25,0,23.15,23.15,0,0,1,3.82.09,6.23,6.23,0,0,1,3,1.25,5.61,5.61,0,0,1,1.93,3.37,7.73,7.73,0,0,1-.44,5,9.13,9.13,0,0,1-3.39,3.81,16.46,16.46,0,0,1-5.49,2.24A21.8,21.8,0,0,1,436.74,156.91Z"/><path class="cls-8" d="M460,150.93a9.53,9.53,0,0,1-4.64-2.85,11.37,11.37,0,0,1-2.58-5.26,14.18,14.18,0,0,1,.11-7.07,12.41,12.41,0,0,1,3.41-5.71,12.63,12.63,0,0,1,6.06-3.16,12.38,12.38,0,0,1,6.06,0,9.51,9.51,0,0,1,4.63,2.85,11.38,11.38,0,0,1,2.59,5.26,14.18,14.18,0,0,1-.11,7.07,12.32,12.32,0,0,1-3.41,5.7,12.54,12.54,0,0,1-6.06,3.16A12.27,12.27,0,0,1,460,150.93Zm7.18-9.54a6.58,6.58,0,0,0,.15-4,4.12,4.12,0,0,0-1.37-2.43,2.72,2.72,0,0,0-2.41-.5,3.18,3.18,0,0,0-2.31,2,6.59,6.59,0,0,0-.15,4,4.15,4.15,0,0,0,1.37,2.44,2.71,2.71,0,0,0,2.41.49A3.19,3.19,0,0,0,467.2,141.39Z"/><path class="cls-8" d="M496.94,121.25a8.12,8.12,0,0,1,3.26,5.33,17.64,17.64,0,0,1,.39,2.94l.62,13.12-8.3,1.86-.56-11.95a10.69,10.69,0,0,0-.16-1.41c-.37-1.65-1.25-2.31-2.65-2q-2.94.66-2.73,5.18l.52,11.43L479,147.61l-1.12-23.76,7.83-1.76.11,2.39a8.52,8.52,0,0,1,2.39-2.68,8.36,8.36,0,0,1,3-1.39A7.19,7.19,0,0,1,496.94,121.25Z"/><path class="cls-8" d="M513.39,109.18,523.3,107l-.76,19.14-6.61,1.48Zm3.41,29a4.65,4.65,0,0,1-2-3,5.45,5.45,0,0,1,.59-4.17,5,5,0,0,1,3.32-2.33,4.59,4.59,0,0,1,3.6.56,4.46,4.46,0,0,1,2,2.93,5.54,5.54,0,0,1-.6,4.2,4.91,4.91,0,0,1-3.28,2.38A4.51,4.51,0,0,1,516.8,138.18Z"/><rect class="cls-3" x="654.71" y="1" width="517.72" height="517.72"/><rect class="cls-4" x="709.15" y="50.27" width="407.92" height="296.45"/><path class="cls-9" d="M152.82,321.53s25.63-1.75,33.63-17.25-33.63,4.87-33.63,4.87Z"/><polygon class="cls-10" points="161.68 310.92 163.01 313.57 194.45 297.19 193.12 294.53 161.68 310.92"/><path class="cls-9" d="M119.61,334c.89,4.87,28.79-7.55,35.43-12.42s0-13.15,0-13.15c-5,.68-11,1.68-18.16,2.54C126,312.06,124,308.26,124,308.26S118.72,329.08,119.61,334Z"/><circle class="cls-11" cx="103.45" cy="203.08" r="27.9"/><path class="cls-12" d="M122.45,268.63l-8.36,4.87s-11.53-19.92-4-25.68,14.17,2.65,14.17,2.65v4.87Z"/><path class="cls-9" d="M78.45,580.75,77.1,596.27s15.06,1.79,15.5,1.33,15.5-4,15.5-4l-8.42-9.75Z"/><path class="cls-9" d="M45.67,565.09c-1.8,4.43-8,8.86-8,8.86l8.86,13.73,17.27,4,4-16.83S47.47,560.66,45.67,565.09Z"/><path class="cls-13" d="M86.4,425.76,97,525.4s1.33,39,1.33,46.06,4,14.61,4,14.61c.44,11.07-29.23,4.43-29.23,4.43,2.23-2.66-.87-4-1.77-7.09s-4-51.81-4-51.81-.88-35.43,1.33-43.84a22.34,22.34,0,0,0-1.33-15.06l-1.77-28.78Z"/><path class="cls-14" d="M86.4,425.76,97,525.4s1.33,39,1.33,46.06,4,14.61,4,14.61c.44,11.07-29.23,4.43-29.23,4.43,2.23-2.66-.87-4-1.77-7.09s-4-51.81-4-51.81-.88-35.43,1.33-43.84a22.34,22.34,0,0,0-1.33-15.06l-1.77-28.78Z"/><path class="cls-11" d="M51,381.7c-7.53,11.95,6.2,38.08,6.2,38.08s2.65,3.59,3.54,12,23.47,53.58,23.47,53.58S61.6,521.63,60.27,530.53,49.23,547,48.79,550.1s-5.3,7.08-7.52,13.28,1.76,9.3,13.28,17.27,16.39-2.19,18.16-5.76,7.08-5.35,7.08-8,.89-5.74,3.55-9.74a7.83,7.83,0,0,0,.88-7.53l33.22-45.17s6.24-13.27,6.64-36.75-12-97-12-97S58.5,369.75,51,381.7Z"/><path class="cls-13" d="M74.45,589.17c-4.44,1.36-8.86,15.94-8.86,15.94s60.27,14.61,74,3.54-18.6-12.4-18.6-12.4L104.6,587c0,6.65-12,8.42-12,8.42C82.45,595.81,74.45,589.17,74.45,589.17Z"/><path class="cls-14" d="M74.45,589.17c-4.44,1.36-8.86,15.94-8.86,15.94s60.27,14.61,74,3.54-18.6-12.4-18.6-12.4L104.6,587c0,6.65-12,8.42-12,8.42C82.45,595.81,74.45,589.17,74.45,589.17Z"/><path class="cls-13" d="M30.6,591.64c3.54,7.09,41.18,24.78,61.11,19.49s-.44-12-6.2-13.29S74.43,585.85,72,582s-9.09,3-9.09,3c-11.48,4.87-24.36-13.29-24.36-13.29S27.06,584.55,30.6,591.64Z"/><path class="cls-9" d="M126.28,230.78c1-2.38-.61-5.84-2-7.84a7,7,0,0,0-3.13-2.42,16.15,16.15,0,0,0-6.17-.76,39.26,39.26,0,0,0-9.85.89,13.3,13.3,0,0,0-8,5.39c-1.7,2.7-2,6-2.13,9.22a10.49,10.49,0,0,1-1,4.93,9.68,9.68,0,0,1-4.06,3.3c-1.56.83-6.69,7.78-7.74,9.2s2.2-2.49,3.47-1.26a5.51,5.51,0,0,0,3.24,1.15l6.29.81a13.17,13.17,0,0,1,4.92,1.31c2.79,1.62,4,5,4.64,8.16s1.08,6.53,3.08,9.07a3.6,3.6,0,0,0,3.07,1.66,4.2,4.2,0,0,0,2.22-1.34,20,20,0,0,0,4.83-6.71,11,11,0,0,0,.24-8.12c-.45-1.12-1.14-2.14-1.57-3.27a11,11,0,0,1,.18-7.58,33.32,33.32,0,0,1,3.69-6.79C122.35,236.92,125,233.93,126.28,230.78Z"/><circle class="cls-9" cx="111.2" cy="211.28" r="25.68"/><path class="cls-11" d="M77.54,256.89S47.42,318,50.08,337.05,43,381.81,44.33,388s31.45,1.3,45.17-8,18.16-1.78,26.57-3.1,4.87-4.87,4.87-4.87a39.12,39.12,0,0,1,1.33-16.38c2.65-8,3.54-38.09,3.54-38.09s.45-30.12.89-39.85-.89-23.46-2.22-27-8.24,2.19-8.24,2.19-.17,5.34-.17,12.87-3.1-2.21-4.87-11.07c-1-4.71-9-6.66-16.36-7.46a17.14,17.14,0,0,0-17.3,9.67Z"/><path class="cls-9" d="M96.14,372.92s-.89,10.61-.89,14.61,4,3.09,11.52,1.77,3.1-8.41,3.1-8.41-1.77,0,3.54,2.21,4.42-2.2,2.21-2.65-8.85-11.07-8.85-11.07Z"/><path class="cls-9" d="M86.37,253.76c-9.75,2.66-32.31,59.37-35.43,67.32s-.9,8.85.88,11.95,21.18,25,21.18,25,7,7,13.14,10.6a22.88,22.88,0,0,1,10,10.87s15.89-2.14,12.27-7.83c-.41-.64-8.2-12.51-8.2-12.51s-12.5-19.48-14.71-22.14-2.67-1.78-5.76-4.87,4-11.09,4-11.09,15.5-23.9,22.14-39.84a27.44,27.44,0,0,0-3.1-27.46S96.12,251.1,86.37,253.76Z"/><circle class="cls-11" cx="96.58" cy="205.08" r="26.79"/><ellipse class="cls-11" cx="78.88" cy="181.77" rx="13.73" ry="8.64" transform="translate(-108.49 117.32) rotate(-47.56)"/><ellipse class="cls-11" cx="121.16" cy="190.69" rx="19.04" ry="8.86"/><ellipse class="cls-9" cx="117.17" cy="217.04" rx="3.99" ry="5.98"/><g class="cls-15"><path class="cls-9" d="M853,245.06s-.89,46.06-37.6,46.06,47,31.12,93.44,21.69C952,304.06,937,291.06,937,291.06s-53.67,2.39-52-41Z"/><circle class="cls-11" cx="867.64" cy="195.58" r="65.04"/><circle class="cls-9" cx="868.44" cy="222.7" r="45.05"/><polygon class="cls-11" points="910.58 188.06 877.57 170.77 831.98 177.84 822.55 219.5 846.03 218.59 852.59 203.29 852.59 218.34 863.42 217.92 869.71 193.56 873.64 219.5 912.14 218.71 910.58 188.06"/><circle class="cls-11" cx="871.07" cy="121.4" r="26.25"/><path class="cls-11" d="M833.21,117.71a56.49,56.49,0,0,0,5.46,12.83c12.77,21.9,37.35,30.2,54.91,18.55s21.42-38.87,8.65-60.77c6.18,21.8-2,43.3-19.2,50.64S844.64,137.27,833.21,117.71Z"/></g><path class="cls-9" d="M1008.84,263.2s-13.81,0-15.35,8.44-3.84,100.56-2.3,112.07,1.53,9.22,1.53,9.22-3.06,21.88,3.85,22.83,6.9-25.14,6.9-25.14l5.37-93.65Z"/><path class="cls-9" d="M1068.72,263.2s13.82,0,15.35,8.44,3.84,100.56,2.3,112.07-1.53,9.22-1.53,9.22,3.06,21.88-3.84,22.83-6.91-25.14-6.91-25.14L1068.72,297Z"/><path class="cls-11" d="M1006.54,584.06h-6.14a13.82,13.82,0,0,0-13.82,13.82h37.62V580.22h-17.66Z"/><path class="cls-11" d="M1065.65,584.06h6.14a13.82,13.82,0,0,1,13.82,13.82H1048V580.22h17.66Z"/><circle class="cls-9" cx="1032.64" cy="225.59" r="19.96"/><path class="cls-9" d="M1028,236.33s-2.31,25.33-5.38,27.64,32.24-1.54,32.24-1.54-12.28-18.42-10-24.56S1028,236.33,1028,236.33Z"/><path class="cls-11" d="M1073.32,263.2s-42.21-17.66-69.85,0c0,0-6.91,17.65-1.53,27.63s13.81,33.78,5.37,49.9.77,9.21.77,9.21-10.75,43-12.28,76.76,4.6,155.06,9.21,155.83,19.19,2.3,20.72,0S1038,419.79,1038,419.79s4.61,164.27,9.22,164.27,16.88,0,19.19-3.84,21.49-152,14.58-182.69-11.51-46.06-11.51-46.06,8.44-5.37,6.14-8.44-13.82-36.08-8.45-41.45S1073.32,263.2,1073.32,263.2Z"/><circle class="cls-11" cx="1045.31" cy="213.56" r="32.24"/><path class="cls-11" d="M1065.44,197.42a21.72,21.72,0,0,1-16.39-25.1c-.09.33-.18.66-.26,1a21.72,21.72,0,0,0,42.29,9.94c.08-.34.14-.68.21-1A21.73,21.73,0,0,1,1065.44,197.42Z"/><circle class="cls-11" cx="1066.75" cy="185.84" r="15.78"/><g class="cls-15"><path class="cls-9" d="M811.69,291.41s-28.78,0-32,17.58-8,209.45-4.8,233.43,3.2,19.19,3.2,19.19-6.37,45.57,8,47.57,14.38-52.37,14.38-52.37l11.2-195.06Z"/><path class="cls-9" d="M936.39,291.41s28.78,0,32,17.58,8,209.45,4.8,233.43-3.2,19.19-3.2,19.19,6.37,45.57-8,47.57-14.38-52.37-14.38-52.37L936.39,361.75Z"/><path class="cls-11" d="M946,291.41s-85,22.65-145.5,0c0,0-14.39,36.77-3.19,57.55s28.77,70.35,11.19,103.93,1.6,19.18,1.6,19.18S787.7,561.61,784.51,632s9.59,323,19.18,324.56,40,4.79,43.17,0,25.58-338.95,25.58-338.95S882,959.71,891.63,959.71s35.17,0,40-8S976.36,635.15,962,571.2s-24-95.93-24-95.93,17.59-11.19,12.79-17.59S922,382.54,933.2,371.35,946,291.41,946,291.41Z"/></g><path class="cls-16" d="M850,243.84s6,6.67,19,6.44,18-8.22,18-8.22-3,12-17,13C855,256.13,850,243.84,850,243.84Z"/><rect class="cls-3" x="1215.71" width="517.72" height="517.72"/><rect class="cls-4" x="1270.15" y="49.27" width="407.92" height="296.45"/><path class="cls-9" d="M1569.84,262.2s-13.81,0-15.35,8.44c-.81,4.45-2.19,32.06-2.39,58.91-.1,13.51-14.56,48.8-17.91,53.16-7.19,9.35-2.47,9.22-2.47,9.22s-8.06,21.88-1.15,22.83,15.9-25.14,15.9-25.14L1564,350.06l5.84-54.09Z"/><path class="cls-11" d="M1567.54,583.06h-6.14a13.82,13.82,0,0,0-13.82,13.82h37.62V579.22h-17.66Z"/><path class="cls-11" d="M1626.65,583.06h6.14a13.82,13.82,0,0,1,13.82,13.82H1609V579.22h17.66Z"/><circle class="cls-9" cx="1593.64" cy="224.59" r="19.96"/><path class="cls-9" d="M1589,235.33s-2.31,25.33-5.38,27.64,32.24-1.54,32.24-1.54-12.28-18.42-10-24.56S1589,235.33,1589,235.33Z"/><path class="cls-11" d="M1634.32,271.2s-42.21-26.66-69.85-9c0,0-6.91,17.65-1.53,27.63s13.81,33.78,5.37,49.9.77,9.21.77,9.21-10.75,43-12.28,76.76,4.6,155.06,9.21,155.83,19.19,2.3,20.72,0S1599,418.79,1599,418.79s4.61,164.27,9.22,164.27,16.88,0,19.19-3.84,21.49-152,14.58-182.69-11.51-46.06-11.51-46.06,8.44-5.37,6.14-8.44-13.82-36.08-8.45-41.45S1634.32,271.2,1634.32,271.2Z"/><circle class="cls-11" cx="1606.31" cy="212.56" r="32.24"/><path class="cls-11" d="M1626.44,196.42a21.72,21.72,0,0,1-16.39-25.1c-.09.33-.18.66-.26,1a21.72,21.72,0,0,0,42.29,9.94c.08-.34.14-.68.21-1A21.73,21.73,0,0,1,1626.44,196.42Z"/><circle class="cls-11" cx="1627.75" cy="184.84" r="15.78"/><g class="cls-17"><path class="cls-18" d="M1429.9,289.17s17.34,25.22,8.67,31.52-17.34-27.58-17.34-27.58Z"/><path class="cls-19" d="M1433.06,292.32l-13.4,5.52-20.49-61.47.34-2.8,7.54-60.25s5.3-.48,8,3.08a7.83,7.83,0,0,1,1.47,4c.78,7.88-3.16,51.23-3.16,51.23a35.23,35.23,0,0,0,1.58,6.3c.79,1.58,2.36.79,1.58,3.15s-2.37,2.37-1.58,3.16a11.72,11.72,0,0,1,1.58,2.36Z"/><path class="cls-18" d="M1334.61,324.31l-.14,58.27a306.36,306.36,0,0,0,6.33,67.5l1.55,25.87,15-2.93,1.17-7.35-2.94-15s8.58-46.43,2.35-65.19l16.86-71.33Z"/><path class="cls-18" d="M1379.46,326.21v58.32s-4.72,35.47-3.15,52v31.52h11.82s0-13.4,2.37-18.13,15.76-53.59,11.82-70.93l12.61-58.32Z"/><path class="cls-18" d="M1364.49,134.7s.79,24.43-1.58,27.58,29.16,7.88,29.16,7.88-10.24-20.49-3.15-27.58Z"/><path class="cls-14" d="M1404.68,217.45s-.78,7.09,1.58,10.25-2.76,5.91-2.76,5.91c-1.61-.27-.71,0-4,0l7.54-60.25s1.65-1.6,4.33,2c0,5.84-3.54,20.88-3.54,20.88C1413.35,210.36,1404.68,217.45,1404.68,217.45Z"/><path class="cls-19" d="M1389.71,156.77s-25.22-6.31-26.8-5.52-2.36,9.46-2.36,9.46-26-2.37-23.64,6.3,13.39,68.57,13.39,68.57,44.93-3.15,54.38-1.58a6.25,6.25,0,0,0-.78-6.3c-2.37-3.16-1.58-10.25-1.58-10.25s8.67-7.09,3.15-21.28c0,0,10.25-19.7,6.31-22.07s-18.92-7.09-18.92-7.09S1392.86,156,1389.71,156.77Z"/><path class="cls-20" d="M1351.09,233.21l-13.4,49.65s-34.67,34.68-22.06,40.2,61.47,15,70.14,8.67,3.15-7.88,14.19-6.31,30.73,0,30.73-6.3-27.58-88.27-27.58-88.27Z"/><path class="cls-11" d="M1353.23,466.73s-10.24-4.73-12.61-1.57-25.22,41.77-12.61,44.13,25.22-3.94,26.8-11,11-19.71,11-19.71,10.22-11.87-3.56-23.27C1362.28,455.28,1359.54,466.73,1353.23,466.73Z"/><path class="cls-11" d="M1371.58,466.49s10.25-10.24,18.13,0c0,0,11.82,37.05-6.31,36.26s-15.76-7.88-15.76-7.88Z"/><path class="cls-18" d="M1314.05,286.8s-14.19,32.32-3.94,33.11,12.61-30,12.61-30Z"/><path class="cls-19" d="M1343.61,161.1s-11.43,1.18-12.22,7.49-6.31,54.38-6.31,54.38l-14.18,66.2,15,3.15s10.25-41.77,15.76-48.07l4.73-43.35Z"/></g><circle class="cls-11" cx="1374.03" cy="118.12" r="30.36"/><circle class="cls-9" cx="1374.4" cy="130.78" r="21.03"/><polygon class="cls-11" points="1394.06 114.61 1378.66 106.54 1357.38 109.84 1352.98 129.28 1363.94 128.86 1367 121.72 1367 128.74 1372.06 128.55 1374.99 117.18 1376.82 129.28 1394.8 128.92 1394.06 114.61"/><circle class="cls-11" cx="1375.62" cy="83.5" r="12.25"/><path class="cls-11" d="M1358,81.78a25.47,25.47,0,0,0,2.55,6c6,10.23,17.43,14.1,25.62,8.66s10-18.13,4-28.36c2.88,10.18-.92,20.21-9,23.64S1363.29,90.91,1358,81.78Z"/><path class="cls-21" d="M1458.11,95.25h8L1463.78,107a16.57,16.57,0,0,1-5,2.41,21.25,21.25,0,0,1-6.07.84,16.64,16.64,0,0,1-7.36-1.55,11.53,11.53,0,0,1-4.92-4.31,11.73,11.73,0,0,1-1.74-6.37,16.17,16.17,0,0,1,2.22-8.47,15.52,15.52,0,0,1,6.21-5.8,19.43,19.43,0,0,1,9.14-2.09q8.51,0,12.42,5.35l-6.6,5.12a7.69,7.69,0,0,0-2.77-2.33,8.34,8.34,0,0,0-3.48-.68,8,8,0,0,0-4.16,1,7.14,7.14,0,0,0-2.73,3,9.44,9.44,0,0,0-1,4.32,5,5,0,0,0,1.6,3.88,6.29,6.29,0,0,0,4.42,1.47,9.26,9.26,0,0,0,2.69-.39Z"/><path class="cls-21" d="M1473.3,108.82a9.09,9.09,0,0,1-5.46-8.65,11.73,11.73,0,0,1,1.72-6.27,12,12,0,0,1,4.74-4.39,14.39,14.39,0,0,1,6.85-1.6,14.24,14.24,0,0,1,6.13,1.23,9.11,9.11,0,0,1,5.47,8.65,11.68,11.68,0,0,1-1.72,6.27,12,12,0,0,1-4.74,4.39,15.68,15.68,0,0,1-13,.37Zm9.44-7a5.5,5.5,0,0,0,1.07-3.55,3.46,3.46,0,0,0-.84-2.44,3,3,0,0,0-2.32-.92,3.43,3.43,0,0,0-2.8,1.33,5.5,5.5,0,0,0-1.07,3.55,3.46,3.46,0,0,0,.84,2.44,3,3,0,0,0,2.32.92A3.43,3.43,0,0,0,1482.74,101.77Z"/><path class="cls-21" d="M1499.08,80.69h8.82l-5.78,29h-8.82Z"/><path class="cls-21" d="M1535.43,80.69l-5.78,29h-8.32l.4-2a8,8,0,0,1-5.74,2.34,8.33,8.33,0,0,1-4.22-1.17,8.77,8.77,0,0,1-3.3-3.42,10.52,10.52,0,0,1-1.27-5.29,12.78,12.78,0,0,1,1.54-6.25,11.7,11.7,0,0,1,4.16-4.41,10.61,10.61,0,0,1,5.66-1.6q4.26,0,6.09,2.62l2-9.84ZM1517,102.18a3,3,0,0,0,2.32.92,3.43,3.43,0,0,0,2.8-1.33,5.5,5.5,0,0,0,1.07-3.55,3.46,3.46,0,0,0-.84-2.44,3,3,0,0,0-2.32-.92,3.43,3.43,0,0,0-2.8,1.33,5.5,5.5,0,0,0-1.07,3.55A3.46,3.46,0,0,0,1517,102.18Z"/><path class="cls-21" d="M1558.16,101h-15a2.68,2.68,0,0,0,1.29,1.91,5.65,5.65,0,0,0,2.81.59,7.57,7.57,0,0,0,4.65-1.48l3.67,5.35a16.18,16.18,0,0,1-9.33,2.65,14.71,14.71,0,0,1-6.15-1.21,9.41,9.41,0,0,1-4.14-3.44,9.25,9.25,0,0,1-1.47-5.23,12.15,12.15,0,0,1,1.66-6.3,11.55,11.55,0,0,1,4.67-4.38,14.67,14.67,0,0,1,6.91-1.58,13.28,13.28,0,0,1,5.82,1.19,8.7,8.7,0,0,1,3.75,3.32,9.26,9.26,0,0,1,1.29,4.9A16,16,0,0,1,1558.16,101ZM1545,94.69a4.44,4.44,0,0,0-1.43,2.08h7a2.6,2.6,0,0,0-.86-2.08,3.33,3.33,0,0,0-2.3-.77A3.73,3.73,0,0,0,1545,94.69Z"/><path class="cls-21" d="M1583,89.79a6.85,6.85,0,0,1,2.09,5.38,13.89,13.89,0,0,1-.27,2.7l-2.34,11.79h-8.83l2.15-10.74a9.64,9.64,0,0,0,.15-1.29,2,2,0,0,0-2.22-2.3q-3.12,0-4,4.06l-2.06,10.27h-8.83l4.26-21.36h8.31l-.43,2.15a9,9,0,0,1,3-1.91,9.46,9.46,0,0,1,3.38-.63A8,8,0,0,1,1583,89.79Z"/><path class="cls-21" d="M1457.06,151.76h-10.43l-2.73,4.76h-9.72l17.41-27.33h9.06l6.48,27.33H1458Zm-1.29-6.64-1.33-7-4,7Z"/><path class="cls-21" d="M1495.6,135.16l-4.25,21.36H1483l.43-2.15a9.17,9.17,0,0,1-3,1.92,9.38,9.38,0,0,1-3.32.62,7.85,7.85,0,0,1-5.5-1.87,6.91,6.91,0,0,1-2.07-5.39,13.89,13.89,0,0,1,.27-2.7l2.34-11.79H1481l-2.15,10.74a8.66,8.66,0,0,0-.16,1.33c0,1.51.72,2.26,2.15,2.26q3,0,3.87-4.06l2.07-10.27Z"/><path class="cls-21" d="M1506.69,148.12a5.71,5.71,0,0,0-.08.63c0,1,.55,1.48,1.64,1.48a4.84,4.84,0,0,0,2-.5l1,5.93a11.9,11.9,0,0,1-5.78,1.25,8.67,8.67,0,0,1-5.72-1.74,6,6,0,0,1-2.09-4.9,9.9,9.9,0,0,1,.24-2.11l1.09-5.39h-3l1.29-6.44h2.93l1.21-6h8.83l-1.22,6h4.38l-1.29,6.44h-4.37Z"/><path class="cls-21" d="M1540.82,135.16l-4.26,21.36h-8.31l.43-2.15a9.27,9.27,0,0,1-3,1.92,9.38,9.38,0,0,1-3.32.62,7.9,7.9,0,0,1-5.51-1.87,6.9,6.9,0,0,1-2.06-5.39,13.89,13.89,0,0,1,.27-2.7l2.34-11.79h8.83l-2.15,10.74a8.66,8.66,0,0,0-.16,1.33c0,1.51.72,2.26,2.15,2.26q3,0,3.87-4.06l2.06-10.27Z"/><path class="cls-21" d="M1577.78,136.66a7,7,0,0,1,2,5.41,13.34,13.34,0,0,1-.27,2.66l-2.35,11.79h-8.82l2.15-10.66a6,6,0,0,0,.15-1.33,2.68,2.68,0,0,0-.5-1.76,1.77,1.77,0,0,0-1.41-.58c-1.8,0-2.94,1.25-3.44,3.75l-2.11,10.58h-8.82l2.15-10.66a6,6,0,0,0,.15-1.33,2.68,2.68,0,0,0-.5-1.76,1.77,1.77,0,0,0-1.41-.58q-2.65,0-3.48,3.9l-2.07,10.43h-8.82l4.26-21.36H1553l-.43,2.07a9.14,9.14,0,0,1,2.89-1.86,8.87,8.87,0,0,1,3.21-.6,8,8,0,0,1,3.67.86,6.15,6.15,0,0,1,2.61,2.54,9.55,9.55,0,0,1,3.32-2.52,9.85,9.85,0,0,1,4.18-.88A7.55,7.55,0,0,1,1577.78,136.66Z"/><path class="cls-21" d="M1605.15,136.64a6.85,6.85,0,0,1,2.09,5.39,13.89,13.89,0,0,1-.27,2.7l-2.34,11.79h-8.83l2.15-10.74a10.2,10.2,0,0,0,.16-1.29,2,2,0,0,0-2.23-2.3c-2.08,0-3.4,1.35-3.94,4.06l-2.07,10.27H1581l4.26-21.36h8.31l-.42,2.15a9,9,0,0,1,3-1.92,9.67,9.67,0,0,1,3.38-.62A8,8,0,0,1,1605.15,136.64Z"/><path class="cls-9" d="M1629.72,269.2s13.82,0,15.35,8.44c.88,4.83-5.07,52.42-3.47,61.8,1.78,10.48,11.79,45.71,13.77,50.27,3.63,8.35,3.47,8.22,3.47,8.22s3.06,21.88-3.84,22.83-11.91-24.14-11.91-24.14l-17.18-42,.81-51.61Z"/></g></g></svg>