<svg xmlns="http://www.w3.org/2000/svg" viewBox="0 0 1612.9 612"><defs><style>.cls-1,.cls-2{fill:#6c63ff;}.cls-1{opacity:0.5;}.cls-3{fill:#fff;}.cls-4{fill:#6e6d6f;}.cls-5{fill:#a5a3a6;}.cls-6{fill:#f2f2f2;}.cls-7{fill:#bfaa5f;}.cls-8{fill:#ffe27e;}.cls-9{fill:#8f8047;}.cls-10{fill:#373738;}.cls-11{fill:#535253;}.cls-12{fill:#b8b0a8;}.cls-13{fill:#f5ebe0;}.cls-14{fill:#ffb9b9;}.cls-15{fill:#2f2e41;}.cls-16{fill:#575a89;}.cls-17{opacity:0.15;}.cls-17,.cls-31,.cls-33{isolation:isolate;}.cls-18{fill:#d0cde1;}.cls-19{fill:#ff5039;}.cls-20{fill:#48578a;}.cls-21{fill:#62739a;}.cls-22{fill:#9edb2c;}.cls-23{fill:#bcddfe;}.cls-24{fill:#f86197;}.cls-25{fill:#fdb556;}.cls-26{fill:#c4e83b;}.cls-27{fill:#e1f4fe;}.cls-28{fill:#d75288;}.cls-29{fill:#fd9025;}.cls-30{fill:#c9806f;}.cls-31{opacity:0.1;}.cls-32{fill:#ffb8b8;}.cls-34{fill:#575a88;}.cls-35{fill:#8985a8;}.cls-36{fill:#9f616a;}.cls-37{fill:#b3b2c1;}.cls-38{fill:#3f3d56;}.cls-39{fill:#33313f;}.cls-40{fill:#efb7b9;}.cls-41{fill:#f288e8;}.cls-42{fill:#d866d3;}.cls-43{fill:#f96058;}.cls-44{fill:#e94141;}.cls-45{fill:#ffa511;}.cls-46{fill:#ffdc13;}.cls-47{fill:#f48500;}.cls-48{fill:#0064db;}.cls-49{fill:#0050c4;}.cls-50{fill:#0b9cff;}.cls-51{fill:#fcee21;}</style></defs><title>Asset 5</title><g id="Layer_2" data-name="Layer 2"><g id="Layer_1-2" data-name="Layer 1"><ellipse class="cls-1" cx="135.5" cy="590" rx="124.5" ry="22"/><ellipse class="cls-1" cx="687.5" cy="590" rx="124.5" ry="22"/><ellipse class="cls-1" cx="1233.5" cy="590" rx="124.5" ry="22"/><rect class="cls-2" width="517.72" height="517.72"/><rect class="cls-3" x="54.44" y="49.27" width="407.92" height="296.45"/><path class="cls-4" d="M289.71,153.58l27.09,12.26-4.08,9,9,4.08-26.57,58.71-9-4.09-4.08,9L255,230.36l4.09-9-9-4.08,26.57-58.71,9,4.09Z"/><path class="cls-5" d="M252.39,163.9l27.1,12.26-4.09,9,9,4.08L257.87,248l-9-4.09-4.09,9-27.09-12.26,4.08-9-9-4.08,26.57-58.71,9,4.09Z"/><circle class="cls-6" cx="239.38" cy="228.74" r="4.96"/><circle class="cls-6" cx="257.77" cy="188.1" r="4.96"/><circle class="cls-6" cx="295.08" cy="177.78" r="4.96"/><circle class="cls-6" cx="276.69" cy="218.42" r="4.96"/><circle class="cls-6" cx="248.57" cy="208.42" r="7.44"/><circle class="cls-6" cx="285.89" cy="198.1" r="7.44"/><path class="cls-7" d="M280.24,138.42,194.44,99.6,204.66,77a5,5,0,0,1,6.56-2.47L288,109.28a5,5,0,0,1,2.47,6.56Z"/><path class="cls-8" d="M281.21,106.22l-70-31.67A5,5,0,0,0,204.66,77L194.44,99.6l79,35.76,10.22-22.58A5,5,0,0,0,281.21,106.22Z"/><path class="cls-9" d="M198.53,90.57l85.8,38.82-4.09,9L194.44,99.6Z"/><path class="cls-7" d="M198.53,90.57l79,35.76-4.09,9-79-35.76Z"/><path class="cls-10" d="M249.06,135.19l-31.61-14.3a5,5,0,0,1-2.47-6.56l2-4.51,40.64,18.39-2,4.51A5,5,0,0,1,249.06,135.19Z"/><path class="cls-11" d="M248.85,129.66l2-4.52L217,109.82l-2,4.51a5,5,0,0,0,2.47,6.56l24.84,11.24A5,5,0,0,0,248.85,129.66Z"/><path class="cls-4" d="M226.48,125l-3.06,6.77-8.61,7L182.12,211a12.39,12.39,0,1,0,22.58,10.21L237.39,149,237,137.88l3.06-6.77"/><path class="cls-5" d="M214.81,138.74,182.12,211a12.35,12.35,0,0,0,3.06,14.29,12.35,12.35,0,0,0,12.75-7.14l32.69-72.26-.43-11.07,3.07-6.78L226.48,125l-3.06,6.77Z"/><path class="cls-12" d="M188.3,227.4a12.4,12.4,0,0,1-6.18-16.4l5.11-11.29,22.58,10.21-5.11,11.29A12.39,12.39,0,0,1,188.3,227.4Z"/><path class="cls-13" d="M185.18,225.29a12.35,12.35,0,0,0,12.75-7.14L203,206.86l-15.81-7.15L182.12,211A12.35,12.35,0,0,0,185.18,225.29Z"/><path class="cls-12" d="M211.75,145.52l22.58,10.21-4.09,9-22.58-10.21Z"/><path class="cls-13" d="M211.75,145.52l15.81,7.15-4.09,9-15.81-7.15Z"/><polygon class="cls-14" points="87.38 546.06 81.78 563.87 99.08 565.4 97.56 546.06 87.38 546.06"/><polygon class="cls-14" points="171.36 559.8 171.36 584.23 191.21 584.23 185.61 559.8 171.36 559.8"/><path class="cls-15" d="M100.61,382.16l-8.14,77.37s-10.18,68.2-8.15,78.89-.51,12.22-.51,12.22H99.08s-.51-6.62,2.55-9.67,1.52-12.22,1.52-12.22l38.69-118.09,21.89,66.17s3.56,72.79,4.07,73.81,2,14.76,2,14.76h18.84s-2.55-8.14,1-10.69,6.62-.51,3.57-5.09-4.07-10.18-3.06-12.72,1-12.73,1-12.73-1.53-137.43-10.18-142S100.61,382.16,100.61,382.16Z"/><path class="cls-15" d="M176.74,571.28s-8.7-1.3-8.7-.87-10.45,28.73,0,28.29,50-6.09,47.43-16.54-15.67-7.39-15.67-7.39l-11.75-6.53Z"/><path class="cls-15" d="M91.05,562.27s8.7-1.3,8.7-.87,10.45,28.72,0,28.29-50-6.09-47.43-16.54S68,565.75,68,565.75l11.75-6.52Z"/><circle class="cls-14" cx="142.49" cy="216.73" r="20.03"/><path class="cls-14" d="M126.57,214.19s-3.56,35.63-8.15,38.18,35.13,5.09,35.13,5.09-9.68-32.58-6.62-35.63S126.57,214.19,126.57,214.19Z"/><path class="cls-16" d="M169.32,251.35s-14.25-13.74-30.54-11.2-28,5.6-28,5.6S85.85,259,85.34,269.67s9.16,50.9,9.16,50.9,4.58,65.66,5.09,65.66l86-1L169.83,299.7Z"/><path class="cls-14" d="M166,373.83c-3.3.89-9-.34-14.92-2.29a184.3,184.3,0,0,1-22-9.23s-36.64-14.76-47.33-22.4-3.57-38.17-3.57-38.17l16.29,5.09-1,18.83,40.21,26a90.94,90.94,0,0,1,18.62,3.74c6.77,2.23,13.34,5.69,15.72,11a10.33,10.33,0,0,1,.79,2.55C169.3,371.74,168.16,373.24,166,373.83Z"/><path class="cls-17" d="M168,366.38c-.71,2.63-1.39,5.14-2,7.45-3.3.89-9-.34-14.92-2.29l1.23-16.18C159.08,357.59,165.65,361.05,168,366.38Z"/><path class="cls-14" d="M160.67,292.07l-3,27-5.07,66.57s-28,33.71-12.24,34.73,24.43-33.09,24.43-33.09S180.52,333.3,180,322.1s0-30,0-30Z"/><path class="cls-15" d="M165.11,214.49a5.18,5.18,0,0,0,1.44-.87c1.09-1.06.91-2.86.43-4.3s-1.17-2.95-.83-4.44c.16-.69.54-1.32.65-2,.25-1.67-1.08-3.19-2.55-4s-3.17-1.23-4.56-2.18c-2.14-1.46-3.32-4-5.49-5.46s-4.81-1.43-7.35-1.43h-7.56c-3.95,0-8.29.15-11.23,2.79-.89.81-1.6,1.8-2.51,2.59-1.82,1.59-4.28,2.22-6.31,3.55a11,11,0,0,0-4.86,9.22c.07,3.35,1.71,6.61,1.28,9.94-.28,2.23-1.49,4.38-1.17,6.6.38,2.65,2.8,4.54,5.29,5.51s5.19,1.32,7.61,2.45c2,.92,4,2.39,6.12,1.75,1.76-.55,2.73-2.41,3.36-4.14a33.55,33.55,0,0,0,1.61-6.25,10.72,10.72,0,0,1,1.36-4.59,5.29,5.29,0,0,1,4.73-2c4.08.36,6.38,7.31,10.14,5.67,1.86-.82,3.29-3.26,4.78-4.59A23.87,23.87,0,0,1,165.11,214.49Z"/><path class="cls-16" d="M91.45,265.09s-10.18,3.56-14.25,17.82-2.55,23.92-2.55,23.92L96,310.39Z"/><path class="cls-16" d="M159.14,250.33s18.33-4.07,20.87,13.23a275.37,275.37,0,0,1,2.55,35.13s-17.31-8.15-24.94,0Z"/><rect class="cls-2" x="547.19" y="1.86" width="517.72" height="517.72"/><rect class="cls-3" x="601.63" y="51.13" width="407.92" height="296.45"/><path class="cls-14" d="M667.87,417.21l-3.88,34s-13.59,33-15.53,57.28l-1.94,27.18h12.62s16.5-38.83,17.47-49.51l23.3-70.86Z"/><path class="cls-14" d="M717.38,417.21l-3.88,34s-13.59,33-15.53,57.28l-2,27.18h12.62s16.51-38.83,17.48-49.51l23.29-70.86Z"/><path class="cls-14" d="M728.06,338.58l10.68,27.18s-1,23.3,11.65,21.36-1.95-25.24-1.95-25.24l-7.76-28.15S731,331.78,728.06,338.58Z"/><circle class="cls-14" cx="710.1" cy="234.23" r="17.47"/><path class="cls-14" d="M697,239.57S691.17,259,687.29,259s26.21,11.65,26.21,11.65-7.77-7.77,0-22.33Z"/><path class="cls-15" d="M678.55,345.37l-25.24,73.78s8.74,4.85,23.3,4.85,79.6-1.94,80.57-7.76-20.38-70.87-20.38-70.87l-3.89-24.26-47.56,12.62Z"/><path class="cls-15" d="M662.05,534.67H644.58l-2.92,12.62s-5.82,3.88-3.88,12.62,1,27.18,1,27.18l19.42,12.62s5.82-6.8,1.94-18.45Z"/><path class="cls-15" d="M711.56,534.67H694.08l-2.91,12.62s-5.82,3.88-3.88,12.62,1,27.18,1,27.18l19.41,12.62s5.83-6.8,1.94-18.45Z"/><path class="cls-18" d="M693.11,257s13.46,3.57,17.41,7.61l6.86,4,8.74,18.44s6.79,2.91,6.79,15.53,9.71,34,9.71,34,6.79,5.82,1.94,8.73a23.33,23.33,0,0,1-10.68,2.92s4.86-18.45-4.85-19.42-14.56-1.94-15.53,0S686.32,359,675.64,356.05s-4.85-32-4.85-32l8.73-67.95s6.8-1,10.68,0S693.11,257,693.11,257Z"/><path class="cls-14" d="M660.11,338.58l10.68,27.18s-1,23.3,11.64,21.36-1.94-25.24-1.94-25.24l-7.76-28.15S663,331.78,660.11,338.58Z"/><path class="cls-18" d="M681.46,257l-1.94-1s-5.82-5.83-12.62,1.94-13.59,48.54-13.59,48.54v12.62s-7.76,10.67-1,16.5,7.77,6.79,7.77,6.79,6.79-9.7,14.56-4.85l1-3.88a11.88,11.88,0,0,0,1.94-2.92c1-1.94,2.91,1,1.94-1.94s0-3.88,0-4.85,1-5.83,1-5.83l-1-30.09Z"/><path class="cls-15" d="M731.87,230.09s14.2-31-22.9-30.92c0,0-22.76-11.95-40.09,15.77L651,244.1l4.57-.91.58,4.55,5.83,3.58,4.39-4.54-.73,6.94,50.24,21.34s-18.94-21-11.63-45.71l3,6.06Z"/><ellipse class="cls-14" cx="701.28" cy="239.18" rx="2.45" ry="4.91"/><path class="cls-19" d="M213.41,282.31a2.86,2.86,0,0,1,.5,1.69,3.76,3.76,0,0,1-1.88,3.43,9.13,9.13,0,0,1-4.84,1.15h-8.3l2.88-14.38h7.62a6.85,6.85,0,0,1,3.84.89,2.9,2.9,0,0,1,1.32,2.54,3.5,3.5,0,0,1-.68,2.13,4.48,4.48,0,0,1-1.89,1.43A3.31,3.31,0,0,1,213.41,282.31Zm-4.76,2.54a1.14,1.14,0,0,0,.45-1,.8.8,0,0,0-.34-.7,1.36,1.36,0,0,0-.85-.25h-3.12l-.45,2.26h3.12A1.91,1.91,0,0,0,208.65,284.85Zm-2.79-7.26-.43,2.14h2.46c1.07,0,1.6-.42,1.6-1.26a.74.74,0,0,0-.33-.65,1.63,1.63,0,0,0-.94-.23Z"/><path class="cls-19" d="M229.18,277.34l-2.24,11.24h-4.38l.23-1.13a4.72,4.72,0,0,1-1.58,1,4.89,4.89,0,0,1-1.75.33,4.15,4.15,0,0,1-2.9-1,3.65,3.65,0,0,1-1.09-2.83,6.92,6.92,0,0,1,.15-1.42l1.23-6.21h4.64L220.36,283a5.85,5.85,0,0,0-.08.7c0,.8.38,1.19,1.13,1.19q1.6,0,2-2.13l1.09-5.41Z"/><path class="cls-19" d="M243.75,277.34l-6.91,11.47a11.74,11.74,0,0,1-1.8,2.39,5.37,5.37,0,0,1-1.88,1.22,6.93,6.93,0,0,1-2.34.36,6.51,6.51,0,0,1-1.84-.27,4.23,4.23,0,0,1-1.46-.7l2-3.23a2.7,2.7,0,0,0,1.68.6,1.56,1.56,0,0,0,1.15-.47l-2.46-11.37h4.62l1.15,6,3.54-6Z"/><path class="cls-19" d="M257.64,274.2l-2.88,14.38h-4.85l2.14-10.72h-2.47l.74-3.66Z"/><path class="cls-19" d="M273.46,277.14l-.82,4.11a5.81,5.81,0,0,0-1-.08,3,3,0,0,0-1.88.52,2.71,2.71,0,0,0-.93,1.69l-1.05,5.2h-4.64l2.23-11.24h4.38l-.22,1.15A5.38,5.38,0,0,1,273.46,277.14Z"/><path class="cls-19" d="M287,277.34l-2.24,11.24h-4.37l.2-1a4.22,4.22,0,0,1-3,1.23,4.38,4.38,0,0,1-2.22-.62,4.71,4.71,0,0,1-1.74-1.8,5.58,5.58,0,0,1-.66-2.78,6.74,6.74,0,0,1,.81-3.29,6.11,6.11,0,0,1,2.19-2.32,5.6,5.6,0,0,1,3-.84,3.58,3.58,0,0,1,3.2,1.39l.25-1.19Zm-8.93,7.31a1.6,1.6,0,0,0,1.23.48,1.8,1.8,0,0,0,1.47-.7,2.91,2.91,0,0,0,.56-1.87,1.84,1.84,0,0,0-.44-1.28,1.58,1.58,0,0,0-1.22-.48,1.79,1.79,0,0,0-1.47.69,2.88,2.88,0,0,0-.57,1.87A1.85,1.85,0,0,0,278.05,284.65Z"/><path class="cls-19" d="M298.57,280l-5.5,5.18h4.7l-.68,3.39H286.37l.53-2.67,5.51-5.18h-4.32l.68-3.39h10.34Z"/><path class="cls-19" d="M301.76,288.14a4.8,4.8,0,0,1-2.88-4.55,6.19,6.19,0,0,1,.9-3.3,6.41,6.41,0,0,1,2.5-2.31,7.6,7.6,0,0,1,3.61-.84,7.49,7.49,0,0,1,3.22.64,4.8,4.8,0,0,1,2.88,4.56,6.13,6.13,0,0,1-.9,3.29,6.5,6.5,0,0,1-2.5,2.32,7.6,7.6,0,0,1-3.61.84A7.49,7.49,0,0,1,301.76,288.14Zm5-3.71a2.86,2.86,0,0,0,.56-1.87,1.8,1.8,0,0,0-.44-1.28,1.57,1.57,0,0,0-1.22-.48,1.82,1.82,0,0,0-1.47.69,2.88,2.88,0,0,0-.56,1.87,1.81,1.81,0,0,0,.44,1.29,1.57,1.57,0,0,0,1.22.48A1.8,1.8,0,0,0,306.72,284.43Z"/><path class="cls-19" d="M322.61,277.14l-.82,4.11a5.81,5.81,0,0,0-1-.08,3,3,0,0,0-1.87.52,2.71,2.71,0,0,0-.94,1.69l-1.05,5.2h-4.64l2.24-11.24h4.38l-.23,1.15A5.4,5.4,0,0,1,322.61,277.14Z"/><path class="cls-19" d="M209.93,305.66h4.21l-1.23,6.2a8.92,8.92,0,0,1-2.65,1.27,11.28,11.28,0,0,1-3.19.44,8.75,8.75,0,0,1-3.87-.81,6,6,0,0,1-3.51-5.62,8.51,8.51,0,0,1,1.17-4.46,8.09,8.09,0,0,1,3.27-3.05,10.12,10.12,0,0,1,4.81-1.1c3,0,5.16.94,6.53,2.81L212,304a4,4,0,0,0-1.46-1.23,4.33,4.33,0,0,0-1.83-.36,4.25,4.25,0,0,0-2.19.56,3.69,3.69,0,0,0-1.43,1.55,4.9,4.9,0,0,0-.51,2.27,2.63,2.63,0,0,0,.85,2.05,3.31,3.31,0,0,0,2.32.77,4.72,4.72,0,0,0,1.41-.21Z"/><path class="cls-19" d="M227.49,308.7h-7.87a1.46,1.46,0,0,0,.68,1,3.05,3.05,0,0,0,1.48.3,4,4,0,0,0,2.45-.78l1.93,2.82a8.54,8.54,0,0,1-4.91,1.4,7.87,7.87,0,0,1-3.24-.64,5.08,5.08,0,0,1-2.18-1.81,4.92,4.92,0,0,1-.77-2.75,6.29,6.29,0,0,1,.88-3.32,6,6,0,0,1,2.45-2.3,7.66,7.66,0,0,1,3.64-.83,6.91,6.91,0,0,1,3.06.62,4.55,4.55,0,0,1,2,1.75,4.83,4.83,0,0,1,.68,2.58A8.15,8.15,0,0,1,227.49,308.7Zm-6.93-3.34a2.31,2.31,0,0,0-.75,1.1h3.68a1.37,1.37,0,0,0-.46-1.1,1.73,1.73,0,0,0-1.21-.4A1.94,1.94,0,0,0,220.56,305.36Z"/><path class="cls-19" d="M233.91,308.82a2.94,2.94,0,0,0,0,.33q0,.78.87.78a2.64,2.64,0,0,0,1-.26l.53,3.12a6.25,6.25,0,0,1-3,.66,4.55,4.55,0,0,1-3-.92,3.15,3.15,0,0,1-1.1-2.58,5.53,5.53,0,0,1,.12-1.11l.58-2.83h-1.56l.67-3.39h1.54l.64-3.15h4.65l-.64,3.15h2.3l-.68,3.39h-2.3Z"/><path class="cls-19" d="M250.65,309.48h4.67l-.76,3.76H243l.59-3,6-4.62a7.58,7.58,0,0,0,1.3-1.23,1.71,1.71,0,0,0,.36-1,.92.92,0,0,0-.36-.76,1.5,1.5,0,0,0-1-.29,2.3,2.3,0,0,0-1.22.36,3.77,3.77,0,0,0-1.06,1l-3.22-2a6,6,0,0,1,2.5-2.33,8,8,0,0,1,3.74-.87,7.44,7.44,0,0,1,2.86.53,4.83,4.83,0,0,1,2,1.47,3.39,3.39,0,0,1,.72,2.11,4.56,4.56,0,0,1-.76,2.55,11,11,0,0,1-2.67,2.61Z"/><path class="cls-19" d="M273.81,302.41a4.71,4.71,0,0,1,1.74,1.8,5.63,5.63,0,0,1,.66,2.78,6.71,6.71,0,0,1-.81,3.29,6,6,0,0,1-2.19,2.32,5.51,5.51,0,0,1-3,.85,3.52,3.52,0,0,1-3.4-1.69l-.28,1.48h-4.42l3-15.25h4.64l-.94,4.77a4.1,4.1,0,0,1,2.71-1A4.37,4.37,0,0,1,273.81,302.41Zm-2.87,6.68a2.86,2.86,0,0,0,.57-1.87,1.84,1.84,0,0,0-.44-1.28,1.58,1.58,0,0,0-1.23-.49,1.8,1.8,0,0,0-1.46.7,2.88,2.88,0,0,0-.57,1.87,1.87,1.87,0,0,0,.44,1.29,1.59,1.59,0,0,0,1.23.48A1.77,1.77,0,0,0,270.94,309.09Z"/><path class="cls-19" d="M279.56,298h4.65l-3,15.25h-4.65Z"/><path class="cls-19" d="M297.81,302l-2.24,11.24h-4.38l.21-1a4.19,4.19,0,0,1-3,1.24,4.38,4.38,0,0,1-2.22-.62,4.71,4.71,0,0,1-1.74-1.8,5.6,5.6,0,0,1-.66-2.78,6.74,6.74,0,0,1,.81-3.29,6,6,0,0,1,2.19-2.32,5.59,5.59,0,0,1,3-.84,3.59,3.59,0,0,1,3.21,1.39l.25-1.19Zm-8.93,7.31a1.59,1.59,0,0,0,1.23.48,1.77,1.77,0,0,0,1.46-.7,2.86,2.86,0,0,0,.57-1.87,1.84,1.84,0,0,0-.44-1.28,1.55,1.55,0,0,0-1.22-.49,1.8,1.8,0,0,0-1.47.7,2.88,2.88,0,0,0-.57,1.87A1.87,1.87,0,0,0,288.88,309.31Z"/><path class="cls-19" d="M313.08,298l-3,15.25h-4.38l.21-1a4.18,4.18,0,0,1-3,1.24,4.38,4.38,0,0,1-2.22-.62,4.57,4.57,0,0,1-1.74-1.8,5.61,5.61,0,0,1-.67-2.78A6.74,6.74,0,0,1,299,305a6,6,0,0,1,2.19-2.32,5.62,5.62,0,0,1,3-.84,3.64,3.64,0,0,1,3.21,1.37l1-5.18Zm-9.71,11.32a1.57,1.57,0,0,0,1.22.48,1.79,1.79,0,0,0,1.47-.7,2.86,2.86,0,0,0,.57-1.87,1.84,1.84,0,0,0-.44-1.28,1.58,1.58,0,0,0-1.23-.49,1.83,1.83,0,0,0-1.47.7,2.93,2.93,0,0,0-.56,1.87A1.82,1.82,0,0,0,303.37,309.31Z"/><path class="cls-19" d="M325,308.7h-7.87a1.41,1.41,0,0,0,.68,1,3,3,0,0,0,1.47.3,4,4,0,0,0,2.45-.78l1.93,2.82a8.52,8.52,0,0,1-4.91,1.4,7.87,7.87,0,0,1-3.24-.64,5,5,0,0,1-2.17-1.81,4.84,4.84,0,0,1-.77-2.75,6.38,6.38,0,0,1,.87-3.32,6,6,0,0,1,2.45-2.3,7.66,7.66,0,0,1,3.64-.83,6.91,6.91,0,0,1,3.06.62,4.58,4.58,0,0,1,2,1.75,4.91,4.91,0,0,1,.67,2.58A8.65,8.65,0,0,1,325,308.7Zm-6.94-3.34a2.45,2.45,0,0,0-.75,1.1H321a1.4,1.4,0,0,0-.45-1.1,1.75,1.75,0,0,0-1.21-.4A2,2,0,0,0,318.1,305.36Z"/><path class="cls-19" d="M327.28,313.16a7.08,7.08,0,0,1-2.12-.74l1.6-3.17a6.48,6.48,0,0,0,1.86.76,8.32,8.32,0,0,0,2.05.27c.92,0,1.37-.18,1.37-.53,0-.15-.12-.27-.35-.34a6.88,6.88,0,0,0-1.15-.22,14.69,14.69,0,0,1-2.05-.44,3.45,3.45,0,0,1-1.48-.9,2.47,2.47,0,0,1-.64-1.8,3.51,3.51,0,0,1,1.77-3.17,8.65,8.65,0,0,1,4.56-1.08,13.17,13.17,0,0,1,2.38.21,8.56,8.56,0,0,1,2,.63l-1.6,3.16a6.61,6.61,0,0,0-3.35-.84,2.6,2.6,0,0,0-1.08.16c-.23.11-.34.24-.34.39s.12.27.35.34a9.33,9.33,0,0,0,1.19.26,13.88,13.88,0,0,1,2,.44,3.34,3.34,0,0,1,1.46.91,2.42,2.42,0,0,1,.63,1.77,3.44,3.44,0,0,1-.83,2.32,5,5,0,0,1-2.26,1.42,10,10,0,0,1-3.2.48A13.59,13.59,0,0,1,327.28,313.16Z"/><path class="cls-19" d="M350.33,302.62h2.43l-.68,3.39H349.8l-1.46,7.23H343.7l1.43-7.23h-1.54l.68-3.39h1.54l.06-.27a5.65,5.65,0,0,1,1.87-3.33,5.79,5.79,0,0,1,3.85-1.23,6.38,6.38,0,0,1,2.85.55l-1.76,3.23a2.16,2.16,0,0,0-1.05-.27,1.13,1.13,0,0,0-.85.31,2,2,0,0,0-.45,1Z"/><path class="cls-19" d="M355.2,312.8a4.81,4.81,0,0,1-2.87-4.55,6.19,6.19,0,0,1,.9-3.3,6.27,6.27,0,0,1,2.5-2.31,8.29,8.29,0,0,1,6.83-.2,4.8,4.8,0,0,1,2.88,4.55,6.2,6.2,0,0,1-.91,3.3,6.27,6.27,0,0,1-2.5,2.31,7.48,7.48,0,0,1-3.6.85A7.57,7.57,0,0,1,355.2,312.8Zm5-3.71a2.91,2.91,0,0,0,.56-1.87,1.84,1.84,0,0,0-.44-1.28,1.55,1.55,0,0,0-1.22-.49,1.8,1.8,0,0,0-1.47.7A2.88,2.88,0,0,0,357,308a1.87,1.87,0,0,0,.44,1.29,1.6,1.6,0,0,0,1.23.48A1.8,1.8,0,0,0,360.17,309.09Z"/><path class="cls-19" d="M376.06,301.8l-.82,4.11a5.83,5.83,0,0,0-1-.09,3,3,0,0,0-1.88.53,2.71,2.71,0,0,0-.93,1.69l-1.05,5.2h-4.65L368,302h4.38l-.23,1.15A5.42,5.42,0,0,1,376.06,301.8Z"/><path class="cls-19" d="M388.41,302.62h2.42l-.67,3.39h-2.29l-1.45,7.23h-4.65l1.44-7.23h-1.54l.68-3.39h1.54l.06-.27a5.6,5.6,0,0,1,1.87-3.33,5.75,5.75,0,0,1,3.84-1.23,6.39,6.39,0,0,1,2.86.55l-1.77,3.23a2.16,2.16,0,0,0-1.05-.27,1.15,1.15,0,0,0-.85.31,1.94,1.94,0,0,0-.44,1Z"/><path class="cls-19" d="M402,301.8l-.82,4.11a5.83,5.83,0,0,0-1-.09,3,3,0,0,0-1.88.53,2.71,2.71,0,0,0-.93,1.69l-1.05,5.2h-4.64L393.9,302h4.37l-.22,1.15A5.38,5.38,0,0,1,402,301.8Z"/><path class="cls-19" d="M413.87,308.7H406a1.41,1.41,0,0,0,.68,1,3,3,0,0,0,1.48.3,4,4,0,0,0,2.44-.78l1.93,2.82a8.52,8.52,0,0,1-4.91,1.4,7.79,7.79,0,0,1-3.23-.64,5,5,0,0,1-2.18-1.81,4.84,4.84,0,0,1-.77-2.75,6.38,6.38,0,0,1,.87-3.32,6,6,0,0,1,2.46-2.3,7.59,7.59,0,0,1,3.63-.83,6.91,6.91,0,0,1,3.06.62,4.53,4.53,0,0,1,2,1.75,4.91,4.91,0,0,1,.67,2.58A8.65,8.65,0,0,1,413.87,308.7Zm-6.94-3.34a2.45,2.45,0,0,0-.75,1.1h3.68a1.4,1.4,0,0,0-.45-1.1,1.75,1.75,0,0,0-1.21-.4A2,2,0,0,0,406.93,305.36Z"/><path class="cls-19" d="M427.18,308.7h-7.87a1.46,1.46,0,0,0,.68,1,3.05,3.05,0,0,0,1.48.3,4,4,0,0,0,2.45-.78l1.93,2.82a8.54,8.54,0,0,1-4.91,1.4,7.87,7.87,0,0,1-3.24-.64,5.08,5.08,0,0,1-2.18-1.81,4.92,4.92,0,0,1-.77-2.75,6.29,6.29,0,0,1,.88-3.32,6,6,0,0,1,2.45-2.3,7.66,7.66,0,0,1,3.64-.83,6.91,6.91,0,0,1,3.06.62,4.55,4.55,0,0,1,2,1.75,4.92,4.92,0,0,1,.68,2.58A8.15,8.15,0,0,1,427.18,308.7Zm-6.93-3.34a2.31,2.31,0,0,0-.75,1.1h3.68a1.4,1.4,0,0,0-.45-1.1,1.78,1.78,0,0,0-1.22-.4A1.94,1.94,0,0,0,420.25,305.36Z"/><path class="cls-19" d="M434.38,312.79a2.09,2.09,0,0,1-.72-1.6,2.44,2.44,0,0,1,.81-1.89,2.88,2.88,0,0,1,2-.74,2.7,2.7,0,0,1,1.85.63,2.05,2.05,0,0,1,.72,1.59,2.51,2.51,0,0,1-.82,1.9,2.88,2.88,0,0,1-2,.77A2.62,2.62,0,0,1,434.38,312.79ZM436,298.86h5.55l-2.69,8.87h-3.7Z"/><path class="cls-19" d="M758.36,289.51a9.51,9.51,0,0,1-2.71-1.06l1.87-3.57a9.58,9.58,0,0,0,4.85,1.33,3.54,3.54,0,0,0,1.42-.22.69.69,0,0,0,.49-.62c0-.25-.17-.44-.5-.6a10.61,10.61,0,0,0-1.6-.49,17.89,17.89,0,0,1-2.38-.75,4.31,4.31,0,0,1-1.65-1.17,3,3,0,0,1-.71-2.09,4.76,4.76,0,0,1,.87-2.84,5.47,5.47,0,0,1,2.52-1.89,10.16,10.16,0,0,1,3.88-.67,13.44,13.44,0,0,1,3,.32,8.57,8.57,0,0,1,2.4.91l-1.75,3.54a6.2,6.2,0,0,0-1.86-.8,8.1,8.1,0,0,0-2.09-.27,3.47,3.47,0,0,0-1.56.29c-.37.19-.55.41-.55.67s.16.47.5.62a9.44,9.44,0,0,0,1.66.49,19.54,19.54,0,0,1,2.35.7,4.29,4.29,0,0,1,1.65,1.15,3,3,0,0,1,.7,2.06,4.61,4.61,0,0,1-.88,2.81,5.61,5.61,0,0,1-2.53,1.88,10.13,10.13,0,0,1-3.86.67A14.71,14.71,0,0,1,758.36,289.51Z"/><path class="cls-19" d="M781.19,278.75a4.78,4.78,0,0,1,1.74,1.8,5.65,5.65,0,0,1,.67,2.79,6.6,6.6,0,0,1-.82,3.28A6.2,6.2,0,0,1,780.6,289a5.62,5.62,0,0,1-3,.84,3.59,3.59,0,0,1-3.21-1.4l-1,5.18h-4.64l3-15.23h4.38l-.21,1a4.22,4.22,0,0,1,3-1.23A4.37,4.37,0,0,1,781.19,278.75Zm-2.86,6.68a2.91,2.91,0,0,0,.56-1.87,1.84,1.84,0,0,0-.44-1.28,1.58,1.58,0,0,0-1.22-.48,1.79,1.79,0,0,0-1.47.69,2.88,2.88,0,0,0-.57,1.87,1.85,1.85,0,0,0,.44,1.29,1.6,1.6,0,0,0,1.23.48A1.8,1.8,0,0,0,778.33,285.43Z"/><path class="cls-19" d="M796.85,285H789a1.43,1.43,0,0,0,.68,1,3,3,0,0,0,1.48.31,4,4,0,0,0,2.44-.78l1.93,2.81a8.52,8.52,0,0,1-4.91,1.4,7.66,7.66,0,0,1-3.23-.64,4.78,4.78,0,0,1-3-4.56,6.4,6.4,0,0,1,.87-3.32,6,6,0,0,1,2.46-2.3,7.71,7.71,0,0,1,3.63-.83,7.13,7.13,0,0,1,3.07.62,4.55,4.55,0,0,1,2,1.75,4.92,4.92,0,0,1,.68,2.58A8.55,8.55,0,0,1,796.85,285Zm-6.94-3.34a2.51,2.51,0,0,0-.75,1.1h3.68a1.41,1.41,0,0,0-.45-1.1,1.78,1.78,0,0,0-1.21-.4A2,2,0,0,0,789.91,281.7Z"/><path class="cls-19" d="M800.62,289.14a5.07,5.07,0,0,1-2.15-1.82,5,5,0,0,1-.76-2.73,6.11,6.11,0,0,1,.91-3.3,6.23,6.23,0,0,1,2.53-2.31,7.82,7.82,0,0,1,3.65-.84,6.73,6.73,0,0,1,3.49.88,4.8,4.8,0,0,1,2.08,2.4l-3.94,1.81a1.9,1.9,0,0,0-1.85-1.43,2,2,0,0,0-1.55.69,2.64,2.64,0,0,0-.61,1.81,1.89,1.89,0,0,0,.46,1.33,1.7,1.7,0,0,0,1.31.5,2.09,2.09,0,0,0,1.2-.34,2.84,2.84,0,0,0,.89-1.1l3.39,2a5.75,5.75,0,0,1-2.35,2.31,7.27,7.27,0,0,1-3.48.81A7.59,7.59,0,0,1,800.62,289.14Z"/><path class="cls-19" d="M812.08,278.34h4.62l-2.24,11.24h-4.62Zm.9-1.53a2,2,0,0,1-.72-1.57,2.29,2.29,0,0,1,.82-1.81,3.13,3.13,0,0,1,2.14-.72,2.94,2.94,0,0,1,1.91.59,1.88,1.88,0,0,1,.72,1.53,2.41,2.41,0,0,1-.81,1.89,3.12,3.12,0,0,1-2.15.72A2.8,2.8,0,0,1,813,276.81Z"/><path class="cls-19" d="M831.1,278.34l-2.24,11.24h-4.37l.2-1a4.22,4.22,0,0,1-3,1.23,4.41,4.41,0,0,1-2.22-.62,4.62,4.62,0,0,1-1.73-1.8,5.48,5.48,0,0,1-.67-2.78,6.74,6.74,0,0,1,.81-3.29A6.11,6.11,0,0,1,820,279a5.62,5.62,0,0,1,3-.84,3.57,3.57,0,0,1,3.2,1.39l.25-1.19Zm-8.92,7.31a1.57,1.57,0,0,0,1.22.48,1.8,1.8,0,0,0,1.47-.7,2.91,2.91,0,0,0,.56-1.87,1.8,1.8,0,0,0-.44-1.28,1.57,1.57,0,0,0-1.22-.48,1.82,1.82,0,0,0-1.47.69,2.88,2.88,0,0,0-.57,1.87A1.81,1.81,0,0,0,822.18,285.65Z"/><path class="cls-19" d="M833.94,274.34h4.64l-3,15.24H830.9Z"/><path class="cls-19" d="M863.42,279.13A3.7,3.7,0,0,1,864.5,282a6.66,6.66,0,0,1-.15,1.4l-1.23,6.2h-4.65l1.14-5.61a3.27,3.27,0,0,0,.08-.7,1.37,1.37,0,0,0-.27-.92.91.91,0,0,0-.74-.31c-.95,0-1.55.66-1.81,2l-1.11,5.57h-4.64l1.13-5.61a3.27,3.27,0,0,0,.08-.7,1.37,1.37,0,0,0-.27-.92.9.9,0,0,0-.74-.31c-.93,0-1.54.69-1.83,2.06l-1.08,5.48h-4.65L846,278.34h4.38l-.23,1.09a4.62,4.62,0,0,1,1.52-1,4.49,4.49,0,0,1,1.69-.32,4.19,4.19,0,0,1,1.93.45,3.28,3.28,0,0,1,1.38,1.33,5.09,5.09,0,0,1,1.74-1.32,5.19,5.19,0,0,1,2.2-.46A4,4,0,0,1,863.42,279.13Z"/><path class="cls-19" d="M879.93,278.34l-2.24,11.24h-4.38l.21-1a4.24,4.24,0,0,1-3,1.23,4.38,4.38,0,0,1-2.22-.62,4.57,4.57,0,0,1-1.74-1.8,5.48,5.48,0,0,1-.67-2.78,6.74,6.74,0,0,1,.81-3.29,6.11,6.11,0,0,1,2.19-2.32,5.62,5.62,0,0,1,3-.84,3.59,3.59,0,0,1,3.21,1.39l.24-1.19ZM871,285.65a1.57,1.57,0,0,0,1.22.48,1.8,1.8,0,0,0,1.47-.7,2.86,2.86,0,0,0,.57-1.87,1.84,1.84,0,0,0-.44-1.28,1.6,1.6,0,0,0-1.23-.48,1.82,1.82,0,0,0-1.47.69,2.93,2.93,0,0,0-.56,1.87A1.81,1.81,0,0,0,871,285.65Z"/><path class="cls-19" d="M889.69,283.42l3.68,6.16h-5.45L886,286.32l-1.19,1.11-.43,2.15h-4.65l3-15.24h4.65L886,281.55l3.64-3.21h5.71Z"/><path class="cls-19" d="M906.33,285h-7.87a1.43,1.43,0,0,0,.68,1,3,3,0,0,0,1.48.31,4,4,0,0,0,2.45-.78l1.93,2.81a8.54,8.54,0,0,1-4.91,1.4,7.71,7.71,0,0,1-3.24-.64,5,5,0,0,1-2.18-1.81,4.92,4.92,0,0,1-.77-2.75,6.4,6.4,0,0,1,.87-3.32,6.07,6.07,0,0,1,2.46-2.3,7.75,7.75,0,0,1,3.64-.83,7.08,7.08,0,0,1,3.06.62,4.55,4.55,0,0,1,2,1.75,4.92,4.92,0,0,1,.68,2.58A8,8,0,0,1,906.33,285Zm-6.93-3.34a2.36,2.36,0,0,0-.75,1.1h3.68a1.38,1.38,0,0,0-.46-1.1,1.78,1.78,0,0,0-1.21-.4A2,2,0,0,0,899.4,281.7Z"/><path class="cls-19" d="M908.35,281.9h6.16l-.7,3.49h-6.16Z"/><path class="cls-19" d="M929.47,278.34l-2.24,11.24h-4.38l.23-1.13a4.72,4.72,0,0,1-1.58,1,4.89,4.89,0,0,1-1.75.33,4.15,4.15,0,0,1-2.9-1,3.65,3.65,0,0,1-1.09-2.83,6.92,6.92,0,0,1,.15-1.42l1.23-6.21h4.64L920.65,284a5.85,5.85,0,0,0-.08.7c0,.8.38,1.19,1.13,1.19q1.6,0,2-2.13l1.09-5.41Z"/><path class="cls-19" d="M940.94,278.75a4.69,4.69,0,0,1,1.73,1.8,5.54,5.54,0,0,1,.67,2.79,6.7,6.7,0,0,1-.81,3.28,6.14,6.14,0,0,1-2.19,2.33,5.62,5.62,0,0,1-3,.84,3.58,3.58,0,0,1-3.2-1.4l-1,5.18h-4.65l3-15.23h4.38l-.2,1a4.22,4.22,0,0,1,3-1.23A4.4,4.4,0,0,1,940.94,278.75Zm-2.87,6.68a2.86,2.86,0,0,0,.57-1.87,1.8,1.8,0,0,0-.45-1.28,1.57,1.57,0,0,0-1.22-.48,1.82,1.82,0,0,0-1.47.69,2.88,2.88,0,0,0-.56,1.87,1.81,1.81,0,0,0,.44,1.29,1.57,1.57,0,0,0,1.22.48A1.8,1.8,0,0,0,938.07,285.43Z"/><path class="cls-19" d="M951.68,289.5a7,7,0,0,1-2.11-.74l1.6-3.16a6.53,6.53,0,0,0,1.86.76,8.21,8.21,0,0,0,2,.26c.92,0,1.38-.17,1.38-.53,0-.15-.12-.26-.36-.34a7.18,7.18,0,0,0-1.14-.21,15.75,15.75,0,0,1-2.05-.45,3.39,3.39,0,0,1-1.48-.9,2.43,2.43,0,0,1-.64-1.8,3.49,3.49,0,0,1,1.77-3.16,8.51,8.51,0,0,1,4.56-1.09,13.06,13.06,0,0,1,2.37.21,9.14,9.14,0,0,1,2,.63l-1.61,3.16a6.59,6.59,0,0,0-3.35-.84,2.63,2.63,0,0,0-1.08.17q-.33.16-.33.39c0,.15.11.26.34.34a10.08,10.08,0,0,0,1.2.25,15.71,15.71,0,0,1,2,.44,3.5,3.5,0,0,1,1.46.91,2.43,2.43,0,0,1,.63,1.78,3.39,3.39,0,0,1-.84,2.31,5,5,0,0,1-2.26,1.43,10.23,10.23,0,0,1-3.19.47A13.76,13.76,0,0,1,951.68,289.5Z"/><path class="cls-19" d="M974.37,285H966.5a1.41,1.41,0,0,0,.68,1,3,3,0,0,0,1.48.31,4,4,0,0,0,2.44-.78l1.93,2.81a8.52,8.52,0,0,1-4.91,1.4,7.63,7.63,0,0,1-3.23-.64,5,5,0,0,1-2.18-1.81,4.84,4.84,0,0,1-.77-2.75,6.4,6.4,0,0,1,.87-3.32,6,6,0,0,1,2.46-2.3,7.71,7.71,0,0,1,3.63-.83,7,7,0,0,1,3.06.62,4.53,4.53,0,0,1,2,1.75,4.92,4.92,0,0,1,.68,2.58A8.55,8.55,0,0,1,974.37,285Zm-6.94-3.34a2.51,2.51,0,0,0-.75,1.1h3.68a1.41,1.41,0,0,0-.45-1.1,1.8,1.8,0,0,0-1.21-.4A2,2,0,0,0,967.43,281.7Z"/><path class="cls-19" d="M980.78,285.17a2,2,0,0,0,0,.32c0,.52.29.78.86.78a2.44,2.44,0,0,0,1-.26l.53,3.12a6.2,6.2,0,0,1-3,.66,4.57,4.57,0,0,1-3-.92,3.16,3.16,0,0,1-1.1-2.57,4.8,4.8,0,0,1,.13-1.11l.57-2.84h-1.56l.68-3.39h1.54l.64-3.14h4.64L982,279h2.3l-.67,3.39h-2.31Z"/><path class="cls-19" d="M759.39,313.8a4.8,4.8,0,0,1-2.88-4.55,6.11,6.11,0,0,1,.91-3.3,6.31,6.31,0,0,1,2.49-2.31,7.66,7.66,0,0,1,3.61-.84,7.57,7.57,0,0,1,3.23.64,4.81,4.81,0,0,1,2.87,4.55,6.19,6.19,0,0,1-.9,3.3,6.34,6.34,0,0,1-2.5,2.31,8.19,8.19,0,0,1-6.83.2Zm5-3.71a2.86,2.86,0,0,0,.57-1.87,1.84,1.84,0,0,0-.44-1.28,1.58,1.58,0,0,0-1.23-.49,1.83,1.83,0,0,0-1.47.7,2.93,2.93,0,0,0-.56,1.87,1.87,1.87,0,0,0,.44,1.29,1.57,1.57,0,0,0,1.22.48A1.77,1.77,0,0,0,764.35,310.09Z"/><path class="cls-19" d="M782.6,303.78a3.63,3.63,0,0,1,1.1,2.84,7.76,7.76,0,0,1-.14,1.42l-1.24,6.2h-4.64l1.13-5.65a5.65,5.65,0,0,0,.08-.68c0-.81-.39-1.21-1.17-1.21-1.1,0-1.79.71-2.08,2.14l-1.08,5.4h-4.65L772.15,303h4.38l-.23,1.13a4.82,4.82,0,0,1,1.59-1,5.27,5.27,0,0,1,1.78-.32A4.2,4.2,0,0,1,782.6,303.78Z"/><path class="cls-19" d="M787.38,299H792l-3,15.25h-4.64Z"/><path class="cls-19" d="M805.81,303l-6.9,11.47a11.74,11.74,0,0,1-1.81,2.39,5.33,5.33,0,0,1-1.88,1.21,7.24,7.24,0,0,1-4.18.1,4.62,4.62,0,0,1-1.46-.7l2-3.23a2.7,2.7,0,0,0,1.68.6,1.53,1.53,0,0,0,1.15-.48L792,303h4.62l1.15,6,3.54-6Z"/><path class="cls-19" d="M817.58,303.62H820l-.68,3.39h-2.28l-1.46,7.23H811l1.43-7.23h-1.54l.68-3.39h1.54l.06-.27A5.65,5.65,0,0,1,815,300a5.79,5.79,0,0,1,3.85-1.23,6.38,6.38,0,0,1,2.85.55l-1.76,3.23a2.16,2.16,0,0,0-1-.27,1.13,1.13,0,0,0-.85.31,2,2,0,0,0-.45,1Z"/><path class="cls-19" d="M822.45,313.8a4.81,4.81,0,0,1-2.87-4.55,6.19,6.19,0,0,1,.9-3.3,6.34,6.34,0,0,1,2.5-2.31,8.29,8.29,0,0,1,6.83-.2,4.8,4.8,0,0,1,2.88,4.55,6.11,6.11,0,0,1-.91,3.3,6.31,6.31,0,0,1-2.49,2.31,8.21,8.21,0,0,1-6.84.2Zm5-3.71a2.91,2.91,0,0,0,.56-1.87,1.84,1.84,0,0,0-.44-1.28,1.55,1.55,0,0,0-1.22-.49,1.8,1.8,0,0,0-1.47.7,2.88,2.88,0,0,0-.57,1.87,1.87,1.87,0,0,0,.44,1.29,1.6,1.6,0,0,0,1.23.48A1.8,1.8,0,0,0,827.42,310.09Z"/><path class="cls-19" d="M843.31,302.8l-.82,4.11a5.83,5.83,0,0,0-1-.09,3,3,0,0,0-1.88.53,2.71,2.71,0,0,0-.93,1.69l-1,5.2H833L835.21,303h4.38l-.23,1.15A5.42,5.42,0,0,1,843.31,302.8Z"/><path class="cls-19" d="M863.28,303l-6.9,11.47a11.74,11.74,0,0,1-1.81,2.39,5.33,5.33,0,0,1-1.88,1.21,7.2,7.2,0,0,1-4.17.1,4.57,4.57,0,0,1-1.47-.7l2-3.23a2.73,2.73,0,0,0,1.69.6,1.56,1.56,0,0,0,1.15-.48L849.43,303h4.63l1.15,6,3.53-6Z"/><path class="cls-19" d="M864.8,313.8a4.81,4.81,0,0,1-2.87-4.55,6.19,6.19,0,0,1,.9-3.3,6.34,6.34,0,0,1,2.5-2.31,8.29,8.29,0,0,1,6.83-.2A4.8,4.8,0,0,1,875,308a6.11,6.11,0,0,1-.91,3.3,6.31,6.31,0,0,1-2.49,2.31,8.21,8.21,0,0,1-6.84.2Zm5-3.71a2.91,2.91,0,0,0,.56-1.87,1.84,1.84,0,0,0-.44-1.28,1.54,1.54,0,0,0-1.22-.49,1.8,1.8,0,0,0-1.47.7,2.88,2.88,0,0,0-.57,1.87,1.87,1.87,0,0,0,.44,1.29,1.6,1.6,0,0,0,1.23.48A1.8,1.8,0,0,0,869.77,310.09Z"/><path class="cls-19" d="M889.87,303l-2.24,11.24h-4.37l.22-1.13a4.78,4.78,0,0,1-1.58,1,4.89,4.89,0,0,1-1.75.33,4.12,4.12,0,0,1-2.89-1,3.61,3.61,0,0,1-1.09-2.83,6.91,6.91,0,0,1,.14-1.42l1.23-6.21h4.65l-1.13,5.65a4.17,4.17,0,0,0-.08.7c0,.8.37,1.19,1.13,1.19,1.06,0,1.74-.71,2-2.13l1.09-5.41Z"/><path class="cls-19" d="M896.49,313.79a2.09,2.09,0,0,1-.72-1.6,2.44,2.44,0,0,1,.81-1.89,2.89,2.89,0,0,1,2-.74,2.71,2.71,0,0,1,1.85.63,2.08,2.08,0,0,1,.72,1.59,2.52,2.52,0,0,1-.83,1.9,2.87,2.87,0,0,1-2,.77A2.62,2.62,0,0,1,896.49,313.79Zm1.64-13.93h5.55L901,308.73h-3.7Z"/><path class="cls-20" d="M869.23,133.76a2.86,2.86,0,0,0-2.86,2.86v70.13a2.86,2.86,0,0,0,5.71,0V136.62A2.86,2.86,0,0,0,869.23,133.76Z"/><path class="cls-20" d="M862.07,85.72H851.86a2.86,2.86,0,0,0,0,5.72h10.21a2.86,2.86,0,0,0,0-5.72Z"/><path class="cls-20" d="M862.07,96.13H851.86a2.86,2.86,0,0,0,0,5.72h10.21a2.86,2.86,0,0,0,0-5.72Z"/><path class="cls-20" d="M862.07,106.54H851.86a2.86,2.86,0,1,0,0,5.71h10.21a2.86,2.86,0,1,0,0-5.71Z"/><path class="cls-20" d="M862.07,116.94H851.86a2.86,2.86,0,0,0,0,5.72h10.21a2.86,2.86,0,0,0,0-5.72Z"/><path class="cls-20" d="M862.07,127.35H851.86a2.86,2.86,0,0,0,0,5.72h10.21a2.86,2.86,0,0,0,0-5.72Z"/><path class="cls-20" d="M876.38,91.44h10.21a2.86,2.86,0,1,0,0-5.72H876.38a2.86,2.86,0,0,0,0,5.72Z"/><path class="cls-20" d="M886.59,96.13H876.38a2.86,2.86,0,0,0,0,5.72h10.21a2.86,2.86,0,1,0,0-5.72Z"/><path class="cls-20" d="M886.59,106.54H876.38a2.86,2.86,0,1,0,0,5.71h10.21a2.86,2.86,0,1,0,0-5.71Z"/><path class="cls-20" d="M886.59,116.94H876.38a2.86,2.86,0,0,0,0,5.72h10.21a2.86,2.86,0,1,0,0-5.72Z"/><path class="cls-20" d="M886.59,127.35H876.38a2.86,2.86,0,0,0,0,5.72h10.21a2.86,2.86,0,1,0,0-5.72Z"/><path class="cls-21" d="M763.88,82.17c-14.92,0-25,3.27-30.26,5.63a4.61,4.61,0,0,0-2.29,6.1,3.88,3.88,0,0,0,.24.45l20.25,34.36h24.11L796.2,94.35A4.61,4.61,0,0,0,794.6,88a4.16,4.16,0,0,0-.47-.24C788.83,85.44,778.8,82.17,763.88,82.17Z"/><path class="cls-20" d="M794.13,87.8c-5.3-2.36-15.33-5.63-30.25-5.63s-25,3.27-30.26,5.63c35.92-13.42,32.65,40.89,32.64,40.91h9.67L796.2,94.35A4.61,4.61,0,0,0,794.6,88a4.16,4.16,0,0,0-.47-.24Z"/><path class="cls-20" d="M758.64,131.57a2.86,2.86,0,0,1-2.86-2.86V103.46a2.86,2.86,0,1,1,5.72,0v25.25A2.86,2.86,0,0,1,758.64,131.57Z"/><path class="cls-21" d="M769.12,131.57a2.86,2.86,0,0,1-2.86-2.86V112.65a2.86,2.86,0,1,1,5.72,0h0v16.06A2.86,2.86,0,0,1,769.12,131.57Z"/><path class="cls-22" d="M763.88,255.33a7.36,7.36,0,0,1-7.35-7.06l-4.71-119.56h24.11l-4.71,119.56A7.35,7.35,0,0,1,763.88,255.33Z"/><path class="cls-23" d="M774.65,161.41l.59-15.14H752.52l.6,15.14Z"/><path class="cls-24" d="M796.33,170h39.23v22.66H796.33Z"/><path class="cls-21" d="M790.93,192.63h50V255.3h-50Z"/><path class="cls-21" d="M796.33,157.55h39.23V170H796.33Z"/><path class="cls-24" d="M829.65,157.55H802.23v-50.3l27.42,25.19Z"/><path class="cls-21" d="M869.23,82.17h0a7.15,7.15,0,0,1,7.15,7.15v40.15a7.15,7.15,0,0,1-7.15,7.15h0a7.16,7.16,0,0,1-7.16-7.15V89.32A7.16,7.16,0,0,1,869.23,82.17Z"/><path class="cls-25" d="M852.42,206.74H886v48.59H852.42Z"/><path class="cls-26" d="M759.05,253.48a7.31,7.31,0,0,0,2.5-5.21l4.71-119.56H751.82l4.71,119.56A7.33,7.33,0,0,0,759.05,253.48Z"/><path class="cls-27" d="M765.57,146.27H752.52l.42,10.56.18,4.58H765Z"/><path class="cls-20" d="M821.85,192.63H841V255.3H821.85Z"/><path class="cls-28" d="M817.49,170h18.07v22.66H817.49Z"/><path class="cls-20" d="M817.49,157.55h18.07V170H817.49Z"/><path class="cls-28" d="M822.24,125.62c-1.51-3.77-3-6.91-3-6.91l-17-9.32A53,53,0,0,0,816,132.69v24.85h13.71v-25.1Z"/><ellipse class="cls-24" cx="815.93" cy="119.96" rx="5.46" ry="18.77" transform="translate(154.16 612.08) rotate(-45)"/><path class="cls-29" d="M872.08,206.74H886v48.59H872.08Z"/><rect class="cls-2" x="1095.19" y="0.86" width="517.72" height="517.72"/><rect class="cls-3" x="1149.63" y="50.13" width="407.92" height="296.45"/><path class="cls-15" d="M1189.16,128.38s1.72,2-1.23,5.78-.56,12.08,5,12.29,8.31,2.56,7,5.64-3,10.42,3.12,9.31,8,1.31,6.94,3.17,2.72-3.71,2.72-3.71,3.39,5.06,7.56,1.52,5.82-35.63-2.67-36.18S1189.16,128.38,1189.16,128.38Z"/><polygon class="cls-30" points="1232.22 281 1234.16 294.55 1242.87 294.55 1239.97 279.07 1232.22 281"/><path class="cls-6" d="M1243.84,286.33s11.61,10.64,8.71,11.61-13.55,12.58-15.49,13.55c-1.73.87-20.32,6.77-17.42,0s9.68-10.65,9.68-10.65l1.94-11.61Z"/><path class="cls-31" d="M1243.84,286.33s11.61,10.64,8.71,11.61-13.55,12.58-15.49,13.55c-1.73.87-20.32,6.77-17.42,0s9.68-10.65,9.68-10.65l1.94-11.61Z"/><polygon class="cls-30" points="1243.84 270.84 1245.77 284.39 1254.48 284.39 1251.58 268.9 1243.84 270.84"/><path class="cls-32" d="M1207.44,234.87l12.69-41.94s-21.3-19.36-6.78-25.17S1231.74,191,1231.74,191l-4.84,50.33h-19.36Z"/><path class="cls-2" d="M1237.06,204.06s-25,32.08-21.21,36.85,10.57,33.8,10.57,33.8-1,11.62,2.9,11.62,13.55-1.94,13.55-4.84-8.71-39.69-8.71-39.69l25.16-32.9Z"/><path class="cls-2" d="M1239,206l25.16-13.55s17.43,8.71,12.59,16.46-27.1,28.06-27.1,28.06,6.77,32.91,5.8,33.88-11.61,4.84-14.52,3.87-18.38-38.71-14.51-40.65,16.45-22.26,16.45-22.26Z"/><path class="cls-33" d="M1170.28,561.2s17.42,10.65,19.36,10.65,28.07,6.77,16.45,11.61-56.13-1.93-55.17-4.84,0-20.32,1.94-20.32S1170.28,561.2,1170.28,561.2Z"/><path class="cls-15" d="M1189.64,574.75s17.42,10.65,19.36,10.65,28.06,6.77,16.45,11.61-56.14-1.93-55.17-4.84,0-20.32,1.94-20.32S1189.64,574.75,1189.64,574.75Z"/><path class="cls-34" d="M1171.25,369.56s2.9,14.52,7.74,25.17-1,61-3.87,68.72-31,99.69-22.26,100.65,26.13,0,26.13,0L1207.06,476,1202.22,358Z"/><path class="cls-33" d="M1171.25,369.56s2.9,14.52,7.74,25.17-1,61-3.87,68.72-31,99.69-22.26,100.65,26.13,0,26.13,0L1207.06,476,1202.22,358Z"/><path class="cls-15" d="M1177.06,370.53s3.87,26.13,12.58,31.94,5.8,11.61,5.8,11.61l-3.87,51.3s-37.74,92.92-26.13,104.53,22.26,6.78,27.1,5.81,13.55-21.29,8.71-27.1,9.68-40.65,13.55-46.46,0-13.55,4.84-15.49,15.49-14.51,15.49-23.22S1248.68,361.82,1240,356s-64.55,12-64.55,12Z"/><circle class="cls-32" cx="1158.67" cy="213.73" r="21.29"/><circle class="cls-30" cx="1207.06" cy="136.31" r="17.42"/><path class="cls-32" d="M1173.18,213.73s11.62,21.3,17.43,21.3-23.23,22.26-23.23,22.26-9.68-28.07-11.62-29S1173.18,213.73,1173.18,213.73Z"/><path class="cls-35" d="M1177.06,233.09s-25.17,8.71-24.2,11.62-6.78,9.68-6.78,12.58-1.93,29,9.68,50.33,30,36.78,21.3,46.46-22.27,26.13-7.75,26.13,37.75-21.29,59-13.55,16.46-21.29,16.46-21.29,2.9-22.27-2.91-29-26.13-55.17-26.13-61-19.36-28.06-24.2-28.06S1177.06,233.09,1177.06,233.09Z"/><path class="cls-36" d="M1211.9,147s7.88,15,8.29,17.66,14-17.66,14-17.66l-15.49-10.64Z"/><path class="cls-6" d="M1214.8,158.57l16.46-17.43,19.35,8.72s18.06,39.68,19.19,42.58S1240.93,208.9,1238,208.9s-23.23-30-23.23-30S1210,164.37,1214.8,158.57Z"/><polygon class="cls-30" points="1207.06 181.79 1207.06 199.22 1218.67 199.22 1214.85 181.79 1207.06 181.79"/><path class="cls-30" d="M1213.69,194.86a7.22,7.22,0,0,0-6.82,4.58c-.76,2.05-.5,4.2,3.09,5.1,7.75,1.94,8.71,0,8.71,0s13.45-1.94,10.6-5.81-10.6-3.87-10.6-3.87Z"/><path class="cls-6" d="M1255.45,278.58s11.62,10.65,8.71,11.62-13.55,12.58-15.48,13.55c-1.73.86-20.33,6.77-17.42,0s9.67-10.65,9.67-10.65l1.94-11.61Z"/><path class="cls-15" d="M1151.08,197.34c1.33-.78,2.9-1.75,2.94-3.29a2.93,2.93,0,0,0-1.91-2.57,8.63,8.63,0,0,0-3.35-.45,4.68,4.68,0,0,0-1.29.13c-1.1.34-1.74,1.46-2.6,2.22-1.27,1.1-3,1.43-4.62,1.85a29.87,29.87,0,0,0-7.75,3.21,3.59,3.59,0,0,0-1.22,1,4.9,4.9,0,0,0-.49,2.5c-.22,3.28-2.19,6.14-3.66,9.09s-2.44,6.61-.71,9.41c.68.88,1.32,1.78,1.91,2.72,1.23,2.55-.3,5.69.58,8.37a7.29,7.29,0,0,0,1.86,2.78,14.68,14.68,0,0,0,6.1,3.69c2.19.68,4.92,1.13,5.79,3.26.36.92.29,2,.81,2.84a4.52,4.52,0,0,0,3.18,1.59,13.59,13.59,0,0,0,4.12.3,5.1,5.1,0,0,0,3.55-1.9,10.29,10.29,0,0,1,1.44-2.12c1.4-1.18,3.53-.25,5.33-.56a3.91,3.91,0,0,0,3.06-2.87,5.46,5.46,0,0,1,.62-2.19c1.12-1.43,4.06-.42,4.79-2.08.48-1.08-.52-2.21-1.49-2.89a42,42,0,0,1-4.77-3.23c-1.42-1.3-2.47-3.24-2-5.11.66-2.81,4.33-4.35,4.45-7.24.07-1.65-1.12-3.1-2.45-4.08a38.18,38.18,0,0,1-4-2.84c-.87-.84-1.52-1.89-2.47-2.65-1.7-1.36-4-1.53-6.21-1.75-1.16-.12-5.81-.66-5.63-2.43C1145.07,200.58,1149.9,198,1151.08,197.34Z"/><path class="cls-6" d="M1214.8,157.6s-10.64,3.87-10.64,8.71-4.84,20.32,0,20.32,14.51-3.71,14.51-3.71Z"/><path class="cls-32" d="M1211.9,227.29s28.07-9.68,29-9.68,14.52-7.75,13.56-10.65l-3.88-24.2s-15.48-31.94-4.84-31.94S1262.23,176,1262.23,176s23.23,43.55,10.64,53.23-64.84,27.1-67.75,24.2S1211.9,227.29,1211.9,227.29Z"/><path class="cls-30" d="M1239,164.37l6.53,6.3-8.47,8.22s-11.61-4.84-10.64-1.93,6.77,11.61,10.64,11.61,24-12.58,24.11-16.45-12.49-17.43-15.4-18.39S1239,164.37,1239,164.37Z"/><path class="cls-6" d="M1226.71,157.63s14.22,12.55,16.16,12.55,5.46-18.86,5.46-18.86-11.48-7.48-15.73-5.44S1226.71,157.63,1226.71,157.63Z"/><path class="cls-35" d="M1177.06,238.9s0-13.55,29-13.55h12.58l-5.8,31.94-19.36,5.81Z"/><path class="cls-15" d="M1240.48,129.24a73.35,73.35,0,0,1-8.51-.52c-2.22-5.36-5-9.86-8.11-11.54-2.17-1.94-5.51-3.35-8.14-4.47-6.45-2.74-17.18-1-17.81,2.09-12.69,6.06-9.48,16.71-9.48,16.71,2,4.16,6.39,2.32,10.14.43,1,3,3.23,5.59,6.47,5.71,6.19.23,9.2,2.83,7.7,6.25s-3.28,11.54,3.46,10.3,8.89,1.45,7.69,3.52,3-4.11,3-4.11,3.76,5.61,8.38,1.68a3.56,3.56,0,0,0,1-1.64c2.15.92,3.85,1.27,4.81.84,5.53-2.47,2.1-8.28,2.1-8.28s7.38-1.14,5-1-3.88-2.89.14-8.45S1244.21,129.37,1240.48,129.24Z"/><rect class="cls-2" x="1195.93" y="127.11" width="8.71" height="2.9" transform="translate(699.3 1226.84) rotate(-71.59)"/><path class="cls-2" d="M1336.9,319.69c-1.55,5.94-2.05,12.1-2.55,18.22L1333.23,352c-.66,8-1.32,16.06-1.89,24.1-.18,2.58-.36,5.16-.66,7.73-.37,3.25-1.15,6.58-1.84,9.77l10.88,1a2.21,2.21,0,0,0,1.55-.25,2.14,2.14,0,0,0,.62-1.15l2.46-8.36c1.72-5.84,3.45-11.75,3.92-17.83.53-6.86-.57-13.75-.8-20.64-.3-8.95.85-17.91.23-26.84-.18-2.66-.53-5.32-.88-8l-1-7.89A36.27,36.27,0,0,0,1336.9,319.69Z"/><path class="cls-37" d="M1336.9,319.69c-1.55,5.94-2.05,12.1-2.55,18.22L1333.23,352c-.66,8-1.32,16.06-1.89,24.1-.18,2.58-.36,5.16-.66,7.73-.37,3.25-1.15,6.58-1.84,9.77l10.88,1a2.21,2.21,0,0,0,1.55-.25,2.14,2.14,0,0,0,.62-1.15l2.46-8.36c1.72-5.84,3.45-11.75,3.92-17.83.53-6.86-.57-13.75-.8-20.64-.3-8.95.85-17.91.23-26.84-.18-2.66-.53-5.32-.88-8l-1-7.89A36.27,36.27,0,0,0,1336.9,319.69Z"/><path class="cls-38" d="M1323.37,566.27c-.67-1.14-1.43-2.83-2.66-3.5-1.06-.57-11-.83-11.12-.39a19.12,19.12,0,0,1-17,16c-2.08.21-4.15.1-6.08.77s-3.7,2.47-3.5,4.47a4.7,4.7,0,0,0,.36,1.37,8,8,0,0,0,3.2,4.19,9.48,9.48,0,0,0,2.53.87c6,1.34,12.08,1,18.29,1.5s12.61,2.08,18.6.46c1.44-.39,3-1.1,3.51-2.48a5.57,5.57,0,0,0,.21-2.22c-.18-3.88-.37-7.8-1.62-11.47a34.24,34.24,0,0,0-1.67-3.89C1325.48,570,1324.46,568.12,1323.37,566.27Z"/><path class="cls-31" d="M1323.37,566.27c-.67-1.14-1.43-2.83-2.66-3.5-1.06-.57-11-.83-11.12-.39a19.12,19.12,0,0,1-17,16c-2.08.21-4.15.1-6.08.77s-3.7,2.47-3.5,4.47a4.7,4.7,0,0,0,.36,1.37,8,8,0,0,0,3.2,4.19,9.48,9.48,0,0,0,2.53.87c6,1.34,12.08,1,18.29,1.5s12.61,2.08,18.6.46c1.44-.39,3-1.1,3.51-2.48a5.57,5.57,0,0,0,.21-2.22c-.18-3.88-.37-7.8-1.62-11.47a34.24,34.24,0,0,0-1.67-3.89C1325.48,570,1324.46,568.12,1323.37,566.27Z"/><path class="cls-38" d="M1306.76,569.22c-.67-1.14-1.44-2.83-2.66-3.51-1.06-.57-11-.84-11.12-.39a19.16,19.16,0,0,1-16.93,16c-2.08.21-4.15.1-6.08.77s-3.7,2.48-3.5,4.48a4.7,4.7,0,0,0,.36,1.37,7.87,7.87,0,0,0,3.19,4.18,9.23,9.23,0,0,0,2.54.88c6,1.34,12.08.93,18.29,1.49s12.6,2.09,18.59.47c1.45-.39,3-1.1,3.52-2.49a5.53,5.53,0,0,0,.2-2.22c-.17-3.87-.36-7.8-1.61-11.47a36,36,0,0,0-1.67-3.88Q1308.44,572,1306.76,569.22Z"/><path class="cls-39" d="M1268.41,455c.2-5.37-.63-10.74-.63-16.12a96.32,96.32,0,0,1,1.9-16.06l6.72-38a2.59,2.59,0,0,1,.14-1.07,2.67,2.67,0,0,1,3.4-1.66c17.88,1.33,36,3,53.84,2a75.79,75.79,0,0,1,10.28,21,30.9,30.9,0,0,1,1.45,6.79c.32,4.22-.75,8.4-1.75,12.5q-2.34,9.24-4.65,18.48l-3.27,13c-2.15,8.51-4.3,17.09-4.7,25.86a53.21,53.21,0,0,0,1,13.15,107.92,107.92,0,0,1,1.21,39.41,183.57,183.57,0,0,1-7.89,32.58,28.92,28.92,0,0,0-15-3.41,178.85,178.85,0,0,0,3.08-45.25,19.27,19.27,0,0,0-.77-5.28c-.53-1.49-1.36-2.84-2-4.28a29.76,29.76,0,0,1-2-7.48,101,101,0,0,1-1.23-19.81c.23-6.24-1.3-12.45-2.61-18.67a85.67,85.67,0,0,1-1.49-8.88,3.05,3.05,0,0,1-.06-.6,85.91,85.91,0,0,0-12,29.33,39.5,39.5,0,0,0-.82,14.45,22.5,22.5,0,0,0,1.94,6.24,114.14,114.14,0,0,1,10,29.59,127.89,127.89,0,0,1,2.2,20.48c.13,5.06-.11,10.34,2.13,14.89-5.86-1-11.54.28-17.1,2.39,1.93-4.29-.1-9.11-1.9-13.46q-4.54-11-8.62-22.2c-6.84-18.85-12.67-38.46-12.54-58.52C1266.72,469,1268.08,462.17,1268.41,455Z"/><path class="cls-31" d="M1308.09,442a67,67,0,0,1,5.81-7.6,78,78,0,0,1,5.6-6.18c1-.91,4.17-4.42,5.47-4.18a22.2,22.2,0,0,1-1.66,4.67c-.44,1-.94,2-1.43,3l-2.64,5.39c-.89,1.8-1.77,3.6-2.69,5.38-3.58,6.89-7.77,13.45-11.67,20.18a85.67,85.67,0,0,1-1.49-8.88A36.69,36.69,0,0,1,1308.09,442Z"/><path class="cls-40" d="M1313.55,262.82c-1.59,6.64,14.34,22.46,14.34,22.46s-29.34,6.26-27.71,3-7.17-19.14-7.17-19.14S1315.13,256.19,1313.55,262.82Z"/><circle class="cls-40" cx="1299.69" cy="253.76" r="20.11"/><path class="cls-18" d="M1275,295.18c-1.47,4.37-.55,9.2.75,13.6s1.67,9,2.92,13.4c1.44,5,1.22,10.36.44,15.5S1277,347.87,1276,353c-1.38,7.54-1.85,15.14-3.71,22.52-1.17,4.64-3,9.44-2.17,14.14,9.18,4,19.47,4.22,29.46,4.42a42.58,42.58,0,0,0,5.76-.14c1.32-.16,2.62-.44,3.93-.6,1.85-.23,3.71-.23,5.56-.31a63.15,63.15,0,0,0,22-5.15,5,5,0,0,0-.93-4,2.29,2.29,0,0,1-.64-2.91,2.89,2.89,0,0,0-.66-2,16.93,16.93,0,0,0-4.19-7.31c-1-1-2.15-2.11-1.86-3.46a3.52,3.52,0,0,1,.82-1.41,21.76,21.76,0,0,1,2.59-2.58,13.14,13.14,0,0,0,3.1-3,10.42,10.42,0,0,0,1.13-3.73q2.3-13.64,5.79-27a84.87,84.87,0,0,1,3.1-10,34.24,34.24,0,0,0,1.7-4.7,26,26,0,0,0,.51-5.13c.15-5,.1-10-1.85-14.55-1.86-4.38-5.12-8.31-9.49-10.19-1.07-.46-2.19-.79-3.26-1.25-3.86-1.66-6.88-4.84-10-7.71a10.51,10.51,0,0,0-2.8-2.06c-2-.9-4.39-.54-6.58-.15l-9,1.58a33.74,33.74,0,0,0-6.71,1.65,23,23,0,0,0-9.45,7.62C1282.41,285.38,1276.83,289.63,1275,295.18Z"/><path class="cls-39" d="M1282.77,245.62c.34,2.24.41,3.07,1.71,5a25.84,25.84,0,0,0,8.3,7.88c2.07,1.18,4.35,2.09,6,4,1.8,2.15,2.46,5.24,2.54,8.21s-.36,5.9-.42,8.89a34.84,34.84,0,0,0,1.76,11.59c1.08,3.28,2.63,6.32,3.85,9.53,1.41,3.74,2.35,7.67,3.64,11.47,4.7,13.82,13.59,25.28,25.06,32.29-3.55-9-4.48-19-4-28.85s2.38-19.48,4.25-29.08l1.8-9.22c2-10.21,4-20.67,2.85-31s-6.06-20.83-14.46-25.06a25.12,25.12,0,0,0-6.9-2.2,23.14,23.14,0,0,0-7.56-.32c-2.79.41-5.48,1.55-8.28,1.81-3.16.28-6.38-.58-9.5.14-3.82.87-7,4-9.38,7.49-2.26,3.24-4.15,7.37-3.19,11.37C1281.32,241.62,1282.44,243.38,1282.77,245.62Z"/><path class="cls-40" d="M1279.73,400.72c.41-.77,1.14-1.49.67-2.49s-2-1.6-3-1.88a17.07,17.07,0,0,0-4.83-.45,1.93,1.93,0,0,0-1,.19,2,2,0,0,0-.7,1.11c-1.44,4.22-2.47,8.59-4.07,12.75-.75,2-1.63,3.87-2.27,5.87a51.63,51.63,0,0,0-1.36,5.75,25.85,25.85,0,0,0-.53,3.4,14,14,0,0,0,5.39,11.84,26.46,26.46,0,0,0,2.8,1.78c2.27,1.3,4.9,2.61,7.26,1.61a4.74,4.74,0,0,0-.44-1.85,1.17,1.17,0,0,0,.24.09,1,1,0,0,0,1.26-.78,1.77,1.77,0,0,0-.72-1.7,6.57,6.57,0,0,0-1.73-.83,1.08,1.08,0,0,1-.54-.35c-.35-.5.31-1.13.91-1.25s1.3,0,1.68-.66-.19-1.44-.87-1.73-1.45-.3-2.1-.65c-1.54-.78-1.62-2.82-1.54-4.49a22.74,22.74,0,0,1,.79-5.91c.52-1.67,1.4-3.22,1.78-4.91.49-2.32.09-4.69.3-7A20.91,20.91,0,0,1,1279.73,400.72Z"/><path class="cls-31" d="M1292.65,301.6c2.91,4,4.14,8.95,5.54,13.68a36.35,36.35,0,0,1,1.08,15.69,44.92,44.92,0,0,0-.72,5.42,42.3,42.3,0,0,0,.47,5.15,32.64,32.64,0,0,1-.59,11.19c-1.87,7.75-3.77,15.55-7.67,22.54-.74,1.32-1.56,2.61-2.17,4-1.5,3.44-1.68,7.29-2.31,11a91.75,91.75,0,0,1-3.1,12c-1.15-1.3-3.07-1.46-4.76-1.85-1.38-.3-2.66-.79-4-1.07a7.19,7.19,0,0,0-4.16.06,2.57,2.57,0,0,0,.63-1.21c2.68-8.74.09-18.09-.91-27.16-.16-1.46-.1-3.32,1.33-3.68.3-2.11.42-4.24.53-6.36l1.22-22.25c.42-7.43.83-14.87,1-22.33.15-6.61.19-13.55,3.37-19.34a7.28,7.28,0,0,1,1.19-1.66C1283.57,295.46,1289.73,297.63,1292.65,301.6Z"/><path class="cls-18" d="M1291.53,300.83c2.93,4,4.14,8.94,5.54,13.67a36.35,36.35,0,0,1,1.08,15.69,43,43,0,0,0-.71,5.42,42.46,42.46,0,0,0,.47,5.16,33,33,0,0,1-.6,11.2c-1.87,7.73-3.77,15.54-7.67,22.53-.74,1.33-1.55,2.61-2.16,4-1.5,3.45-1.67,7.29-2.3,11a93.4,93.4,0,0,1-3.11,12c-1.16-1.29-3.08-1.46-4.77-1.85-1.37-.3-2.65-.79-4-1.07a7.33,7.33,0,0,0-4.15.06,2.61,2.61,0,0,0,.62-1.2c2.68-8.74.1-18.08-.9-27.16-.17-1.47-.11-3.33,1.33-3.69.29-2.11.41-4.24.53-6.36L1272,338c.43-7.44.83-14.88,1-22.32.15-6.63.19-13.56,3.39-19.36a6.22,6.22,0,0,1,1.18-1.65C1282.41,294.72,1288.6,296.87,1291.53,300.83Z"/><path class="cls-41" d="M1525.58,130.41V118a2.33,2.33,0,0,0-2.34-2.33h-13.47v17h13.47A2.34,2.34,0,0,0,1525.58,130.41Z"/><path class="cls-41" d="M1525.58,157.31V144.94a2.34,2.34,0,0,0-2.34-2.34h-13.47v17.05h13.47A2.34,2.34,0,0,0,1525.58,157.31Z"/><path class="cls-41" d="M1525.58,184.22V171.85a2.34,2.34,0,0,0-2.34-2.34h-13.47v17h13.47A2.33,2.33,0,0,0,1525.58,184.22Z"/><path class="cls-42" d="M1523.17,115.7h-3.55v10.09a2.4,2.4,0,0,1-2.41,2.4h-7.44v4.55h13.4a2.41,2.41,0,0,0,2.41-2.41V118.1A2.4,2.4,0,0,0,1523.17,115.7Z"/><path class="cls-42" d="M1523.17,142.6h-3.55v10.09a2.41,2.41,0,0,1-2.41,2.41h-7.44v4.55h13.4a2.41,2.41,0,0,0,2.41-2.41V145A2.41,2.41,0,0,0,1523.17,142.6Z"/><path class="cls-42" d="M1523.17,169.51h-3.55V179.6a2.41,2.41,0,0,1-2.41,2.41h-7.44v4.54h13.4a2.4,2.4,0,0,0,2.41-2.4V171.92A2.41,2.41,0,0,0,1523.17,169.51Z"/><path class="cls-41" d="M1481.14,194V107.33a2.33,2.33,0,0,1,2.33-2.33h27.43a2.33,2.33,0,0,1,2.33,2.33V194a2.33,2.33,0,0,1-2.33,2.34h-27.43A2.33,2.33,0,0,1,1481.14,194Z"/><path class="cls-43" d="M1397.49,69h-22.28a4.21,4.21,0,0,0-4.21,4.2V97.45h30.69V73.2A4.2,4.2,0,0,0,1397.49,69Z"/><path class="cls-43" d="M1445.93,69h-22.28a4.21,4.21,0,0,0-4.21,4.2V97.45h30.69V73.2A4.2,4.2,0,0,0,1445.93,69Z"/><path class="cls-44" d="M1397.35,69h-11.91a4.33,4.33,0,0,1,4.33,4.33V97.45h11.92V73.33A4.33,4.33,0,0,0,1397.35,69Z"/><path class="cls-44" d="M1445.79,69h-11.91a4.33,4.33,0,0,1,4.33,4.33V97.45h11.92V73.33A4.33,4.33,0,0,0,1445.79,69Z"/><path class="cls-43" d="M1465.33,149H1356a4.2,4.2,0,0,1-4.2-4.2V95.42a4.2,4.2,0,0,1,4.2-4.2h109.38a4.2,4.2,0,0,1,4.2,4.2V144.8A4.2,4.2,0,0,1,1465.33,149Z"/><path class="cls-42" d="M1510.83,105H1505v84a2.4,2.4,0,0,1-2.4,2.41h-21.41V194a2.4,2.4,0,0,0,2.4,2.41h27.29a2.4,2.4,0,0,0,2.4-2.41V107.41A2.4,2.4,0,0,0,1510.83,105Z"/><path class="cls-44" d="M1465.2,91.22h-10.57v44.42a4.33,4.33,0,0,1-4.33,4.33h-98.55v4.7a4.33,4.33,0,0,0,4.34,4.33H1465.2a4.33,4.33,0,0,0,4.33-4.33V95.56A4.33,4.33,0,0,0,1465.2,91.22Z"/><path class="cls-45" d="M1493.23,215H1378.55a2.33,2.33,0,0,1-2.33-2.33v-52.6a2.33,2.33,0,0,1,2.33-2.33h114.68a2.33,2.33,0,0,1,2.34,2.33v52.6A2.34,2.34,0,0,1,1493.23,215Z"/><path class="cls-46" d="M1404,173.8a8.53,8.53,0,1,1-8.53-8.52A8.53,8.53,0,0,1,1404,173.8Z"/><path class="cls-46" d="M1404,199a8.53,8.53,0,1,1-8.53-8.52A8.52,8.52,0,0,1,1404,199Z"/><path class="cls-46" d="M1430.82,173.8a8.53,8.53,0,1,1-8.52-8.52A8.53,8.53,0,0,1,1430.82,173.8Z"/><path class="cls-46" d="M1430.82,199a8.53,8.53,0,1,1-8.52-8.52A8.52,8.52,0,0,1,1430.82,199Z"/><path class="cls-46" d="M1457.77,173.8a8.52,8.52,0,1,1-8.52-8.52A8.52,8.52,0,0,1,1457.77,173.8Z"/><path class="cls-46" d="M1457.77,199a8.52,8.52,0,1,1-8.52-8.52A8.51,8.51,0,0,1,1457.77,199Z"/><path class="cls-46" d="M1484.63,173.8a8.52,8.52,0,1,1-8.52-8.52A8.52,8.52,0,0,1,1484.63,173.8Z"/><path class="cls-46" d="M1484.63,199a8.52,8.52,0,1,1-8.52-8.52A8.51,8.51,0,0,1,1484.63,199Z"/><path class="cls-47" d="M1493.16,157.76h-6v48.6a2.41,2.41,0,0,1-2.41,2.41H1376.22v3.84a2.4,2.4,0,0,0,2.4,2.41h114.54a2.41,2.41,0,0,0,2.41-2.41V160.16A2.4,2.4,0,0,0,1493.16,157.76Z"/><path class="cls-48" d="M1515.74,253.49h-60.8a2.33,2.33,0,0,1-2.34-2.33v-52.6a2.33,2.33,0,0,1,2.34-2.33h60.8a2.33,2.33,0,0,1,2.33,2.33v52.6A2.33,2.33,0,0,1,1515.74,253.49Z"/><path class="cls-49" d="M1515.67,196.23h-6v48.6a2.41,2.41,0,0,1-2.41,2.41H1452.6v3.84a2.41,2.41,0,0,0,2.41,2.41h60.66a2.4,2.4,0,0,0,2.4-2.41V198.63A2.39,2.39,0,0,0,1515.67,196.23Z"/><path class="cls-50" d="M1480.43,212.27a8.52,8.52,0,1,1-8.52-8.52A8.53,8.53,0,0,1,1480.43,212.27Z"/><path class="cls-50" d="M1480.43,237.45a8.52,8.52,0,1,1-8.52-8.52A8.52,8.52,0,0,1,1480.43,237.45Z"/><path class="cls-50" d="M1507.29,212.27a8.52,8.52,0,1,1-8.52-8.52A8.52,8.52,0,0,1,1507.29,212.27Z"/><path class="cls-50" d="M1507.29,237.45a8.52,8.52,0,1,1-8.52-8.52A8.51,8.51,0,0,1,1507.29,237.45Z"/><path class="cls-19" d="M1442.08,277.86l-.49,2.46h6l-.74,3.66h-6l-.93,4.6h-4.85L1438,274.2h11.69l-.74,3.66Z"/><path class="cls-19" d="M1458.29,286.08h-5.48l-1.44,2.5h-5.12l9.16-14.38h4.77l3.41,14.38h-4.83Zm-.68-3.5-.7-3.68-2.11,3.68Z"/><path class="cls-19" d="M1484.47,274.2l-2.83,14.38h-4.42l1.27-6.55-4,5.26h-2.13l-2.22-5.18-1.3,6.47h-4.42l2.88-14.38h4l3.12,7.64,6-7.64Z"/><path class="cls-19" d="M1486.85,274.2h4.85l-2.87,14.38H1484Z"/><path class="cls-19" d="M1494.05,274.2h4.85l-2.12,10.62h6.49l-.76,3.76h-11.34Z"/><path class="cls-19" d="M1512,283.36l-1,5.22h-4.85l1.05-5.28-3.6-9.1h4.87l2,5,4-5h4.87Z"/><path class="cls-19" d="M1405.87,300.11a4.23,4.23,0,0,1,1.59,3.51,5.7,5.7,0,0,1-.9,3.19A5.81,5.81,0,0,1,1404,309a9.18,9.18,0,0,1-3.83.76h-2.48l-.7,3.53h-4.85l2.87-14.38h6.39A7,7,0,0,1,1405.87,300.11Zm-3.88,5.35a1.78,1.78,0,0,0,.55-1.4c0-1-.6-1.46-1.8-1.46h-1.63l-.68,3.37h2A2.22,2.22,0,0,0,1402,305.46Z"/><path class="cls-19" d="M1410.09,298.86h4.85l-2.12,10.62h6.49l-.76,3.76h-11.34Z"/><path class="cls-19" d="M1430.57,310.73h-5.48l-1.44,2.51h-5.12l9.17-14.38h4.76l3.41,14.38H1431Zm-.68-3.49-.69-3.68-2.12,3.68Z"/><path class="cls-19" d="M1445.31,308l-1,5.22h-4.85l1-5.28-3.6-9.1h4.87l2,5,4-5h4.87Z"/><path class="cls-19" d="M1461.72,302.62h-4.21l.76-3.76h13.28l-.76,3.76h-4.22l-2.11,10.62h-4.85Z"/><path class="cls-19" d="M1472.8,298.86h4.85l-2.88,14.38h-4.85Z"/><path class="cls-19" d="M1497.21,298.86l-2.83,14.38H1490l1.27-6.55-4,5.26h-2.13l-2.22-5.18-1.3,6.47h-4.42l2.88-14.38h4l3.12,7.64,6-7.64Z"/><path class="cls-19" d="M1503.62,302.51l-.33,1.69h6.09l-.7,3.49h-6.11l-.37,1.89h7.22l-.74,3.66h-12l2.87-14.38h11.7l-.74,3.65Z"/><path class="cls-19" d="M1517.23,312.79a2.09,2.09,0,0,1-.72-1.6,2.44,2.44,0,0,1,.81-1.89,2.88,2.88,0,0,1,2-.74,2.7,2.7,0,0,1,1.85.63,2.05,2.05,0,0,1,.72,1.59,2.51,2.51,0,0,1-.82,1.9,2.89,2.89,0,0,1-2,.77A2.59,2.59,0,0,1,1517.23,312.79Zm1.64-13.93h5.55l-2.69,8.87H1518Z"/><path class="cls-51" d="M1390.3,102.27h-3.79l.69-3.38h11.94l-.69,3.38h-3.79l-1.9,9.56h-4.36Z"/><path class="cls-51" d="M1401.31,111.39a5.3,5.3,0,0,1-2.29-2,5.61,5.61,0,0,1-.81-3,7.68,7.68,0,0,1,1-4,7.19,7.19,0,0,1,2.9-2.75,8.91,8.91,0,0,1,4.2-1,7.88,7.88,0,0,1,3.47.73,5.44,5.44,0,0,1,2.29,2.05,5.58,5.58,0,0,1,.81,3,7.73,7.73,0,0,1-1,4,7.16,7.16,0,0,1-2.9,2.74,8.81,8.81,0,0,1-4.21,1A7.7,7.7,0,0,1,1401.31,111.39Zm5.64-3.33a3.46,3.46,0,0,0,1.17-1.44,4.84,4.84,0,0,0,.41-2,2.36,2.36,0,0,0-2.54-2.52,3,3,0,0,0-1.8.54,3.46,3.46,0,0,0-1.17,1.44,4.81,4.81,0,0,0-.41,2,2.51,2.51,0,0,0,.68,1.83,2.45,2.45,0,0,0,1.85.68A3.16,3.16,0,0,0,1407,108.06Z"/><path class="cls-51" d="M1421.22,107.13l-.92,4.7h-4.36l.94-4.75-3.23-8.19H1418l1.75,4.47,3.61-4.47h4.38Z"/><path class="cls-51" d="M1427.43,111.76a8.51,8.51,0,0,1-2.44-1l1.69-3.22a8.52,8.52,0,0,0,4.36,1.21,3,3,0,0,0,1.27-.21c.3-.13.45-.32.45-.55s-.15-.4-.45-.54a10,10,0,0,0-1.44-.44,16.61,16.61,0,0,1-2.14-.68,3.94,3.94,0,0,1-1.49-1,2.73,2.73,0,0,1-.64-1.88,4.27,4.27,0,0,1,.79-2.56,5,5,0,0,1,2.26-1.7,9.29,9.29,0,0,1,3.5-.6,12.12,12.12,0,0,1,2.69.29,7.36,7.36,0,0,1,2.15.82l-1.57,3.18a5.88,5.88,0,0,0-1.68-.72,7.26,7.26,0,0,0-1.87-.24,3.19,3.19,0,0,0-1.41.26c-.33.17-.5.37-.5.61s.16.42.46.55a8.36,8.36,0,0,0,1.49.45,14.27,14.27,0,0,1,2.11.63,3.74,3.74,0,0,1,1.49,1,2.68,2.68,0,0,1,.63,1.85,4.19,4.19,0,0,1-.8,2.53,5,5,0,0,1-2.27,1.69,9.2,9.2,0,0,1-3.47.6A13.38,13.38,0,0,1,1427.43,111.76Z"/><path class="cls-3" d="M1387.56,133.94a8.51,8.51,0,0,1-2.44-.95l1.69-3.21a8.61,8.61,0,0,0,4.36,1.2,3,3,0,0,0,1.27-.21c.3-.13.45-.32.45-.55s-.15-.4-.45-.54a10,10,0,0,0-1.44-.44,16.61,16.61,0,0,1-2.14-.68,3.83,3.83,0,0,1-1.49-1,2.73,2.73,0,0,1-.64-1.88,4.22,4.22,0,0,1,.79-2.55,5,5,0,0,1,2.26-1.71,9.29,9.29,0,0,1,3.5-.6,12.12,12.12,0,0,1,2.69.29,7.65,7.65,0,0,1,2.15.82l-1.57,3.18a5.88,5.88,0,0,0-1.68-.72,7.26,7.26,0,0,0-1.87-.24,3.19,3.19,0,0,0-1.41.26c-.33.17-.5.38-.5.61s.16.42.46.55a8.36,8.36,0,0,0,1.49.45,15.59,15.59,0,0,1,2.11.63,3.74,3.74,0,0,1,1.49,1,2.68,2.68,0,0,1,.63,1.85,4.17,4.17,0,0,1-.8,2.53,5,5,0,0,1-2.27,1.69,9.2,9.2,0,0,1-3.47.6A13.38,13.38,0,0,1,1387.56,133.94Z"/><path class="cls-3" d="M1407.16,131.75h-4.94l-1.29,2.26h-4.6l8.24-12.94h4.29l3.07,12.94h-4.35Zm-.61-3.14-.63-3.31-1.9,3.31Z"/><path class="cls-3" d="M1415.22,121.07h4.36l-1.9,9.56h5.84l-.69,3.38h-10.2Z"/><path class="cls-3" d="M1430.24,124.36l-.29,1.52h5.47l-.63,3.14h-5.49l-.33,1.7h6.49l-.67,3.29H1424l2.59-12.94h10.52l-.67,3.29Z"/></g></g></svg>