<svg xmlns="http://www.w3.org/2000/svg" viewBox="0 0 376 376"><defs><style>.cls-1{fill:#fff;}</style></defs><title>wave</title><g id="Layer_2" data-name="Layer 2"><g id="Layer_1-2" data-name="Layer 1"><path class="cls-1" d="M188,30A158,158,0,0,1,299.72,299.72,158,158,0,1,1,76.28,76.28,156.93,156.93,0,0,1,188,30m0-30C84.17,0,0,84.17,0,188S84.17,376,188,376s188-84.17,188-188S291.83,0,188,0Z"/><path class="cls-1" d="M280.5,128.18a9,9,0,0,1-7.69-4.31c-7.88-12.9-26-35.83-58.51-44.55A9,9,0,0,1,219,61.94c38.59,10.33,59.93,37.35,69.21,52.54a9,9,0,0,1-7.67,13.7Z"/><path class="cls-1" d="M95.48,128.18a9,9,0,0,1-7.93-13.25c13.37-25,39.32-44.73,69.42-52.81a9,9,0,0,1,4.67,17.38c-29.89,8-49.67,28-58.21,43.92A9,9,0,0,1,95.48,128.18Z"/><polygon class="cls-1" points="296.36 145.82 263.76 127 296.36 108.18 296.36 145.82"/><polygon class="cls-1" points="79.64 145.82 112.24 127 79.64 108.18 79.64 145.82"/><circle class="cls-1" cx="187.49" cy="68" r="9"/><path class="cls-1" d="M182.75,124h0a11.68,11.68,0,0,0-14.61,7.74L146.19,203l-3.42,11.13h0c-2.6,7.63-2.2,9.75-5.9,8.52a11.84,11.84,0,0,1-7.61-8.82A63.93,63.93,0,0,0,117,187.54c-3.85-4.78-9.79-9.32-15.65-11.15-6.76-2.1-8.38,7.36-8.21,8.24.69,3.42,1.54,6.75,3.48,9.65,3.62,5.45,5.62,12.61,6.72,18.39.93,5,14.58,53.8,16.76,62.12,4.62,21.57,22.13,40.86,47,48.5,34.83,10.71,62.78,7.66,79.74-36.38l31.09-101.05a9.76,9.76,0,0,0-6.45-12.18h0a9.73,9.73,0,0,0-12.17,6.45l-14.33,46.56a5.85,5.85,0,0,1-7.31,3.87h0a5.86,5.86,0,0,1-3.87-7.31l22.93-74.5a9.74,9.74,0,0,0-6.45-12.17h0A9.74,9.74,0,0,0,238.05,143l-20.63,67.05a5.84,5.84,0,0,1-7.3,3.87h0a5.85,5.85,0,0,1-3.87-7.31L232,122.81a11.69,11.69,0,0,0-7.73-14.61h0a11.69,11.69,0,0,0-14.62,7.74L183.9,199.75a5.85,5.85,0,0,1-7.31,3.86h0a5.84,5.84,0,0,1-3.87-7.3l17.77-57.74A11.69,11.69,0,0,0,182.75,124Z"/></g></g></svg>