<svg xmlns="http://www.w3.org/2000/svg" xmlns:xlink="http://www.w3.org/1999/xlink" viewBox="0 0 656.66 426.76"><defs><style>.cls-1,.cls-17{fill:#ff9a84;}.cls-2{fill:#2f2e41;}.cls-3{fill:#ff5039;}.cls-4{fill:#f2f2f2;}.cls-5{fill:#3f3d56;}.cls-6{fill:#ff6584;}.cls-7{fill:#6680ff;opacity:0.3;}.cls-13,.cls-17,.cls-7,.cls-9{isolation:isolate;}.cls-8{fill:#ffb9b9;}.cls-10,.cls-9{opacity:0.1;}.cls-11{fill:#fff;}.cls-12{fill:#65617d;}.cls-13{opacity:0.2;}.cls-14{fill:#d4dfec;}.cls-15{fill:#fbbebe;}.cls-16{fill:url(#linear-gradient);}.cls-18{fill:#47465a;}.cls-19{fill:#7a799c;}.cls-20{fill:#9493b6;}</style><linearGradient id="linear-gradient" x1="275.3" y1="-139.2" x2="275.3" y2="-10.54" gradientTransform="matrix(1, 0, 0, -1, -79.34, 284)" gradientUnits="userSpaceOnUse"><stop offset="0" stop-color="gray" stop-opacity="0.25"/><stop offset="0.54" stop-color="gray" stop-opacity="0.12"/><stop offset="1" stop-color="gray" stop-opacity="0.1"/></linearGradient></defs><title>Asset 9</title><g id="Layer_2" data-name="Layer 2"><g id="Layer_3" data-name="Layer 3"><path class="cls-1" d="M327.77,409.81h0l-5,0a2,2,0,0,1,0-4h0l5,0a2,2,0,0,1,0,4Zm15-.16a2,2,0,0,1,0-4l5-.13h.06a2,2,0,0,1,.06,4l-5,.13Zm-35-.17h-.06c-1.68-.05-3.35-.11-5-.18a2,2,0,0,1,.16-4c1.66.07,3.32.13,5,.18a2,2,0,0,1-.07,4Zm55-.6a2,2,0,0,1-.11-4l5-.29a2,2,0,1,1,.24,4c-1.66.11-3.33.21-5,.3Zm-75-.36h-.14l-5-.34a2,2,0,0,1-1.85-2.14,2,2,0,0,1,2.14-1.85l5,.34a2,2,0,0,1-.12,4Zm94.91-1a2,2,0,0,1-.17-4l5-.46a2,2,0,0,1,.38,4c-1.66.15-3.33.31-5,.45Zm-114.85-.56h-.2l-5-.51a2,2,0,1,1,.42-4c1.65.18,3.3.34,5,.51a2,2,0,0,1-.19,4ZM402.6,405.4a2,2,0,0,1-.24-4l4.95-.62a2,2,0,1,1,.51,4c-1.65.22-3.31.42-5,.63ZM248,404.63h-.27l-5-.68a2,2,0,0,1,.56-4l4.93.67a2,2,0,0,1-.25,4Zm174.43-2a2,2,0,0,1-.31-4l4.92-.79a2,2,0,0,1,.65,3.95l-4.95.79Zm-194.22-1a1.84,1.84,0,0,1-.33,0c-1.66-.27-3.3-.56-5-.85a2,2,0,0,1,.7-3.94l4.91.85a2,2,0,0,1-.33,4Zm213.92-2.46a2,2,0,0,1-.38-4c1.64-.31,3.27-.64,4.89-1a2,2,0,0,1,.8,3.92c-1.64.34-3.28.66-4.93,1A2.33,2.33,0,0,1,442.12,399.22ZM208.54,398a1.9,1.9,0,0,1-.41,0l-4.91-1a2,2,0,0,1,.84-3.91c1.62.35,3.24.69,4.88,1a2,2,0,0,1-.4,4Zm253.15-3a2,2,0,0,1-.46-3.95l4.85-1.15a2,2,0,1,1,.94,3.89L462.14,395A2.3,2.3,0,0,1,461.69,395.05ZM189,393.63a2,2,0,0,1-.48-.06l-4.87-1.22a2,2,0,1,1,1-3.88c1.6.41,3.21.82,4.83,1.21a2,2,0,0,1-.48,3.95Zm292-3.5a2,2,0,0,1-.53-3.93c1.61-.45,3.21-.89,4.8-1.35a2,2,0,0,1,1.1,3.84c-1.6.46-3.21.92-4.83,1.36A2,2,0,0,1,481.07,390.13ZM169.7,388.46a1.81,1.81,0,0,1-.56-.08c-1.61-.47-3.22-.94-4.81-1.42a2,2,0,1,1,1.15-3.83q2.37.72,4.77,1.41a2,2,0,0,1-.55,3.92Zm330.54-4.06a2,2,0,0,1-.62-3.91q2.38-.76,4.73-1.55a2,2,0,1,1,1.27,3.79l-4.77,1.57A1.86,1.86,0,0,1,500.24,384.4Zm-349.63-1.92a1.8,1.8,0,0,1-.64-.11c-1.59-.53-3.18-1.08-4.75-1.63a2,2,0,1,1,1.32-3.78q2.34.82,4.71,1.63a2,2,0,0,1,1.25,2.53A2,2,0,0,1,150.61,382.48Zm368.52-4.66a2,2,0,0,1-.71-3.87q2.34-.88,4.65-1.78a2,2,0,1,1,1.45,3.73q-2.32.9-4.69,1.79A1.93,1.93,0,0,1,519.13,377.82Zm-387.31-2.19a2.06,2.06,0,0,1-.73-.14q-2.35-.93-4.67-1.87a2,2,0,1,1,1.51-3.7q2.3.93,4.62,1.85a2,2,0,0,1-.73,3.86Zm405.85-5.31a2,2,0,0,1-.8-3.83q2.29-1,4.55-2a2,2,0,0,1,1.65,3.65l-4.6,2A1.89,1.89,0,0,1,537.67,370.32ZM113.4,367.84a1.9,1.9,0,0,1-.83-.19c-1.53-.69-3-1.4-4.56-2.11a2,2,0,1,1,1.71-3.62c1.49.71,3,1.4,4.51,2.09a2,2,0,0,1-.83,3.83Zm442.38-6a2,2,0,0,1-.9-3.78c1.48-.76,3-1.52,4.41-2.28a2,2,0,0,1,1.86,3.54c-1.47.78-3,1.54-4.47,2.3A2,2,0,0,1,555.78,361.83ZM95.44,359a2,2,0,0,1-.93-.23q-2.24-1.19-4.43-2.39A2,2,0,1,1,92,352.89c1.44.8,2.9,1.58,4.37,2.36a2,2,0,0,1-.94,3.77Zm477.89-6.77a2,2,0,0,1-1-3.73c1.44-.84,2.86-1.7,4.26-2.56a2,2,0,0,1,2.09,3.41q-2.13,1.31-4.31,2.6A2,2,0,0,1,573.33,352.25ZM78.09,349.08a2,2,0,0,1-1-.3c-1.44-.89-2.85-1.79-4.26-2.69A2,2,0,1,1,75,342.73c1.38.89,2.77,1.77,4.19,2.65a2,2,0,0,1-1.06,3.7Zm512.08-7.63a2,2,0,0,1-1.15-3.64q2-1.43,4-2.88a2,2,0,0,1,2.35,3.24c-1.35,1-2.71,2-4.1,2.92A2,2,0,0,1,590.17,341.45ZM61.52,337.89a1.92,1.92,0,0,1-1.18-.39q-2.06-1.5-4-3a2,2,0,0,1,2.44-3.17c1.3,1,2.62,2,4,3a2,2,0,0,1-1.19,3.61Zm544.53-8.57a2,2,0,0,1-1.29-3.54q1.9-1.59,3.75-3.23a2,2,0,0,1,2.65,3q-1.87,1.67-3.83,3.3A2,2,0,0,1,606.05,329.32ZM46,325.31a2,2,0,0,1-1.33-.5c-1.27-1.14-2.51-2.27-3.72-3.42a2,2,0,1,1,2.74-2.91c1.19,1.12,2.41,2.24,3.64,3.34A2,2,0,0,1,46,325.31Zm574.66-9.63a2,2,0,0,1-1.44-3.39c1.14-1.18,2.27-2.4,3.36-3.61a2,2,0,0,1,3,2.67c-1.12,1.25-2.28,2.5-3.44,3.71A2,2,0,0,1,620.65,315.68ZM31.86,311.19a2,2,0,0,1-1.49-.67c-1.12-1.26-2.23-2.55-3.3-3.84a2,2,0,1,1,3.07-2.56c1,1.26,2.13,2.52,3.22,3.74a2,2,0,0,1-.17,2.83A2,2,0,0,1,31.86,311.19ZM633.51,300.4a2,2,0,0,1-1.17-.39,2,2,0,0,1-.44-2.79c1-1.33,1.92-2.68,2.83-4a2,2,0,0,1,3.32,2.24c-.94,1.39-1.92,2.78-2.92,4.15A2,2,0,0,1,633.51,300.4Zm-613.85-5A2,2,0,0,1,18,294.5c-.94-1.42-1.86-2.87-2.72-4.29a2,2,0,1,1,3.42-2.07c.84,1.38,1.72,2.77,2.63,4.15a2,2,0,0,1-.56,2.77A2,2,0,0,1,19.66,295.39Zm624.32-12a2,2,0,0,1-.9-.22,2,2,0,0,1-.88-2.68c.74-1.47,1.45-2.95,2.11-4.43a2,2,0,0,1,3.65,1.64c-.69,1.53-1.43,3.07-2.19,4.59A2,2,0,0,1,644,283.41ZM10.08,277.9a2,2,0,0,1-1.83-1.2c-.68-1.56-1.33-3.14-1.93-4.72a2,2,0,0,1,3.74-1.42c.58,1.52,1.2,3,1.85,4.54a2,2,0,0,1-1,2.63A2.05,2.05,0,0,1,10.08,277.9Zm641.16-13a2.08,2.08,0,0,1-.54-.08,2,2,0,0,1-1.38-2.46c.44-1.57.84-3.16,1.19-4.74a2,2,0,1,1,3.9.87c-.36,1.65-.78,3.31-1.24,4.95A2,2,0,0,1,651.24,264.85ZM4,258.94a2,2,0,0,1-2-1.59c-.35-1.66-.66-3.35-.91-5a2,2,0,0,1,4-.61c.25,1.59.54,3.2.88,4.79a2,2,0,0,1-2,2.42Zm650.57-13.73h-.12a2,2,0,0,1-1.88-2.11c.09-1.63.13-3.28.13-4.89a2,2,0,0,1,4,0c0,1.69,0,3.41-.14,5.11A2,2,0,0,1,654.53,245.21ZM2,239.11H2a2,2,0,0,1-2-2c0-1.71.09-3.43.21-5.11a2,2,0,0,1,4,.27c-.11,1.61-.18,3.25-.2,4.89A2,2,0,0,1,2,239.11Zm651.75-11.66a2,2,0,0,1-2-1.71c-.22-1.59-.5-3.21-.82-4.8a2,2,0,0,1,3.93-.78c.33,1.66.62,3.35.85,5a2,2,0,0,1-1.69,2.26A1.46,1.46,0,0,1,653.75,227.45ZM4.44,219.34a1.8,1.8,0,0,1-.46-.05,2,2,0,0,1-1.49-2.41c.39-1.64.83-3.3,1.3-4.92a2,2,0,0,1,3.84,1.12c-.45,1.56-.87,3.15-1.25,4.72A2,2,0,0,1,4.44,219.34Zm644.41-11.18a2,2,0,0,1-1.88-1.31c-.55-1.5-1.16-3-1.8-4.55a2,2,0,1,1,3.68-1.56c.67,1.57,1.3,3.17,1.87,4.73a2,2,0,0,1-1.18,2.57A2.09,2.09,0,0,1,648.85,208.16ZM11,200.52a2.08,2.08,0,0,1-.84-.18,2,2,0,0,1-1-2.66c.7-1.51,1.45-3,2.23-4.56A2,2,0,0,1,15,195c-.76,1.47-1.49,3-2.16,4.41A2,2,0,0,1,11,200.52Zm629.26-10.34a2,2,0,0,1-1.73-1c-.82-1.38-1.69-2.79-2.59-4.17a2,2,0,1,1,3.36-2.18c.93,1.43,1.83,2.88,2.67,4.31a2,2,0,0,1-1.71,3Zm-619.36-7a2,2,0,0,1-1.13-.35,2,2,0,0,1-.52-2.78c.94-1.37,1.94-2.76,2.95-4.13a2,2,0,1,1,3.21,2.39c-1,1.33-1.95,2.67-2.86,4A2,2,0,0,1,20.88,183.2Zm607.87-9.34a2,2,0,0,1-1.55-.74c-1-1.24-2.09-2.5-3.19-3.76a2,2,0,1,1,3-2.63c1.13,1.28,2.23,2.58,3.27,3.86a2,2,0,0,1-1.54,3.27ZM33.33,167.59a2,2,0,0,1-1.47-3.35c1.12-1.23,2.28-2.47,3.46-3.68a2,2,0,1,1,2.88,2.78c-1.16,1.19-2.3,2.4-3.39,3.6A2,2,0,0,1,33.33,167.59Zm581.81-8.36a2,2,0,0,1-1.38-.55c-1.18-1.13-2.4-2.26-3.63-3.37a2,2,0,1,1,2.69-3c1.25,1.13,2.49,2.28,3.7,3.44a2,2,0,0,1-1.38,3.44Zm-567.5-5.59a2,2,0,0,1-1.31-3.51c1.25-1.1,2.54-2.19,3.84-3.27a2,2,0,0,1,2.56,3.08q-1.92,1.59-3.77,3.21A2,2,0,0,1,47.64,153.64ZM600,146.2a2,2,0,0,1-1.23-.42c-1.29-1-2.61-2-3.94-3a2,2,0,0,1,2.38-3.21c1.36,1,2.7,2,4,3.05a2,2,0,0,1,.35,2.81A2,2,0,0,1,600,146.2Zm-536.68-5a2,2,0,0,1-1.18-3.62q2-1.47,4.12-2.91A2,2,0,1,1,68.53,138q-2.06,1.43-4,2.86A2,2,0,0,1,63.31,141.22ZM583.7,134.6a2,2,0,0,1-1.09-.32q-2.07-1.35-4.18-2.67a2,2,0,1,1,2.12-3.39c1.43.89,2.85,1.8,4.24,2.71a2,2,0,0,1,.59,2.77A2,2,0,0,1,583.7,134.6ZM80,130.18a2,2,0,0,1-1-3.71q2.14-1.31,4.33-2.58a2,2,0,0,1,2,3.45q-2.16,1.26-4.27,2.55A2,2,0,0,1,80,130.18Zm486.58-5.88a2,2,0,0,1-1-.25c-1.43-.8-2.89-1.59-4.36-2.38a2,2,0,0,1,1.89-3.53c1.48.8,3,1.6,4.42,2.41a2,2,0,0,1-1,3.75ZM97.4,120.37a2,2,0,0,1-1.77-1.08,2,2,0,0,1,.85-2.7q2.22-1.16,4.48-2.28a2,2,0,0,1,1.79,3.57c-1.49.75-3,1.5-4.43,2.26A1.9,1.9,0,0,1,97.4,120.37Zm451.38-5.22a2,2,0,0,1-.86-.19q-2.24-1.06-4.5-2.11a2,2,0,1,1,1.67-3.63c1.53.7,3,1.41,4.55,2.13a2,2,0,0,1-.86,3.8Zm-433.37-3.48a2,2,0,0,1-.82-3.82c1.52-.69,3.06-1.36,4.6-2a2,2,0,0,1,1.59,3.67q-2.3,1-4.55,2A2,2,0,0,1,115.41,111.67Zm415.08-4.61a2.06,2.06,0,0,1-.76-.15q-2.28-.94-4.61-1.86a2,2,0,0,1,1.47-3.72q2.35.93,4.66,1.88a2,2,0,0,1-.76,3.85ZM133.88,104a2,2,0,0,1-.72-3.87c1.55-.6,3.12-1.19,4.69-1.78a2,2,0,1,1,1.4,3.75q-2.34.87-4.65,1.76A2,2,0,0,1,133.88,104Zm377.93-4.06a1.93,1.93,0,0,1-.67-.12l-4.7-1.63a2,2,0,1,1,1.29-3.79L512.47,96a2,2,0,0,1-.66,3.89ZM152.7,97.23a2,2,0,0,1-.63-3.9l4.78-1.55a2,2,0,0,1,1.22,3.81c-1.59.5-3.17,1-4.73,1.54A2,2,0,0,1,152.7,97.23Zm340.1-3.54a2,2,0,0,1-.58-.09l-4.77-1.42a2,2,0,1,1,1.12-3.84l4.81,1.43a2,2,0,0,1-.58,3.92Zm-321-2.35a2,2,0,0,1-.55-3.92q2.41-.69,4.84-1.35a2,2,0,0,1,1,3.86c-1.6.44-3.2.88-4.79,1.34A2.13,2.13,0,0,1,171.82,91.34Zm301.73-3.06a1.79,1.79,0,0,1-.51-.07L468.22,87a2,2,0,1,1,1-3.88q2.44.6,4.87,1.23a2,2,0,0,1-.5,3.94Zm-282.39-2a2,2,0,0,1-.46-4l4.88-1.15a2,2,0,1,1,.9,3.9c-1.62.37-3.24.75-4.85,1.14A1.84,1.84,0,0,1,191.16,86.27Zm262.93-2.62a2.09,2.09,0,0,1-.43,0l-4.87-1a2,2,0,1,1,.81-3.91c1.64.34,3.28.68,4.91,1a2,2,0,0,1-.42,4ZM210.7,82a2,2,0,0,1-.4-4c1.64-.32,3.28-.65,4.93-1A2,2,0,1,1,216,81q-2.44.47-4.89,1A2.56,2.56,0,0,1,210.7,82Zm223.76-2.18-.35,0-4.91-.85a2,2,0,0,1,.67-4l4.94.86a2,2,0,0,1-.35,4Zm-204.08-1.4a2,2,0,0,1-.32-4l4.95-.79a2,2,0,0,1,.61,4q-2.46.38-4.92.78A1.77,1.77,0,0,1,230.38,78.37Zm184.33-1.76-.28,0c-1.64-.24-3.29-.46-4.94-.68a2,2,0,0,1,.53-4c1.66.22,3.32.45,5,.69a2,2,0,0,1-.28,4ZM250.17,75.5a2,2,0,0,1-.25-4l5-.61a2,2,0,1,1,.47,4l-4.94.61Zm144.69-1.37h-.21l-5-.52a2,2,0,0,1,.4-4l5,.52a2,2,0,0,1-.22,4ZM270.05,73.3a2,2,0,0,1-.18-4c1.66-.16,3.32-.31,5-.45a2,2,0,1,1,.34,4c-1.65.15-3.31.29-5,.45Zm104.89-1h-.15l-5-.35a2,2,0,0,1,.27-4l5,.35a2,2,0,0,1-.15,4ZM290,71.76a2,2,0,0,1-.12-4l5-.28a2,2,0,1,1,.21,4c-1.66.09-3.32.18-5,.29Zm65-.6h-.08c-1.66-.07-3.32-.14-5-.19a2,2,0,0,1,.13-4l5,.19a2,2,0,0,1-.09,4Zm-45-.29a2,2,0,0,1-.06-4l5-.13H315a2,2,0,0,1,0,4l-5,.12Zm25-.23h0l-5,0a2,2,0,0,1,0-4h0l5,0a2,2,0,0,1,0,4Z"/></g><g id="Layer_2-2" data-name="Layer 2"><polygon class="cls-2" points="235.78 195.86 228.38 173.58 226.65 150.02 231.7 150.02 237.32 168.91 243.89 195.3 235.78 195.86"/><path class="cls-3" d="M444.71,128.1a2.4,2.4,0,1,0,4.07-2.56c-1-1.53-4.21-2.2-4.21-2.2S443.75,126.56,444.71,128.1Z"/><path class="cls-4" d="M283.5,42.44V165.35a5.58,5.58,0,0,0,5.64,5.51H470.21a3.93,3.93,0,0,0,4-3.89V57.62c0-13.81-11.44-25-25.56-25H293.55A9.94,9.94,0,0,0,283.5,42.44Z"/><path class="cls-2" d="M350.49,143.66a65.81,65.81,0,0,0,6.76,29.13H470.59a4,4,0,0,0,4-4V112.11a66.05,66.05,0,0,0-124.09,31.55Z"/><path class="cls-5" d="M282.89,133.12v34a5.66,5.66,0,0,0,5.66,5.67H470.84a4,4,0,0,0,4-4v0c0-28.33-88.1-52.49-113.15-61.87a66.11,66.11,0,0,0-78.76,26.2Z"/><circle class="cls-6" cx="312.91" cy="69.6" r="16.46"/><path class="cls-3" d="M398.82,73.38c0,32.1,19.08,43.31,42.62,43.31s42.63-11.21,42.63-43.31S441.44.44,441.44.44,398.82,41.28,398.82,73.38Z"/><polygon class="cls-5" points="443 111.78 442.56 84.91 424.39 51.68 442.49 80.7 442.3 68.62 429.77 44.57 442.24 65.42 442.24 65.42 441.89 43.7 428.48 24.55 441.83 40.28 441.62 0.45 443 53.18 442.89 51.01 456.52 30.14 443.11 55.18 444.38 79.44 444.41 78.8 460.13 56.84 444.46 81.08 444.62 84.11 444.65 84.16 444.63 84.41 447.86 145.96 443.55 145.96 443.04 114.17 427.41 90 443 111.78"/><path class="cls-3" d="M329.33,58.67c0,25.82,15.35,34.83,34.28,34.83s34.29-9,34.29-34.83S363.61,0,363.61,0,329.33,32.85,329.33,58.67Z"/><polygon class="cls-5" points="364.86 89.56 364.51 67.94 349.9 41.21 364.45 64.56 364.3 54.84 354.23 35.5 364.25 52.27 364.25 52.27 363.97 34.79 353.19 19.39 363.93 32.04 363.75 0 364.86 42.42 364.77 40.67 375.74 23.89 364.95 44.03 365.97 63.55 366 63.03 378.64 45.37 366.04 64.86 366.17 67.3 366.19 67.34 366.18 67.54 368.77 117.05 365.31 117.05 364.89 91.48 352.32 72.03 364.86 89.56"/><path class="cls-3" d="M258.69,95.09c0,17.39,10.34,23.46,23.09,23.46s23.08-6.07,23.08-23.46-23.08-39.5-23.08-39.5S258.69,77.71,258.69,95.09Z"/><polygon class="cls-5" points="282.62 115.89 282.38 101.34 272.54 83.34 282.34 99.06 282.24 92.51 275.46 79.49 282.21 90.78 282.21 90.78 282.02 79.02 274.76 68.65 281.99 77.17 281.87 55.59 282.62 84.15 282.56 82.98 289.94 71.68 282.68 85.24 283.36 98.38 283.38 98.03 291.89 86.14 283.41 99.26 283.5 100.9 283.51 100.93 283.5 101.06 285.25 134.4 282.92 134.4 282.64 117.18 274.18 104.09 282.62 115.89"/><path class="cls-3" d="M428.86,127.17a2.55,2.55,0,1,0,4.32-2.72c-1-1.63-4.48-2.34-4.48-2.34S427.83,125.54,428.86,127.17Z"/><path class="cls-3" d="M347.92,123.77a2.56,2.56,0,1,0,5.09.51c.18-1.92-2.12-4.6-2.12-4.6S348.11,121.86,347.92,123.77Z"/><path class="cls-3" d="M384.6,100a2.56,2.56,0,1,0,4.33-2.72c-1-1.63-4.49-2.34-4.49-2.34S383.58,98.41,384.6,100Z"/><path class="cls-3" d="M300.1,125.16a2.55,2.55,0,1,0,4.33-2.71c-1-1.63-4.49-2.34-4.49-2.34S299.08,123.53,300.1,125.16Z"/><path class="cls-7" d="M149.92,136c-6.79,52.94,11.89,97.79,41.34,102.74,38.41,6.46,93.81-25.56,65.94-89C235.73,100.88,245.48,50.81,215.86,47S156.71,83.05,149.92,136Z"/><ellipse class="cls-5" cx="231.7" cy="211.23" rx="48.17" ry="5.15"/><path class="cls-3" d="M177.46,174.21a2.55,2.55,0,1,0,5.08.5c.19-1.92-2.11-4.6-2.11-4.6S177.64,172.29,177.46,174.21Z"/><path class="cls-3" d="M197.18,168.71A2.55,2.55,0,1,0,201.5,166c-1-1.63-4.48-2.35-4.48-2.35S196.15,167.08,197.18,168.71Z"/><path class="cls-8" d="M211.17,185.82s-2.28,9.92-5.83,12.06,8.67,6.2,8.67,6.2,5.32,3.3,6.7,4.49,7.31,3.74,6.33,1.85a37.9,37.9,0,0,0-5.4-8.5c-2.71-3-6.27-8.35-3.17-12.53S211.17,185.82,211.17,185.82Z"/><path class="cls-6" d="M210.64,92l1.19-.43s3.08-.43,5.9,3.16S227,109.21,227,109.21l2.39,5.63-8.45.26-6.36-14Z"/><path class="cls-9" d="M210.64,92l1.19-.43s3.08-.43,5.9,3.16S227,109.21,227,109.21l2.39,5.63-8.45.26-6.36-14Z"/><path class="cls-2" d="M211.92,178.73s-4.83,1.07-4,4.78-5,8.54-5.59,9.35-1.37,1.16-.85,2.39S189.54,214,192,215.54s22.55,7.77,24.34,6.53,3.25-41.76,3.25-41.76Z"/><path class="cls-9" d="M211.92,178.73s-4.83,1.07-4,4.78-5,8.54-5.59,9.35-1.37,1.16-.85,2.39S189.54,214,192,215.54s22.55,7.77,24.34,6.53,3.25-41.76,3.25-41.76Z"/><path class="cls-8" d="M235.78,195.86s3,9.74,1,13.36,10.61,1,10.61,1,6.26.2,8,.54,8.2-.41,6.41-1.57a38.19,38.19,0,0,0-8.93-4.65c-3.84-1.24-9.6-4.1-9-9.27S235.78,195.86,235.78,195.86Z"/><path class="cls-2" d="M228.49,125.48a9.34,9.34,0,0,0-5.68-1.75c-3.29.12-14.05,2.69-13.75,3.2a10.09,10.09,0,0,0,1,1.28s-.68,3.12-.38,3.42-5.86,7.34-2.27,22.46,3.2,25.58,3.2,25.58-1.45,44.32,2.7,45.22,20.45.3,21.22-1.45-2.35-56.11-2.35-56.11S231.82,140,231,136.66,228.49,125.48,228.49,125.48Z"/><circle class="cls-8" cx="209.68" cy="76.6" r="10.29"/><path class="cls-8" d="M211.24,83.41s-6.37,6.24,1.49,11.06c5.53,3.4-13.37-2.64-13.37-2.64s3.93-10,3.33-12.34S211.24,83.41,211.24,83.41Z"/><path class="cls-6" d="M209.66,93.15s-8.84-4.06-10.3-2.6-7.73,7.43-.89,18,8.15,18.53,9.31,19.43,1.88-1.16,1.88-1.16,3.33-3,5.5-3,11.49,1,11.49,1l-2.6-10.34s1.28-8.15-3.08-12.21a88.32,88.32,0,0,1-9.14-10.72l-2.46-.45L211,93.19S211.24,93.83,209.66,93.15Z"/><path class="cls-3" d="M186.34,162.67c17.85-6.51,20.2-19.4,15.42-32.49s-14.88-21.42-32.73-14.9-31.89,38.51-31.89,38.51S168.49,169.19,186.34,162.67Z"/><polygon class="cls-5" points="198.72 130.32 183.87 136.01 169.08 152.86 181.54 136.91 174.87 139.47 164.04 151.31 173.1 140.15 173.1 140.15 161.09 144.76 153.17 156.1 159.2 145.48 137.1 153.69 166.14 142.21 164.95 142.72 150.59 139.38 167.23 141.75 180.46 136.12 180.1 136.23 164.7 131.95 181.35 135.74 183.01 135.03 183.03 135.01 183.17 134.97 216.74 120.67 217.61 123.07 200.04 129.81 189.77 143.41 198.72 130.32"/><path class="cls-8" d="M230,115.7s3.8,5.12,1.28,7-7.81-1.36-7.81-1.36-12.21,8.49-12,3.5,8.92-8.46,8.92-8.46l5.89.17-.89-2.94,2.47-.26Z"/><path class="cls-9" d="M230,115.7s3.8,5.12,1.28,7-7.81-1.36-7.81-1.36-12.21,8.49-12,3.5,8.92-8.46,8.92-8.46l5.89.17-.89-2.94,2.47-.26Z"/><path class="cls-8" d="M204.49,105.83s24,18.49,25.53,12c1-4.22.24-14.6-.43-21.36a20.9,20.9,0,0,0-6.2-13c-1.44-1.4-2.77-2.28-3.44-1.62-1.88,1.83,4.4,9.18,4.4,9.18s1,14.9-1,16.61c0,0-7.43-7.17-9-7.07S204.49,105.83,204.49,105.83Z"/><path class="cls-2" d="M188.59,86.23c2-3,3.59-7.72,5.34-11.92.57-1.35,1.09-2.73,1.6-4.11,1-2.79,5.48-6.38,11.31-6.38,6.67,0,12.08,3.35,12.08,6.17,0,2.33-3.7,4.29-8.75,4.9A30.64,30.64,0,0,1,213,86.23c0,6.74-5.46,3.89-12.21,3.89S184.86,91.84,188.59,86.23Z"/><path class="cls-6" d="M199.36,94.3s-4.27,10.89,5.34,13.37a8.11,8.11,0,0,1,5-3c3.07-.43,5.8-3.63,5.8-3.63s-6.27-8.84-11.19-9S199.36,94.3,199.36,94.3Z"/><path class="cls-7" d="M347,384.23c-.39.86-.79,1.7-1.18,2.53L344,390.55l-.79,1.62c-2.93,6-5.67,11.29-8,15.64A25,25,0,0,1,313.43,421l-51.69.57h-.54l-4.44,0-3.79,0-11.62.13h-.47l-5.92.07h-.18l-36.47.39-32.55.34-3.79,0-23.52.26h0l-15.26.16H123l-48.23.52-14.43.16a30.11,30.11,0,0,1-9.09-1.3A29.49,29.49,0,0,1,37.94,414a68.15,68.15,0,0,1-13.75-23.43c-.44-1.25-.84-2.52-1.22-3.79-10.51-35.5,2.3-81.3,25.34-111.95,1-1.28,1.95-2.53,2.94-3.75l0,0A94.38,94.38,0,0,1,74.77,249.9c15-9.17,31.61-11.76,48-4.06A107.22,107.22,0,0,0,162,256.26c1.27.08,2.53.14,3.79.18,28.71.9,55.61-9.44,87.21-16.12,1.26-.27,2.52-.53,3.79-.78,22.54-4.48,47.55-6.85,77.28-1.88a64.74,64.74,0,0,1,9.12,2.19c1.31.42,2.58.87,3.79,1.36,14.19,5.77,21.93,16.44,25.22,29.81.32,1.24.58,2.5.81,3.79C378.82,307,361.74,352.57,347,384.23Z"/><g class="cls-10"><path class="cls-11" d="M74.77,249.9V423.6l-14.43.16a30.42,30.42,0,0,1-9.09-1.3V271h0A94,94,0,0,1,74.77,249.9Z"/><path class="cls-11" d="M373,274.81H48.31c1-1.28,1.95-2.53,2.94-3.75v0h321Q372.67,272.89,373,274.81Z"/><path class="cls-11" d="M347,241.21V386.75h-1.18c-.61,1.29-1.22,2.55-1.82,3.79-.26.55-.53,1.09-.79,1.63V239.84C344.48,240.26,345.75,240.72,347,241.21Z"/><path class="cls-11" d="M256.77,239.53v182.1l-3.79,0V240.31C254.24,240,255.5,239.78,256.77,239.53Z"/><path class="cls-11" d="M165.77,256.43V422.62l-3.79,0V256.25C163.25,256.33,164.51,256.38,165.77,256.43Z"/><path class="cls-11" d="M345.78,386.76,344,390.55H24.19c-.44-1.25-.84-2.52-1.22-3.79Z"/></g><rect class="cls-5" x="91.37" y="325.48" width="6.48" height="19.65"/><rect class="cls-5" x="265.65" y="324.46" width="6.48" height="20.79"/><polygon class="cls-12" points="313.43 416.76 313.43 421.19 261.65 421.67 261.1 421.68 241.42 421.86 240.95 421.87 234.96 421.92 234.79 421.92 198.32 422.26 138.47 422.81 138.42 422.81 123.2 422.96 123.03 422.96 55.41 423.58 55.41 418.47 71.31 408.92 103.21 408.66 103.9 408.65 104.12 408.65 104.8 408.64 120.12 408.51 120.81 408.51 121.02 408.51 121.7 408.5 126.62 408.46 126.75 408.46 138.86 408.36 138.96 408.36 233.51 407.56 235.83 407.54 236.06 407.54 237.82 407.53 250.66 407.42 251.34 407.41 251.97 407.4 252.3 407.4 256.29 407.37 257.08 407.36 258.14 407.36 261.46 407.33 266.73 407.28 267.42 407.27 268.6 407.27 268.82 407.27 294.29 407.05 313.43 416.76"/><polygon class="cls-13" points="313.43 416.76 313.43 421.19 261.65 421.67 261.1 421.68 241.42 421.86 240.95 421.87 234.96 421.92 234.79 421.92 198.32 422.26 138.47 422.81 138.42 422.81 123.2 422.96 123.03 422.96 55.41 423.58 55.41 418.47 71.31 408.92 103.21 408.66 103.9 408.65 104.12 408.65 104.8 408.64 120.12 408.51 120.81 408.51 121.02 408.51 121.7 408.5 126.62 408.46 126.75 408.46 138.86 408.36 138.96 408.36 233.51 407.56 235.83 407.54 236.06 407.54 237.82 407.53 250.66 407.42 251.34 407.41 251.97 407.4 252.3 407.4 256.29 407.37 257.08 407.36 258.14 407.36 261.46 407.33 266.73 407.28 267.42 407.27 268.6 407.27 268.82 407.27 294.29 407.05 313.43 416.76"/><path class="cls-5" d="M120.17,399.72v8.35A2.09,2.09,0,0,1,119,410a2,2,0,0,1-.85.2l-11.9.26a2.12,2.12,0,0,1-2.14-2.1v-8.6Z"/><path class="cls-9" d="M120.17,399.72v8.35A2.09,2.09,0,0,1,119,410a2,2,0,0,1-.85.2l-11.9.26a2.12,2.12,0,0,1-2.14-2.1v-8.6Z"/><path class="cls-5" d="M120.85,399.72v8.35a2.09,2.09,0,0,1-1.19,1.89,2,2,0,0,1-.85.2l-11.9.26a2.09,2.09,0,0,1-.92-.2,2.07,2.07,0,0,1-1.21-1.9v-8.6Z"/><rect class="cls-5" x="251.34" y="399.72" width="16.08" height="10.74"/><rect class="cls-9" x="251.34" y="399.72" width="16.08" height="10.74"/><rect class="cls-5" x="250.66" y="399.72" width="16.08" height="10.74"/><polygon class="cls-9" points="97.85 325.48 97.85 327.43 91.37 327.26 91.37 325.48 97.85 325.48"/><path class="cls-12" d="M140.47,270.46l-7.78,55.89a1.47,1.47,0,0,1-1.49,1.27L68.89,326l-1.18,0a1.46,1.46,0,0,1-1.43-1.5c0-.05,0-.1,0-.16L75,265.8a1.47,1.47,0,0,1,1.55-1.24l62.53,4.23a1.46,1.46,0,0,1,1.37,1.55A.49.49,0,0,1,140.47,270.46Z"/><polygon class="cls-3" points="79.21 268.67 72.62 320.25 129.88 322.07 136.93 272.3 79.21 268.67"/><rect class="cls-12" x="150.34" y="267.87" width="69.76" height="59.08" rx="1.82"/><rect class="cls-3" x="153.63" y="271.85" width="63.4" height="49.19"/><polygon class="cls-9" points="272.13 324.45 272.13 325.75 265.65 325.88 265.65 324.45 272.13 324.45"/><path class="cls-12" d="M301.35,323.36a1.05,1.05,0,0,1-1,1.12h0l-63.81,1.32a1.06,1.06,0,0,1-1.07-.95l-5.48-57a1,1,0,0,1,.95-1.14H231l63.32-3.15.68,0a1,1,0,0,1,1.1.95Z"/><polygon class="cls-3" points="233.61 270.03 291.44 267.19 296.33 319 238.96 320.36 233.61 270.03"/><path class="cls-9" d="M301.35,323.36a1.05,1.05,0,0,1-1,1.12h0l-6-61,.68,0a1,1,0,0,1,1.1.95Z"/><path class="cls-9" d="M76.59,264.56,68.89,326l-1.18,0a1.46,1.46,0,0,1-1.43-1.5c0-.05,0-.1,0-.16L75,265.8A1.46,1.46,0,0,1,76.59,264.56Z"/><rect class="cls-9" x="91.37" y="339.31" width="6.48" height="5.82"/><polygon class="cls-9" points="120.85 399.72 120.85 401.42 104.78 401.85 104.78 399.72 120.85 399.72"/><path class="cls-12" d="M149.23,341.34v57.33a1.36,1.36,0,0,1-1.31,1.34l-65.33,1.74h0a1.36,1.36,0,0,1-1.35-1.34V341.34A1.37,1.37,0,0,1,82.58,340h65.3A1.37,1.37,0,0,1,149.23,341.34Z"/><path class="cls-9" d="M82.59,340v61.76h0a1.36,1.36,0,0,1-1.35-1.34V341.34A1.37,1.37,0,0,1,82.58,340Z"/><polygon class="cls-14" points="85.58 343.65 146.07 343.65 146.07 394.18 85.58 395.55 85.58 343.65"/><rect class="cls-9" x="265.65" y="339.31" width="6.48" height="5.94"/><polygon class="cls-9" points="266.73 399.72 266.73 401.91 250.66 401.48 250.66 399.72 266.73 399.72"/><path class="cls-12" d="M288,341.34v59.07a1.36,1.36,0,0,1-1.36,1.34h0L221.25,400a1.36,1.36,0,0,1-1.31-1.34V341.34a1.37,1.37,0,0,1,1.35-1.35h65.3A1.36,1.36,0,0,1,288,341.34Z"/><path class="cls-9" d="M288,341.34v59.07a1.36,1.36,0,0,1-1.36,1.34h0V340h0A1.37,1.37,0,0,1,288,341.34Z"/><polygon class="cls-14" points="283.61 343.65 223.11 343.65 223.11 394.18 283.61 395.55 283.61 343.65"/><path class="cls-12" d="M218.25,341.34v57.33a1.36,1.36,0,0,1-1.31,1.34l-65.33,1.74h0a1.36,1.36,0,0,1-1.36-1.34V341.34A1.37,1.37,0,0,1,151.6,340h65.3A1.37,1.37,0,0,1,218.25,341.34Z"/><polygon class="cls-14" points="154.6 343.65 215.1 343.65 215.1 394.18 154.6 395.55 154.6 343.65"/><polygon class="cls-9" points="313.43 416.76 313.43 421.19 261.65 421.67 261.1 421.68 241.42 421.86 240.95 421.87 234.96 421.92 234.79 421.92 198.32 422.26 138.47 422.81 138.42 422.81 123.2 422.96 123.03 422.96 55.41 423.58 55.41 418.47 124.44 418.01 124.6 418.01 138.57 417.92 138.63 417.92 235.12 417.28 235.22 417.28 235.28 417.28 235.44 417.28 237.07 417.27 237.57 417.27 262.96 417.1 264.46 417.09 264.79 417.09 313.43 416.76"/><circle class="cls-15" cx="185.33" cy="327.64" r="17.5"/><path class="cls-16" d="M123,423.08a.53.53,0,0,1,0-.12c.35-1.22,1-3.29,1.41-4.95,0-.2.11-.4.16-.59.5-1.87,1.47-6.23,2-9,.19-.95.34-1.7.37-2.08a57.49,57.49,0,0,1,2.25-5.87c.82-2,1.71-4.16,2.36-6a20.78,20.78,0,0,0,1-3.35,1.8,1.8,0,0,0,0-.73,5.34,5.34,0,0,1-.17-1.19h0c-.07-2.12.56-5.46,1.53-6.86,1.19-1.7,2-8.06,2-8.06s1.76.25,2-1.2a2.59,2.59,0,0,0,0-.48,2.34,2.34,0,0,0,0-.38c-.31-2.13,5-4.39,8-4.88a5.69,5.69,0,0,1,1-.09,9.82,9.82,0,0,0,2.13-.49l1-.34c1.25-.43,2.75-1,4.35-1.6,6-2.32,13.23-5.45,13.23-5.45.05-.25.11-.48.17-.71a9.47,9.47,0,0,1,5.57-6.45h0v-.68c0-1.18-.05-2.39-.1-3.59,0-.24,0-.47,0-.71v-.38c0-.24,0-.48,0-.72l-.06,0A5.84,5.84,0,0,1,172,344.7a5.07,5.07,0,0,1-.48-1,30.89,30.89,0,0,1-.82-3.66l-.06-.25a27.56,27.56,0,0,0-1.36-3.61c-.75-1.85-1.33-3.75-1.91-5.67-.35-1.17-.7-2.34-1.06-3.51l-.54-1.78c-.1-.35-.2-.69-.28-1h0a3.55,3.55,0,0,1-.09-.47h0a3.52,3.52,0,0,1,.08-1.58q.21-.51.45-1a2.64,2.64,0,0,0,.17-.47h0l0-.11a2.21,2.21,0,0,0,0-.37,5.91,5.91,0,0,0-.18-1.32v0a.29.29,0,0,0,0-.09,8.86,8.86,0,0,1-.12-1,9.72,9.72,0,0,1,1.18-5.31l.07-.12a8.69,8.69,0,0,1,.63-.95h0a4.18,4.18,0,0,1,.34-.42,1.23,1.23,0,0,1-1.71-.23,1.2,1.2,0,0,1-.18-.26,1.09,1.09,0,0,1-.08-.15s0-.09,0-.13a2.8,2.8,0,0,1,.72-2.4,6.3,6.3,0,0,1,2-1.6h0l.14-.08a7,7,0,0,1,.9-.36h0a5.62,5.62,0,0,1,.55-.15l-1.26-.11-.51-.05a4.93,4.93,0,0,1,4.43-3.72h.37a4.73,4.73,0,0,1,.53,0,1.5,1.5,0,0,1-.9-1.47,4.86,4.86,0,0,0,3.13,1h.13a10.46,10.46,0,0,1-.12-1.11h0a12.85,12.85,0,0,1,0-1.52,2.91,2.91,0,0,0,2.32.77l-.71-1a3.27,3.27,0,0,0,2.23.7l.17,0a1.89,1.89,0,0,0,.4-.08h0l-.18-.25,0,0A3.38,3.38,0,0,1,180,298a2.45,2.45,0,0,1-.08-.29h0a3,3,0,0,1,.15-1.86c1.1.92,2.31,2.18,3.75,1.23s1.49-2.7,3.75-2.52a3.49,3.49,0,0,1,2.87,2.08,2.31,2.31,0,0,1,2.61-.59,2.33,2.33,0,0,1,1.32,2.35,4.72,4.72,0,0,1,2.85-.12,1.67,1.67,0,0,1,1,2.27l-.05.07c-.42.54-1.35.84-1.25,1.52l.15.1.44.32h0q2.61,1.89,5.08,4a4.13,4.13,0,0,1,1.8,2.67,3.06,3.06,0,0,1-.08.8h0c-.06.27-.13.54-.19.8a7.13,7.13,0,0,0-.12,2.06h0c0,.21.06.4.1.6.52,2.64,2.62,4.81,2.83,7.5v.19a5.06,5.06,0,0,1,0,.87,18.41,18.41,0,0,1-1.53,4.77c0,.09-.07.19-.11.28a47.64,47.64,0,0,0-2.38,9.6c-.17,1.16-.4,2.31-.68,3.44a9.32,9.32,0,0,1-1.74,3.56,5.82,5.82,0,0,1-1.14,1,7.15,7.15,0,0,1-.91.48v0c0,.21.07.42.11.62l.06.34h0s0,0,0,0c.28,1.62.61,3.19.95,4.69l.18.75c4.29,1.55,4.8,4.73,4.83,5.95a3.84,3.84,0,0,1,0,.48s6.48.17,9,2.05a7,7,0,0,0,1.54.78,28.76,28.76,0,0,0,3.15,1l1.71.42,3.15.68c2.79.56,5.42,1,6.75,1.36,3.18.81,10.46,7.78,10.46,7.78s.85,7,1.7,8.06a30.92,30.92,0,0,1,2.39,4.63l5.63,10,2.39,4.21H254a2.62,2.62,0,0,1,1.1.72c.4.36.85.81,1.25,1.22l.65.7.41.45s2.48.06,3.15,2a15.45,15.45,0,0,1,6.23.85,4.92,4.92,0,0,1,.68.37,3,3,0,0,1,1.41,1.93,2.05,2.05,0,0,1,.06.49v.58c-.12,2.58-1.8,4.73-3.35,6.17l.11.2-.15.34c0,.06-.06.14-.09.22h0c-.21.43-.53,1.07-.95,1.82a21.47,21.47,0,0,1-3.26,4.49l-.1.11-19.68.18-.05-.07-3.82-4.56-1.9-2.26-.06-.07-.05.54-.19,1.81-.44,4.36,0,.22v.06l-.06.5,0-.5h-.1l-36.47.34-59.86.66v.29h0v-.29l-15.26.17Z"/><path class="cls-15" d="M202.83,363.42s-33.92,4.1-30.68,0c1.17-1.47,1.5-5.86,1.43-10.85,0-1.52-.07-3.09-.15-4.65-.38-7.5-1.28-14.83-1.28-14.83s29.65-14,26.24-2.9c-1.36,4.48-.91,10.76.12,16.66.31,1.72.66,3.41,1,5A115.39,115.39,0,0,0,202.83,363.42Z"/><path class="cls-9" d="M202.83,363.42s-33.92,4.1-30.68,0c1.17-1.47,1.5-5.86,1.43-10.85,5.17-2.21,11.75-.56,11.75-.56,6.93-1.38,11.37-1.11,14.21-.15A115.39,115.39,0,0,0,202.83,363.42Z"/><path class="cls-3" d="M138.45,423.2v-.29l59.86-.65,36.47-.34h.11l0,.5.05-.5H235v-.06l.47-4.58.18-1.74,0-.54.05-.45,2.11-7,2.1-7,1.78-5.91,2.7-9A30.66,30.66,0,0,0,242,381c-.86-1-1.71-8-1.71-8S233,366,229.86,365.24c-1.33-.34-4-.8-6.76-1.37-1-.21-2.12-.43-3.15-.68-.59-.13-1.16-.27-1.71-.41a31,31,0,0,1-3.15-1,7.11,7.11,0,0,1-1.53-.78c-2.51-1.84-8.79-2-9-2h0v-.05a3.08,3.08,0,0,0,0-.43,2.8,2.8,0,0,0,0-.48.5.5,0,0,0,0-.17c0-.12,0-.25-.07-.39s0-.12,0-.18a6.26,6.26,0,0,0-.43-1.19l-.08-.17a6.47,6.47,0,0,0-.58-.89l-.14-.18a6.6,6.6,0,0,0-.93-.9l-.29-.22-.17-.12-.3-.2-.29-.16a7.44,7.44,0,0,0-.8-.39,2.21,2.21,0,0,0-.27-.12l-.38-.14h0l-.25-.11-.6-.18-.32-.08-.34-.08-.34-.07c-.34-.07-.71-.13-1.09-.18l-.39,0-.4,0-.41,0-.58,0-.69,0a42.69,42.69,0,0,0-8.94.95,25,25,0,0,0-6.22-.57h-.3l-.34,0h-.22l-.44,0a3.49,3.49,0,0,0-.44,0l-.45.07-.22,0-.68.13-.23.05c-.3.07-.59.14-.89.23l-.44.14-.21.08L174,353l-.22.08-.25.1-.38.18-.22.1-.2.1a9.81,9.81,0,0,0-2.12,1.5l-.17.16-.17.18-.17.18a7.73,7.73,0,0,0-.62.77l-.15.21a8.45,8.45,0,0,0-.59,1c-.05.08-.09.17-.13.25a11,11,0,0,0-.68,1.79c-.06.22-.12.45-.17.68s-7.22,3.18-13.2,5.49c-1.6.61-3.09,1.17-4.35,1.59l-1,.34a9.69,9.69,0,0,1-2.13.49,5.77,5.77,0,0,0-1,.09c-2.76.45-7.47,2.39-8,4.33a1.12,1.12,0,0,0,0,.48v0c.34,2.39-2,2-2,2s-.85,6.31-2.05,8a13.42,13.42,0,0,0-1.52,6h0a6.19,6.19,0,0,0,.15,1.92v.05a8.66,8.66,0,0,1-.75,3.3c-.6,1.76-1.48,3.94-2.33,6-1.27,3.11-2.47,5.93-2.55,6.55,0,.28-.12.77-.24,1.41-.5,2.59-1.6,7.54-2.15,9.54-.4,1.49-1,3.54-1.4,4.94a.53.53,0,0,1,0,.12l15.28-.15v.29h0Z"/><path class="cls-9" d="M144,383s19.43,10.06,26.42,8.87Z"/><path class="cls-9" d="M183.57,378.93s18.92,6.14,25.22,7S183.57,378.93,183.57,378.93Z"/><path class="cls-9" d="M204.55,359.19c-9.88,1.82-28.49,1.43-36.54,1.15,3-10.56,17.33-7,17.33-7C203.13,349.82,204.5,357.19,204.55,359.19Z"/><path class="cls-3" d="M204.55,358.51c-9.88,1.82-28.49,1.43-36.54,1.15,3-10.56,17.33-7,17.33-7C203.13,349.14,204.5,356.51,204.55,358.51Z"/><path class="cls-15" d="M257,405.09s11.64-1.79,11.87,3.33S263,417.1,263,417.1Z"/><path class="cls-9" d="M198.51,346.85c-.5.23-1,.42-1.53.6a55.63,55.63,0,0,1-11.25,3,18.39,18.39,0,0,1-11.3-1.88,9.87,9.87,0,0,1-1-.66c-.38-7.5-1.28-14.83-1.28-14.83s29.65-14,26.24-2.9C197,334.67,197.48,341,198.51,346.85Z"/><path class="cls-5" d="M180.53,300.29a3.23,3.23,0,0,1-2.84-.6l.71,1a2.86,2.86,0,0,1-2.31-.77,11.66,11.66,0,0,0,.11,2.64,4.92,4.92,0,0,1-3.26-1,1.5,1.5,0,0,0,.9,1.47,4.89,4.89,0,0,0-5.32,3.65l1.78.16a6.31,6.31,0,0,0-3.56,2.18,2.76,2.76,0,0,0-.72,2.38c.24.83,1.39,1.36,2,.77a9.51,9.51,0,0,0-2.08,7.77,4.91,4.91,0,0,1,.16,1.79,16.76,16.76,0,0,1-.65,1.6,5.09,5.09,0,0,0,.29,3.07l1.6,5.25c.58,1.9,1.15,3.8,1.91,5.64a27.16,27.16,0,0,1,1.36,3.58c.43,1.65.45,3.46,1.37,4.9a6.68,6.68,0,0,0,2.44,2.16,18.35,18.35,0,0,0,11.31,1.87,54.51,54.51,0,0,0,11.23-3,10.06,10.06,0,0,0,2.33-1c2.54-1.66,3.1-5.06,3.58-8.06a46.06,46.06,0,0,1,2.48-9.82c.74-1.87,1.71-3.76,1.54-5.77-.21-2.66-2.31-4.82-2.83-7.44a6.35,6.35,0,0,1,0-2.64,6.24,6.24,0,0,0,.27-1.61,4.1,4.1,0,0,0-1.8-2.64c-1.84-1.54-3.73-3-5.68-4.35-.1-.68.83-1,1.25-1.51.59-.76,0-2-.92-2.32a4.72,4.72,0,0,0-2.85.11,2.25,2.25,0,0,0-3.94-1.74,3.45,3.45,0,0,0-2.87-2.07c-2.26-.18-2.3,1.55-3.75,2.5s-2.63-.3-3.75-1.22A3.18,3.18,0,0,0,180.53,300.29Z"/><path class="cls-3" d="M265.65,415.32s-.3.72-.86,1.77a23.18,23.18,0,0,1-3.07,4.49l-.09.1h-.55l-19.68.18h-.47l-.06-.07-3.82-4.53-1.44-1.71-.05-.07-.13-.14-.06-.09-.09-.1-2.8-3.32,1-4.26,1.74-7.18,0-.17.34-1.37.24-1,.81-3.33L239.46,383l4.95,2.55,5.21,9.21,2.8,4.94H254c.29,0,1,.56,1.62,1.2.24.23.48.47.68.68.61.63,1.09,1.17,1.09,1.17s2.49.05,3.15,2a1.4,1.4,0,0,1,.09.29,13.8,13.8,0,0,0,.86,2.24c.44.95,1,2,1.55,3.13,1,2,2.1,3.89,2.49,4.58l0,.08Z"/><path class="cls-9" d="M236.38,399.93l0,.49v0l-.06.78-.45,6.31-.55,7.6-.16,2.14-.34,4.59v.05l-36.47.34-59.85.65v.29h0v-.38l.15-4.9.29-9.56.26-8.11,0-.81a3.6,3.6,0,0,1,3.7-3.48l.19,0c1.61.13,3.7.3,6.2.48l1,.07c14.43,1,41.09,2.3,68,.68l1.7-.1c4.18-.27,8.34-.6,12.47-1a3.59,3.59,0,0,1,3.94,3.2,3.32,3.32,0,0,1,0,.63Z"/><path class="cls-5" d="M138.45,423.2v-.29l59.86-.65,36.47-.34h.11v-.06l.34-4.58.14-2,.56-7.71.44-6.1v-.15a3.38,3.38,0,0,0,0-.84,0,0,0,0,0,0,0,3.44,3.44,0,0,0-.68-1.58,3.58,3.58,0,0,0-3.21-1.36q-6.19.63-12.47,1l-1.7.11c-26.91,1.59-53.57.3-68-.69l-1-.07c-2.5-.18-4.59-.34-6.2-.48a3.59,3.59,0,0,0-3.83,2.91,5,5,0,0,0-.06.56l-.23,7.55-.32,9.57-.15,4.89v.38Z"/><path class="cls-9" d="M236.48,402.32l-.42,5.22-.63,7.79-.15,1.95-.34,4.37,0,.22v.05h0l0,.51,0-.51h-.1l-36.47.34-59.87.65v-.09l.17-4.9.34-9.56.22-6.36a2.15,2.15,0,0,1,2.33-2.09l2.62.2c1.67.12,3.72.26,6.12.41,4.43.28,10,.58,16.36.83,17.72.68,41.65.91,64.38-1.08l3.11-.29a2.09,2.09,0,0,1,1.18.23,1.49,1.49,0,0,1,.3.18,2.08,2.08,0,0,1,.68.84,1,1,0,0,1,.08.21A2,2,0,0,1,236.48,402.32Z"/><path class="cls-9" d="M120.85,407v1.09a2.09,2.09,0,0,1-1.19,1.89l-13.67.26a2.07,2.07,0,0,1-1.21-1.9v-1Z"/><polygon class="cls-5" points="121.02 410.6 103.21 410.94 103.21 407.99 121.02 407.65 121.02 410.6"/><polygon class="cls-9" points="121.02 410.6 103.21 410.94 103.21 407.99 121.02 407.65 121.02 410.6"/><polygon class="cls-5" points="121.7 410.6 103.9 410.94 103.9 407.99 121.7 407.65 121.7 410.6"/><g class="cls-10"><path d="M180.67,299.17a3.24,3.24,0,0,1-.65-1.48,3.22,3.22,0,0,0,.15,1.57A2.19,2.19,0,0,0,180.67,299.17Z"/><path d="M176.34,301.44a10.71,10.71,0,0,1-.13-1.27v1.27Z"/><path d="M204.12,312.81a6.71,6.71,0,0,1,.12-.9,6.23,6.23,0,0,0,.27-1.6,1.49,1.49,0,0,0,0-.36c-.06.31-.15.62-.22.93A6.28,6.28,0,0,0,204.12,312.81Z"/><path d="M197,302.28l.37.27a7.06,7.06,0,0,0,.88-.76,1.25,1.25,0,0,0,.13-1.24,1.59,1.59,0,0,1-.13.22C197.86,301.31,196.93,301.6,197,302.28Z"/><path d="M169,305.56a5.57,5.57,0,0,0-.3.77,6.54,6.54,0,0,1,1.71-.64Z"/><path d="M173.72,301.85a7.06,7.06,0,0,1-.64-.42,1.35,1.35,0,0,0,0,.4A4.15,4.15,0,0,1,173.72,301.85Z"/><path d="M207.05,321.93a17.3,17.3,0,0,1-1.54,4.81,46.06,46.06,0,0,0-2.48,9.82c-.48,3-1,6.4-3.58,8.06a9.87,9.87,0,0,1-2.33,1,54.35,54.35,0,0,1-11.25,3,18.31,18.31,0,0,1-11.3-1.87,6.79,6.79,0,0,1-2.45-2.16c-.91-1.44-.92-3.24-1.36-4.89a28.2,28.2,0,0,0-1.36-3.59c-.76-1.83-1.34-3.75-1.91-5.63s-1.07-3.51-1.6-5.26a9.1,9.1,0,0,1-.39-1.62,6.2,6.2,0,0,0,.39,2.64q.8,2.64,1.6,5.26a58.24,58.24,0,0,0,1.91,5.63,28.78,28.78,0,0,1,1.36,3.59c.43,1.65.45,3.45,1.36,4.9a6.86,6.86,0,0,0,2.45,2.15,18.4,18.4,0,0,0,11.3,1.88,55.5,55.5,0,0,0,11.25-3,10.33,10.33,0,0,0,2.33-1c2.54-1.66,3.1-5.06,3.58-8.05a45.76,45.76,0,0,1,2.48-9.82c.74-1.87,1.71-3.77,1.54-5.78Z"/><path d="M166.25,320.61v0a4.72,4.72,0,0,0-.16-1.79,10.56,10.56,0,0,1-.13-1.13,9.77,9.77,0,0,0,.13,2.16C166.15,320.07,166.21,320.34,166.25,320.61Z"/><path d="M167.29,312.27a9.8,9.8,0,0,1,.89-1.25c-.62.6-1.78.07-2-.76a2,2,0,0,0,0,1A1.48,1.48,0,0,0,167.29,312.27Z"/></g><path class="cls-9" d="M252.42,399.72a14.82,14.82,0,0,1,0,7.33C251.34,410.46,252.42,399.72,252.42,399.72Z"/><path class="cls-9" d="M257,403.72s.45,5-.57,5.86S257,403.72,257,403.72Z"/><rect class="cls-3" x="87.07" y="350.56" width="34.63" height="2" transform="translate(-3.43 1.04) rotate(-0.56)"/><rect class="cls-3" x="87.07" y="354.82" width="34.63" height="2" transform="translate(-3.47 1.04) rotate(-0.56)"/><rect class="cls-3" x="87.07" y="359.07" width="34.63" height="2" transform="translate(-3.51 1.04) rotate(-0.56)"/><rect class="cls-17" x="503.27" y="217.35" width="22.24" height="8.28"/><rect class="cls-17" x="540.22" y="203.24" width="22.24" height="8.28"/><rect class="cls-17" x="541.76" y="228.85" width="22.24" height="8.28"/><rect class="cls-17" x="470.6" y="238.36" width="22.24" height="8.28"/><rect class="cls-17" x="463.55" y="272.4" width="22.24" height="8.28"/><rect class="cls-17" x="497.13" y="271.63" width="22.24" height="8.28"/><polygon class="cls-4" points="541.47 233.4 524.72 221.35 539.88 206.96 540.57 207.69 526.28 221.24 542.05 232.58 541.47 233.4"/><rect class="cls-4" x="478.75" y="229.33" width="27.48" height="1" transform="translate(-36.19 355.76) rotate(-38.42)"/><polygon class="cls-4" points="475.15 272.53 474.18 272.26 481.46 245.7 508.59 271.27 507.91 272 481.98 247.57 475.15 272.53"/><rect class="cls-17" x="353.28" y="225.88" width="22.24" height="8.28"/><rect class="cls-17" x="390.24" y="211.77" width="22.24" height="8.28"/><rect class="cls-17" x="391.77" y="237.38" width="22.24" height="8.28"/><rect class="cls-17" x="320.79" y="204.15" width="22.24" height="8.28"/><polygon class="cls-4" points="391.48 241.93 374.74 229.88 389.9 215.5 390.58 216.22 376.3 229.77 392.07 241.12 391.48 241.93"/><rect class="cls-4" x="342.18" y="207.22" width="1" height="27.48" transform="translate(-43.28 352.46) rotate(-51.63)"/><rect class="cls-4" x="414.01" y="241.02" width="25.22" height="1"/><rect class="cls-3" x="427.91" y="237.28" width="26.14" height="8.26"/><rect class="cls-4" x="454.09" y="240.91" width="16.52" height="1"/><rect class="cls-4" x="419.63" y="213.74" width="1" height="29.79" transform="translate(-57.77 248.38) rotate(-30.92)"/><ellipse class="cls-4" cx="503.73" cy="399.79" rx="121.09" ry="26.97"/><polygon class="cls-18" points="559.86 311.01 548.05 370.17 545.5 370.17 545.22 369.73 544.4 368.46 554.63 313.2 556.18 312.55 559.86 311.01"/><polygon class="cls-9" points="556.18 312.55 545.22 369.73 544.4 368.46 554.63 313.2 556.18 312.55"/><polygon class="cls-18" points="577.63 391.59 574.6 392.57 573.86 392.81 572.89 390.62 556.18 314.41 557.92 314.02 561.57 313.2 577.63 391.59"/><polygon class="cls-9" points="574.6 392.57 573.86 392.81 572.89 390.62 556.18 314.41 557.92 314.02 574.6 392.57"/><polygon class="cls-18" points="432.9 311.01 430.22 387.7 427.15 388.38 426.94 388.43 426.08 386.85 427.79 311.74 429.43 311.51 432.9 311.01"/><polygon class="cls-9" points="429.43 311.51 427.15 388.38 426.94 388.43 426.08 386.85 427.79 311.74 429.43 311.51"/><polygon class="cls-18" points="448.85 414.84 445.67 415.39 445.32 415.45 444.34 413.38 428.88 313.2 429.33 313.06 431.68 312.35 448.85 414.84"/><polygon class="cls-9" points="445.67 415.39 445.32 415.45 444.34 413.38 428.88 313.2 429.33 313.06 445.67 415.39"/><path class="cls-19" d="M516,304.8l11.82,15.1a3.83,3.83,0,0,0,3.46,1.45l48.53-5.68a3.84,3.84,0,0,0,3.38-3.81v-11.2Z"/><path class="cls-18" d="M555.85,307.24h3.28V312a1.22,1.22,0,0,1-1.22,1.22h-.84a1.22,1.22,0,0,1-1.22-1.22h0v-4.74Z"/><path class="cls-19" d="M428.88,314.42l11.82,15.1a3.87,3.87,0,0,0,3.47,1.45l48.52-5.69a3.83,3.83,0,0,0,3.39-3.8v-11.2Z"/><path class="cls-18" d="M468.69,316.85H472v4.75a1.22,1.22,0,0,1-1.22,1.22h-.84a1.22,1.22,0,0,1-1.22-1.22h0v-4.75Z"/><path class="cls-18" d="M442.46,322.07l144.33-16.82a2.12,2.12,0,0,0,.71-4l-25.82-13a29.9,29.9,0,0,0-16.45-3L417,298.31a2.44,2.44,0,0,0-1.5,4.15l14.93,15.32A14.47,14.47,0,0,0,442.46,322.07Z"/><path class="cls-18" d="M602.67,303l-1.54-.86s-1.67,1.23-3,6.4,2.54.05,2.54.05l1.71-3.53Z"/><path class="cls-18" d="M586.16,350.33s-1.59,7.42-2.32,9.49c-.36,1-2.08,1.94-4,2.65a27.22,27.22,0,0,1-5.25,1.37c-2.07.24-28.6-3.9-41.51-6.7-8.69-1.88-9.81-4-9.62-5.25a1.71,1.71,0,0,1,.49-.95s12.78-8.65,17.29-12.79,13.39-.85,23.13.86S586.16,350.33,586.16,350.33Z"/><path class="cls-18" d="M601.13,302.12s6,3.9-14.12,11.93c0,0-10.92,6.16-9.5,31.51a7,7,0,0,0,1,3.22c2.08,3.41,6.52,12-.89,13.11v1.95s13.39-6.7,14.86-12.42,6.33-37.49,8.76-40.41S605.27,303.46,601.13,302.12Z"/><path class="cls-9" d="M579.84,362.47a27.22,27.22,0,0,1-5.25,1.37c-2.07.24-28.6-3.9-41.51-6.7-8.69-1.88-9.81-4-9.62-5.25,5.71,1.95,24.27,8.15,30.92,8.66,7.92.61,23,2.3,24.18,1.15C579,361.26,579.45,361.73,579.84,362.47Z"/><path class="cls-18" d="M510.32,413.14l11.56-52.83s2.07-5.6,6.82-5.36l4.38,2.19s-7.3-1.7-8.88,3.9-11.69,52.1-11.69,52.1Z"/><polygon class="cls-18" points="538.07 389.04 542.7 356.78 544.77 356.78 540.02 389.04 538.07 389.04"/><path class="cls-18" d="M582.38,420.56,578,370.17s0-4.26,2.19-6.33,9.27-8,9.27-8,1.81-.43,3.27,3.71,11.56,45.52,11.56,45.52l-1.94.86-12.54-47.72-8.65,8.16s-1.7,3-.85,5.84,4,48.32,4,48.32Z"/><polygon class="cls-18" points="568.87 362.62 579.83 365.79 582.26 363.47 575.93 362.62 568.87 362.62"/><path class="cls-19" d="M471.48,273.77l1.77,26.65,38.83-3.77-1.54-26a2.62,2.62,0,0,0-2.77-2.46h-.07L473.87,271A2.61,2.61,0,0,0,471.48,273.77Z"/><polygon class="cls-19" points="525.11 304.31 486.4 308.54 484.94 308.7 473.62 301.39 473.62 299.81 512.08 296.35 525.11 304.31"/><polygon class="cls-9" points="486.4 308.54 484.94 308.7 473.62 301.39 473.62 299.98 486.4 308.54"/><polygon class="cls-20" points="474.11 273.52 475.44 297.25 509.53 294.09 508.31 270.96 474.11 273.52"/><polygon class="cls-9" points="494.43 303.83 498.57 306.63 511.11 305.41 506.85 302.73 494.43 303.83"/><polygon class="cls-20" points="477.51 300.42 482.75 304.31 516.22 301.15 510.26 297.25 477.51 300.42"/><rect class="cls-6" x="536.92" y="264.45" width="24.71" height="24.71"/><rect class="cls-9" x="536.92" y="264.45" width="24.71" height="24.71"/><path class="cls-15" d="M545.43,275.88s3.48,9.44,0,11.19,12.49,0,12.49,0l4.5-3.63s-10.17-2.91-8.71-9.59S545.43,275.88,545.43,275.88Z"/><path class="cls-9" d="M545.43,275.88s3.48,9.44,0,11.19,12.49,0,12.49,0l4.5-3.63s-10.17-2.91-8.71-9.59S545.43,275.88,545.43,275.88Z"/><path class="cls-15" d="M516.81,370.58s13.08,18.45,10.9,23.53-1,8.28-5.38,10-5.52,4.93-1.74,4.79,8.71-1.16,9.44-2.47,2.47-7.55,4.94-8.43,7.12-4.21,3.78-8.27S527,370.71,527.64,369.19,516.81,370.58,516.81,370.58Z"/><path class="cls-20" d="M544.12,334.13s-27,1.74-34,8.28,6.1,30.93,7.55,31.22,12.79-.87,12.35-4.06-8.13-16.27-8.13-16.27,10-3.63,15.54-4.5,11.62-4.94,11.62-4.94Z"/><path class="cls-15" d="M531.77,330.06s.44,16.12,4.51,16.7,0-12.34,0-12.34l-.15-4.94Z"/><path class="cls-3" d="M544.12,287.79s-7.55-2.17-9,3.63-1.88,25.86-1.88,25.86l-2.62,16s4.79-1.46,5.81-.73l6.1-7.7Z"/><path class="cls-9" d="M544.12,287.79s-7.55-2.17-9,3.63-1.88,25.86-1.88,25.86l-2.62,16s4.79-1.46,5.81-.73l6.1-7.7Z"/><path class="cls-15" d="M554.44,373.68s5.08,10,8.13,9.83,5.95-2,7.4,3.92-.29,4.36,1.46,7.85,2,9.58-1.31,11-6.39,1.6-6.54,0,2.91-1.59-.58-7.26-10.89-16-13.94-17S554.44,373.68,554.44,373.68Z"/><path class="cls-20" d="M567.65,328.17s10.46,17.43,3.63,22.51-27.16,14.82-27.16,14.82,10.89,7.41,11.47,9.88-5.23,9.15-7.26,9.29-8-6.68-14.38-8.42-10.31-14.24-3.34-18.88S544.12,345,544.12,345l-2-11.18Z"/><path class="cls-15" d="M558.58,270.05c0,6.17-6.32,11.28-12.5,11.28a11.19,11.19,0,0,1,0-22.37C552.26,259,558.58,263.87,558.58,270.05Z"/><path class="cls-3" d="M548.91,286.2s10-4.36,10-4.94,5.81,1.3,7.12,2.47,2,1,2.91,3.34-4.36,24-4.36,24,2.9,16.71,4.5,18.3-12.93,3.93-12.93,3.93S546.59,335,545,335.72s-4.5,1.75-3.92,0,3-3.05-1.16-5.22c0,0,1.45-7.12,0-10.32s-8.14-14.81-2.76-23.24S545,285.47,545,285.47A4.09,4.09,0,0,0,548.91,286.2Z"/><path class="cls-15" d="M552.11,325.85s-11.33,5-14.74,5.49-13.73,3.08-8.07,5.4,14.24-1.16,14.24-1.16l12.05-5.08Z"/><path class="cls-9" d="M564.31,285.75s4.18-2,5.34,5.09,5.23,29.63,0,33-17.28,8.72-17.28,8.72-7.12-4.79-3.78-6.54,11.33-6.68,12.49-8.42,2.34-21.2.3-24.39S564.31,285.75,564.31,285.75Z"/><path class="cls-3" d="M564,284s5.81-.29,7,6.82,5.23,29.63,0,33-17.28,8.72-17.28,8.72-7.12-4.79-3.78-6.54,11.33-6.68,12.49-8.42-.87-19.9-2.9-23.1S564,284,564,284Z"/><path class="cls-6" d="M543.33,251.32c-1.79.24-3.7.89-4.6,2.45a21,21,0,0,0-.92,2.48c-.93,2.24-3.2,3.58-4.83,5.38-2.14,2.34-3.19,5.86-1.94,8.77a36,36,0,0,0,1.88,3.16c1.67,3,1.76,6.57,1.81,10l.09,6.73a9.47,9.47,0,0,1-.28,3.05,3.28,3.28,0,0,1-2,2.21,5.14,5.14,0,0,0,6-2,5.23,5.23,0,0,1-1.61,4.65,10.43,10.43,0,0,0,6.31-4.91,19.13,19.13,0,0,0,2.35-7.8,10.2,10.2,0,0,0-.25-4.3,13.35,13.35,0,0,0-1.41-2.7,21,21,0,0,1-3-7.22,9.3,9.3,0,0,1,1.68-7.46,6.75,6.75,0,0,1,5.32-2.43,5.92,5.92,0,0,1,4.93,3c.39.73.94,1.72,1.73,1.46a3.29,3.29,0,0,0,.42-.21c.88-.4,1.88.39,2.27,1.28,1.22,2.78-1,5.83-1.26,8.86-.22,2.82,1.35,5.48,3.23,7.6a25,25,0,0,0,12.21,7.5,3.47,3.47,0,0,1-1.77-1.1,23.79,23.79,0,0,0,5.71-.48,39.6,39.6,0,0,1-5.81-5,13.29,13.29,0,0,1-3.42-6.75c-.5-3.4.77-7.08-.68-10.19-1.32-2.85-4.6-4.44-5.8-7.34s-2-5.51-5.23-6.8C550.91,251.78,547.13,250.8,543.33,251.32Z"/></g></g></svg>